<mxfile host="Electron" agent="Mozilla/5.0 (Windows NT 10.0; Win64; x64) AppleWebKit/537.36 (KHTML, like Gecko) draw.io/26.0.9 Chrome/128.0.6613.186 Electron/32.2.5 Safari/537.36" version="26.0.9" pages="6">
  <diagram name="虚拟内存" id="kcrXX2a59Rj-RcSPHwbT">
    <mxGraphModel dx="1050" dy="621" grid="1" gridSize="10" guides="1" tooltips="1" connect="1" arrows="1" fold="1" page="1" pageScale="1" pageWidth="827" pageHeight="1169" math="0" shadow="0">
      <root>
        <mxCell id="0" />
        <mxCell id="1" parent="0" />
        <mxCell id="IbKQ7ag2hueVyIo12gT1-26" value="" style="group" parent="1" vertex="1" connectable="0">
          <mxGeometry x="369" y="110" width="140" height="270" as="geometry" />
        </mxCell>
        <mxCell id="IbKQ7ag2hueVyIo12gT1-2" value="" style="childLayout=tableLayout;recursiveResize=0;shadow=0;fillColor=#1ba1e2;fontColor=#ffffff;strokeColor=#006EAF;strokeWidth=2;" parent="IbKQ7ag2hueVyIo12gT1-26" vertex="1">
          <mxGeometry y="30" width="140" height="240" as="geometry" />
        </mxCell>
        <mxCell id="IbKQ7ag2hueVyIo12gT1-3" value="" style="shape=tableRow;horizontal=0;startSize=0;swimlaneHead=0;swimlaneBody=0;top=0;left=0;bottom=0;right=0;dropTarget=0;collapsible=0;recursiveResize=0;expand=0;fontStyle=0;fillColor=none;strokeColor=#001DBC;fontColor=#ffffff;" parent="IbKQ7ag2hueVyIo12gT1-2" vertex="1">
          <mxGeometry width="140" height="30" as="geometry" />
        </mxCell>
        <mxCell id="IbKQ7ag2hueVyIo12gT1-4" value="App 1 Block 1" style="connectable=0;recursiveResize=0;strokeColor=#2D7600;fillColor=#60a917;align=center;whiteSpace=wrap;html=1;fontColor=#ffffff;" parent="IbKQ7ag2hueVyIo12gT1-3" vertex="1">
          <mxGeometry width="140" height="30" as="geometry">
            <mxRectangle width="140" height="30" as="alternateBounds" />
          </mxGeometry>
        </mxCell>
        <mxCell id="IbKQ7ag2hueVyIo12gT1-7" style="shape=tableRow;horizontal=0;startSize=0;swimlaneHead=0;swimlaneBody=0;top=0;left=0;bottom=0;right=0;dropTarget=0;collapsible=0;recursiveResize=0;expand=0;fontStyle=0;fillColor=none;strokeColor=#001DBC;fontColor=#ffffff;" parent="IbKQ7ag2hueVyIo12gT1-2" vertex="1">
          <mxGeometry y="30" width="140" height="30" as="geometry" />
        </mxCell>
        <mxCell id="IbKQ7ag2hueVyIo12gT1-8" value="App 1 Block 2" style="connectable=0;recursiveResize=0;strokeColor=#2D7600;fillColor=#60a917;align=center;whiteSpace=wrap;html=1;fontColor=#ffffff;" parent="IbKQ7ag2hueVyIo12gT1-7" vertex="1">
          <mxGeometry width="140" height="30" as="geometry">
            <mxRectangle width="140" height="30" as="alternateBounds" />
          </mxGeometry>
        </mxCell>
        <mxCell id="IbKQ7ag2hueVyIo12gT1-11" style="shape=tableRow;horizontal=0;startSize=0;swimlaneHead=0;swimlaneBody=0;top=0;left=0;bottom=0;right=0;dropTarget=0;collapsible=0;recursiveResize=0;expand=0;fontStyle=0;fillColor=none;strokeColor=#001DBC;fontColor=#ffffff;" parent="IbKQ7ag2hueVyIo12gT1-2" vertex="1">
          <mxGeometry y="60" width="140" height="30" as="geometry" />
        </mxCell>
        <mxCell id="IbKQ7ag2hueVyIo12gT1-12" value="App 1 Block 3" style="connectable=0;recursiveResize=0;strokeColor=#2D7600;fillColor=#60a917;align=center;whiteSpace=wrap;html=1;fontColor=#ffffff;" parent="IbKQ7ag2hueVyIo12gT1-11" vertex="1">
          <mxGeometry width="140" height="30" as="geometry">
            <mxRectangle width="140" height="30" as="alternateBounds" />
          </mxGeometry>
        </mxCell>
        <mxCell id="IbKQ7ag2hueVyIo12gT1-15" style="shape=tableRow;horizontal=0;startSize=0;swimlaneHead=0;swimlaneBody=0;top=0;left=0;bottom=0;right=0;dropTarget=0;collapsible=0;recursiveResize=0;expand=0;fontStyle=0;fillColor=none;strokeColor=#001DBC;fontColor=#ffffff;" parent="IbKQ7ag2hueVyIo12gT1-2" vertex="1">
          <mxGeometry y="90" width="140" height="30" as="geometry" />
        </mxCell>
        <mxCell id="IbKQ7ag2hueVyIo12gT1-16" value="App 1 Block 4" style="connectable=0;recursiveResize=0;strokeColor=#2D7600;fillColor=#60a917;align=center;whiteSpace=wrap;html=1;fontColor=#ffffff;" parent="IbKQ7ag2hueVyIo12gT1-15" vertex="1">
          <mxGeometry width="140" height="30" as="geometry">
            <mxRectangle width="140" height="30" as="alternateBounds" />
          </mxGeometry>
        </mxCell>
        <mxCell id="IbKQ7ag2hueVyIo12gT1-17" style="shape=tableRow;horizontal=0;startSize=0;swimlaneHead=0;swimlaneBody=0;top=0;left=0;bottom=0;right=0;dropTarget=0;collapsible=0;recursiveResize=0;expand=0;fontStyle=0;fillColor=none;strokeColor=#001DBC;fontColor=#ffffff;" parent="IbKQ7ag2hueVyIo12gT1-2" vertex="1">
          <mxGeometry y="120" width="140" height="30" as="geometry" />
        </mxCell>
        <mxCell id="IbKQ7ag2hueVyIo12gT1-18" style="connectable=0;recursiveResize=0;strokeColor=#001DBC;fillColor=none;align=center;whiteSpace=wrap;html=1;fontColor=#ffffff;" parent="IbKQ7ag2hueVyIo12gT1-17" vertex="1">
          <mxGeometry width="140" height="30" as="geometry">
            <mxRectangle width="140" height="30" as="alternateBounds" />
          </mxGeometry>
        </mxCell>
        <mxCell id="IbKQ7ag2hueVyIo12gT1-19" style="shape=tableRow;horizontal=0;startSize=0;swimlaneHead=0;swimlaneBody=0;top=0;left=0;bottom=0;right=0;dropTarget=0;collapsible=0;recursiveResize=0;expand=0;fontStyle=0;fillColor=none;strokeColor=#001DBC;fontColor=#ffffff;" parent="IbKQ7ag2hueVyIo12gT1-2" vertex="1">
          <mxGeometry y="150" width="140" height="30" as="geometry" />
        </mxCell>
        <mxCell id="IbKQ7ag2hueVyIo12gT1-20" style="connectable=0;recursiveResize=0;strokeColor=#001DBC;fillColor=none;align=center;whiteSpace=wrap;html=1;fontColor=#ffffff;" parent="IbKQ7ag2hueVyIo12gT1-19" vertex="1">
          <mxGeometry width="140" height="30" as="geometry">
            <mxRectangle width="140" height="30" as="alternateBounds" />
          </mxGeometry>
        </mxCell>
        <mxCell id="IbKQ7ag2hueVyIo12gT1-21" style="shape=tableRow;horizontal=0;startSize=0;swimlaneHead=0;swimlaneBody=0;top=0;left=0;bottom=0;right=0;dropTarget=0;collapsible=0;recursiveResize=0;expand=0;fontStyle=0;fillColor=none;strokeColor=#001DBC;fontColor=#ffffff;" parent="IbKQ7ag2hueVyIo12gT1-2" vertex="1">
          <mxGeometry y="180" width="140" height="30" as="geometry" />
        </mxCell>
        <mxCell id="IbKQ7ag2hueVyIo12gT1-22" value="App 2 Block 1" style="connectable=0;recursiveResize=0;strokeColor=#001DBC;fillColor=#0050ef;align=center;whiteSpace=wrap;html=1;fontColor=#ffffff;" parent="IbKQ7ag2hueVyIo12gT1-21" vertex="1">
          <mxGeometry width="140" height="30" as="geometry">
            <mxRectangle width="140" height="30" as="alternateBounds" />
          </mxGeometry>
        </mxCell>
        <mxCell id="IbKQ7ag2hueVyIo12gT1-23" style="shape=tableRow;horizontal=0;startSize=0;swimlaneHead=0;swimlaneBody=0;top=0;left=0;bottom=0;right=0;dropTarget=0;collapsible=0;recursiveResize=0;expand=0;fontStyle=0;fillColor=none;strokeColor=#001DBC;fontColor=#ffffff;" parent="IbKQ7ag2hueVyIo12gT1-2" vertex="1">
          <mxGeometry y="210" width="140" height="30" as="geometry" />
        </mxCell>
        <mxCell id="IbKQ7ag2hueVyIo12gT1-24" value="App 2 Block 2" style="connectable=0;recursiveResize=0;strokeColor=#001DBC;fillColor=#0050ef;align=center;whiteSpace=wrap;html=1;fontColor=#ffffff;" parent="IbKQ7ag2hueVyIo12gT1-23" vertex="1">
          <mxGeometry width="140" height="30" as="geometry">
            <mxRectangle width="140" height="30" as="alternateBounds" />
          </mxGeometry>
        </mxCell>
        <mxCell id="IbKQ7ag2hueVyIo12gT1-25" value="物理内存" style="text;html=1;align=center;verticalAlign=middle;whiteSpace=wrap;rounded=0;" parent="IbKQ7ag2hueVyIo12gT1-26" vertex="1">
          <mxGeometry width="140" height="30" as="geometry" />
        </mxCell>
        <mxCell id="IbKQ7ag2hueVyIo12gT1-29" style="edgeStyle=orthogonalEdgeStyle;rounded=0;orthogonalLoop=1;jettySize=auto;html=1;entryX=0;entryY=0.5;entryDx=0;entryDy=0;" parent="1" source="IbKQ7ag2hueVyIo12gT1-27" target="IbKQ7ag2hueVyIo12gT1-7" edge="1">
          <mxGeometry relative="1" as="geometry" />
        </mxCell>
        <mxCell id="IbKQ7ag2hueVyIo12gT1-30" style="edgeStyle=orthogonalEdgeStyle;rounded=0;orthogonalLoop=1;jettySize=auto;html=1;entryX=0;entryY=0.5;entryDx=0;entryDy=0;" parent="1" source="IbKQ7ag2hueVyIo12gT1-27" target="IbKQ7ag2hueVyIo12gT1-11" edge="1">
          <mxGeometry relative="1" as="geometry" />
        </mxCell>
        <mxCell id="IbKQ7ag2hueVyIo12gT1-31" style="edgeStyle=orthogonalEdgeStyle;rounded=0;orthogonalLoop=1;jettySize=auto;html=1;" parent="1" source="IbKQ7ag2hueVyIo12gT1-27" target="IbKQ7ag2hueVyIo12gT1-3" edge="1">
          <mxGeometry relative="1" as="geometry" />
        </mxCell>
        <mxCell id="IbKQ7ag2hueVyIo12gT1-32" style="edgeStyle=orthogonalEdgeStyle;rounded=0;orthogonalLoop=1;jettySize=auto;html=1;entryX=0;entryY=0.5;entryDx=0;entryDy=0;" parent="1" source="IbKQ7ag2hueVyIo12gT1-27" target="IbKQ7ag2hueVyIo12gT1-15" edge="1">
          <mxGeometry relative="1" as="geometry" />
        </mxCell>
        <mxCell id="IbKQ7ag2hueVyIo12gT1-27" value="Application 1（4MB）" style="image;html=1;image=img/lib/clip_art/computers/Software_128x128.png;imageBackground=none;" parent="1" vertex="1">
          <mxGeometry x="169" y="115" width="80" height="80" as="geometry" />
        </mxCell>
        <mxCell id="IbKQ7ag2hueVyIo12gT1-35" style="edgeStyle=orthogonalEdgeStyle;rounded=0;orthogonalLoop=1;jettySize=auto;html=1;entryX=0;entryY=0.5;entryDx=0;entryDy=0;" parent="1" source="IbKQ7ag2hueVyIo12gT1-28" target="IbKQ7ag2hueVyIo12gT1-21" edge="1">
          <mxGeometry relative="1" as="geometry" />
        </mxCell>
        <mxCell id="IbKQ7ag2hueVyIo12gT1-36" style="edgeStyle=orthogonalEdgeStyle;rounded=0;orthogonalLoop=1;jettySize=auto;html=1;entryX=0;entryY=0.5;entryDx=0;entryDy=0;" parent="1" source="IbKQ7ag2hueVyIo12gT1-28" target="IbKQ7ag2hueVyIo12gT1-23" edge="1">
          <mxGeometry relative="1" as="geometry" />
        </mxCell>
        <mxCell id="IbKQ7ag2hueVyIo12gT1-28" value="Application 2（2MB）" style="image;html=1;image=img/lib/clip_art/computers/Software_128x128.png" parent="1" vertex="1">
          <mxGeometry x="169" y="295" width="80" height="80" as="geometry" />
        </mxCell>
        <mxCell id="IbKQ7ag2hueVyIo12gT1-33" value="" style="shape=curlyBracket;whiteSpace=wrap;html=1;rounded=1;flipH=1;labelPosition=right;verticalLabelPosition=middle;align=left;verticalAlign=middle;" parent="1" vertex="1">
          <mxGeometry x="509" y="140" width="20" height="120" as="geometry" />
        </mxCell>
        <mxCell id="IbKQ7ag2hueVyIo12gT1-34" value="Application 1 的内存" style="text;html=1;align=center;verticalAlign=middle;resizable=0;points=[];autosize=1;strokeColor=none;fillColor=none;" parent="1" vertex="1">
          <mxGeometry x="529" y="185" width="130" height="30" as="geometry" />
        </mxCell>
        <mxCell id="IbKQ7ag2hueVyIo12gT1-37" value="" style="shape=curlyBracket;whiteSpace=wrap;html=1;rounded=1;flipH=1;labelPosition=right;verticalLabelPosition=middle;align=left;verticalAlign=middle;" parent="1" vertex="1">
          <mxGeometry x="509" y="320" width="20" height="60" as="geometry" />
        </mxCell>
        <mxCell id="IbKQ7ag2hueVyIo12gT1-38" value="Application 2 的内存" style="text;html=1;align=center;verticalAlign=middle;resizable=0;points=[];autosize=1;strokeColor=none;fillColor=none;" parent="1" vertex="1">
          <mxGeometry x="529" y="335" width="130" height="30" as="geometry" />
        </mxCell>
        <mxCell id="IbKQ7ag2hueVyIo12gT1-39" value="&lt;b&gt;&lt;u&gt;物理内存&lt;/u&gt;&lt;/b&gt;：当把应用加载到内存中时需要进行内存规划" style="shape=note;whiteSpace=wrap;html=1;backgroundOutline=1;darkOpacity=0.05;size=14;fillColor=#e3c800;fontColor=#000000;strokeColor=#B09500;" parent="1" vertex="1">
          <mxGeometry x="239" y="30" width="391" height="50" as="geometry" />
        </mxCell>
        <mxCell id="IbKQ7ag2hueVyIo12gT1-40" value="" style="group" parent="1" vertex="1" connectable="0">
          <mxGeometry x="620" y="610" width="95.93" height="185" as="geometry" />
        </mxCell>
        <mxCell id="IbKQ7ag2hueVyIo12gT1-41" value="" style="childLayout=tableLayout;recursiveResize=0;shadow=0;fillColor=#1ba1e2;fontColor=#ffffff;strokeColor=#006EAF;strokeWidth=2;" parent="IbKQ7ag2hueVyIo12gT1-40" vertex="1">
          <mxGeometry y="20.555555555555557" width="95.93" height="164.44444444444446" as="geometry" />
        </mxCell>
        <mxCell id="IbKQ7ag2hueVyIo12gT1-42" value="" style="shape=tableRow;horizontal=0;startSize=0;swimlaneHead=0;swimlaneBody=0;top=0;left=0;bottom=0;right=0;dropTarget=0;collapsible=0;recursiveResize=0;expand=0;fontStyle=0;fillColor=none;strokeColor=#001DBC;fontColor=#ffffff;" parent="IbKQ7ag2hueVyIo12gT1-41" vertex="1">
          <mxGeometry width="95.93" height="21" as="geometry" />
        </mxCell>
        <mxCell id="IbKQ7ag2hueVyIo12gT1-43" value="&lt;div style=&quot;font-size: 10px;&quot;&gt;App 1 Block 1&lt;/div&gt;" style="connectable=0;recursiveResize=0;strokeColor=#2D7600;fillColor=#60a917;align=center;whiteSpace=wrap;html=1;fontColor=#ffffff;fontSize=10;" parent="IbKQ7ag2hueVyIo12gT1-42" vertex="1">
          <mxGeometry width="96" height="21" as="geometry">
            <mxRectangle width="96" height="21" as="alternateBounds" />
          </mxGeometry>
        </mxCell>
        <mxCell id="IbKQ7ag2hueVyIo12gT1-44" style="shape=tableRow;horizontal=0;startSize=0;swimlaneHead=0;swimlaneBody=0;top=0;left=0;bottom=0;right=0;dropTarget=0;collapsible=0;recursiveResize=0;expand=0;fontStyle=0;fillColor=none;strokeColor=#001DBC;fontColor=#ffffff;" parent="IbKQ7ag2hueVyIo12gT1-41" vertex="1">
          <mxGeometry y="21" width="95.93" height="20" as="geometry" />
        </mxCell>
        <mxCell id="IbKQ7ag2hueVyIo12gT1-45" value="" style="connectable=0;recursiveResize=0;strokeColor=#006EAF;fillColor=#1ba1e2;align=center;whiteSpace=wrap;html=1;fontColor=#ffffff;fontSize=10;" parent="IbKQ7ag2hueVyIo12gT1-44" vertex="1">
          <mxGeometry width="96" height="20" as="geometry">
            <mxRectangle width="96" height="20" as="alternateBounds" />
          </mxGeometry>
        </mxCell>
        <mxCell id="IbKQ7ag2hueVyIo12gT1-46" style="shape=tableRow;horizontal=0;startSize=0;swimlaneHead=0;swimlaneBody=0;top=0;left=0;bottom=0;right=0;dropTarget=0;collapsible=0;recursiveResize=0;expand=0;fontStyle=0;fillColor=none;strokeColor=#001DBC;fontColor=#ffffff;" parent="IbKQ7ag2hueVyIo12gT1-41" vertex="1">
          <mxGeometry y="41" width="95.93" height="21" as="geometry" />
        </mxCell>
        <mxCell id="IbKQ7ag2hueVyIo12gT1-47" value="App 1 Block 4" style="connectable=0;recursiveResize=0;strokeColor=#2D7600;fillColor=#60a917;align=center;whiteSpace=wrap;html=1;fontColor=#ffffff;fontSize=10;" parent="IbKQ7ag2hueVyIo12gT1-46" vertex="1">
          <mxGeometry width="96" height="21" as="geometry">
            <mxRectangle width="96" height="21" as="alternateBounds" />
          </mxGeometry>
        </mxCell>
        <mxCell id="IbKQ7ag2hueVyIo12gT1-48" style="shape=tableRow;horizontal=0;startSize=0;swimlaneHead=0;swimlaneBody=0;top=0;left=0;bottom=0;right=0;dropTarget=0;collapsible=0;recursiveResize=0;expand=0;fontStyle=0;fillColor=none;strokeColor=#001DBC;fontColor=#ffffff;" parent="IbKQ7ag2hueVyIo12gT1-41" vertex="1">
          <mxGeometry y="62" width="95.93" height="20" as="geometry" />
        </mxCell>
        <mxCell id="IbKQ7ag2hueVyIo12gT1-49" value="" style="connectable=0;recursiveResize=0;strokeColor=#006EAF;fillColor=#1ba1e2;align=center;whiteSpace=wrap;html=1;fontColor=#ffffff;fontSize=10;" parent="IbKQ7ag2hueVyIo12gT1-48" vertex="1">
          <mxGeometry width="96" height="20" as="geometry">
            <mxRectangle width="96" height="20" as="alternateBounds" />
          </mxGeometry>
        </mxCell>
        <mxCell id="IbKQ7ag2hueVyIo12gT1-50" style="shape=tableRow;horizontal=0;startSize=0;swimlaneHead=0;swimlaneBody=0;top=0;left=0;bottom=0;right=0;dropTarget=0;collapsible=0;recursiveResize=0;expand=0;fontStyle=0;fillColor=none;strokeColor=#001DBC;fontColor=#ffffff;" parent="IbKQ7ag2hueVyIo12gT1-41" vertex="1">
          <mxGeometry y="82" width="95.93" height="21" as="geometry" />
        </mxCell>
        <mxCell id="IbKQ7ag2hueVyIo12gT1-51" value="App 2 Block 1" style="connectable=0;recursiveResize=0;strokeColor=#001DBC;fillColor=#0050ef;align=center;whiteSpace=wrap;html=1;fontColor=#ffffff;fontSize=10;" parent="IbKQ7ag2hueVyIo12gT1-50" vertex="1">
          <mxGeometry width="96" height="21" as="geometry">
            <mxRectangle width="96" height="21" as="alternateBounds" />
          </mxGeometry>
        </mxCell>
        <mxCell id="IbKQ7ag2hueVyIo12gT1-52" style="shape=tableRow;horizontal=0;startSize=0;swimlaneHead=0;swimlaneBody=0;top=0;left=0;bottom=0;right=0;dropTarget=0;collapsible=0;recursiveResize=0;expand=0;fontStyle=0;fillColor=none;strokeColor=#001DBC;fontColor=#ffffff;" parent="IbKQ7ag2hueVyIo12gT1-41" vertex="1">
          <mxGeometry y="103" width="95.93" height="20" as="geometry" />
        </mxCell>
        <mxCell id="IbKQ7ag2hueVyIo12gT1-53" value="App 1 Block 2" style="connectable=0;recursiveResize=0;strokeColor=#2D7600;fillColor=#60a917;align=center;whiteSpace=wrap;html=1;fontColor=#ffffff;fontSize=10;" parent="IbKQ7ag2hueVyIo12gT1-52" vertex="1">
          <mxGeometry width="96" height="20" as="geometry">
            <mxRectangle width="96" height="20" as="alternateBounds" />
          </mxGeometry>
        </mxCell>
        <mxCell id="IbKQ7ag2hueVyIo12gT1-54" style="shape=tableRow;horizontal=0;startSize=0;swimlaneHead=0;swimlaneBody=0;top=0;left=0;bottom=0;right=0;dropTarget=0;collapsible=0;recursiveResize=0;expand=0;fontStyle=0;fillColor=none;strokeColor=#001DBC;fontColor=#ffffff;" parent="IbKQ7ag2hueVyIo12gT1-41" vertex="1">
          <mxGeometry y="123" width="95.93" height="21" as="geometry" />
        </mxCell>
        <mxCell id="IbKQ7ag2hueVyIo12gT1-55" value="App 1 Block 3" style="connectable=0;recursiveResize=0;strokeColor=#2D7600;fillColor=#60a917;align=center;whiteSpace=wrap;html=1;fontColor=#ffffff;fontSize=10;" parent="IbKQ7ag2hueVyIo12gT1-54" vertex="1">
          <mxGeometry width="96" height="21" as="geometry">
            <mxRectangle width="96" height="21" as="alternateBounds" />
          </mxGeometry>
        </mxCell>
        <mxCell id="IbKQ7ag2hueVyIo12gT1-56" style="shape=tableRow;horizontal=0;startSize=0;swimlaneHead=0;swimlaneBody=0;top=0;left=0;bottom=0;right=0;dropTarget=0;collapsible=0;recursiveResize=0;expand=0;fontStyle=0;fillColor=none;strokeColor=#001DBC;fontColor=#ffffff;" parent="IbKQ7ag2hueVyIo12gT1-41" vertex="1">
          <mxGeometry y="144" width="95.93" height="20" as="geometry" />
        </mxCell>
        <mxCell id="IbKQ7ag2hueVyIo12gT1-57" value="App 2 Block 2" style="connectable=0;recursiveResize=0;strokeColor=#001DBC;fillColor=#0050ef;align=center;whiteSpace=wrap;html=1;fontColor=#ffffff;fontSize=10;" parent="IbKQ7ag2hueVyIo12gT1-56" vertex="1">
          <mxGeometry width="96" height="20" as="geometry">
            <mxRectangle width="96" height="20" as="alternateBounds" />
          </mxGeometry>
        </mxCell>
        <mxCell id="IbKQ7ag2hueVyIo12gT1-58" value="物理内存" style="text;html=1;align=center;verticalAlign=middle;whiteSpace=wrap;rounded=0;" parent="IbKQ7ag2hueVyIo12gT1-40" vertex="1">
          <mxGeometry width="95.93" height="20.555555555555557" as="geometry" />
        </mxCell>
        <mxCell id="IbKQ7ag2hueVyIo12gT1-118" style="edgeStyle=orthogonalEdgeStyle;rounded=0;orthogonalLoop=1;jettySize=auto;html=1;entryX=0;entryY=0.5;entryDx=0;entryDy=0;" parent="1" source="IbKQ7ag2hueVyIo12gT1-63" target="IbKQ7ag2hueVyIo12gT1-74" edge="1">
          <mxGeometry relative="1" as="geometry" />
        </mxCell>
        <mxCell id="IbKQ7ag2hueVyIo12gT1-119" style="edgeStyle=orthogonalEdgeStyle;rounded=0;orthogonalLoop=1;jettySize=auto;html=1;entryX=0;entryY=0.5;entryDx=0;entryDy=0;" parent="1" source="IbKQ7ag2hueVyIo12gT1-63" target="IbKQ7ag2hueVyIo12gT1-76" edge="1">
          <mxGeometry relative="1" as="geometry" />
        </mxCell>
        <mxCell id="IbKQ7ag2hueVyIo12gT1-120" style="edgeStyle=orthogonalEdgeStyle;rounded=0;orthogonalLoop=1;jettySize=auto;html=1;entryX=0;entryY=0.5;entryDx=0;entryDy=0;" parent="1" source="IbKQ7ag2hueVyIo12gT1-63" target="IbKQ7ag2hueVyIo12gT1-78" edge="1">
          <mxGeometry relative="1" as="geometry" />
        </mxCell>
        <mxCell id="IbKQ7ag2hueVyIo12gT1-121" style="edgeStyle=orthogonalEdgeStyle;rounded=0;orthogonalLoop=1;jettySize=auto;html=1;" parent="1" source="IbKQ7ag2hueVyIo12gT1-63" target="IbKQ7ag2hueVyIo12gT1-80" edge="1">
          <mxGeometry relative="1" as="geometry" />
        </mxCell>
        <mxCell id="IbKQ7ag2hueVyIo12gT1-63" value="Application 1（4MB）" style="image;html=1;image=img/lib/clip_art/computers/Software_128x128.png;imageBackground=none;" parent="1" vertex="1">
          <mxGeometry x="60" y="572.33" width="80" height="80" as="geometry" />
        </mxCell>
        <mxCell id="IbKQ7ag2hueVyIo12gT1-122" style="edgeStyle=orthogonalEdgeStyle;rounded=0;orthogonalLoop=1;jettySize=auto;html=1;" parent="1" source="IbKQ7ag2hueVyIo12gT1-66" target="IbKQ7ag2hueVyIo12gT1-94" edge="1">
          <mxGeometry relative="1" as="geometry" />
        </mxCell>
        <mxCell id="IbKQ7ag2hueVyIo12gT1-123" style="edgeStyle=orthogonalEdgeStyle;rounded=0;orthogonalLoop=1;jettySize=auto;html=1;entryX=0;entryY=0.5;entryDx=0;entryDy=0;" parent="1" source="IbKQ7ag2hueVyIo12gT1-66" target="IbKQ7ag2hueVyIo12gT1-96" edge="1">
          <mxGeometry relative="1" as="geometry" />
        </mxCell>
        <mxCell id="IbKQ7ag2hueVyIo12gT1-66" value="Application 2（2MB）" style="image;html=1;image=img/lib/clip_art/computers/Software_128x128.png" parent="1" vertex="1">
          <mxGeometry x="60" y="725.33" width="80" height="80" as="geometry" />
        </mxCell>
        <mxCell id="IbKQ7ag2hueVyIo12gT1-71" value="&lt;b&gt;&lt;u&gt;虚拟内存&lt;/u&gt;&lt;/b&gt;：每个应用都认为自己拥有&lt;b style=&quot;&quot;&gt;&lt;u&gt;8MB&lt;/u&gt;&lt;/b&gt;的内存空间" style="shape=note;whiteSpace=wrap;html=1;backgroundOutline=1;darkOpacity=0.05;size=14;fillColor=#e3c800;fontColor=#000000;strokeColor=#B09500;" parent="1" vertex="1">
          <mxGeometry x="239" y="470" width="391" height="50" as="geometry" />
        </mxCell>
        <mxCell id="IbKQ7ag2hueVyIo12gT1-73" value="" style="childLayout=tableLayout;recursiveResize=0;shadow=0;fillColor=#60a917;fontColor=#ffffff;strokeColor=#2D7600;strokeWidth=2;" parent="1" vertex="1">
          <mxGeometry x="239" y="548.3333333333334" width="90" height="146.6666666666667" as="geometry" />
        </mxCell>
        <mxCell id="IbKQ7ag2hueVyIo12gT1-74" value="" style="shape=tableRow;horizontal=0;startSize=0;swimlaneHead=0;swimlaneBody=0;top=0;left=0;bottom=0;right=0;dropTarget=0;collapsible=0;recursiveResize=0;expand=0;fontStyle=0;fillColor=none;strokeColor=#001DBC;fontColor=#ffffff;" parent="IbKQ7ag2hueVyIo12gT1-73" vertex="1">
          <mxGeometry width="90" height="18" as="geometry" />
        </mxCell>
        <mxCell id="IbKQ7ag2hueVyIo12gT1-75" value="&lt;div style=&quot;font-size: 10px;&quot;&gt;Used&lt;/div&gt;" style="connectable=0;recursiveResize=0;strokeColor=#2D7600;fillColor=#60a917;align=center;whiteSpace=wrap;html=1;fontColor=#ffffff;fontSize=10;" parent="IbKQ7ag2hueVyIo12gT1-74" vertex="1">
          <mxGeometry width="90" height="18" as="geometry">
            <mxRectangle width="90" height="18" as="alternateBounds" />
          </mxGeometry>
        </mxCell>
        <mxCell id="IbKQ7ag2hueVyIo12gT1-76" style="shape=tableRow;horizontal=0;startSize=0;swimlaneHead=0;swimlaneBody=0;top=0;left=0;bottom=0;right=0;dropTarget=0;collapsible=0;recursiveResize=0;expand=0;fontStyle=0;fillColor=none;strokeColor=#001DBC;fontColor=#ffffff;" parent="IbKQ7ag2hueVyIo12gT1-73" vertex="1">
          <mxGeometry y="18" width="90" height="18" as="geometry" />
        </mxCell>
        <mxCell id="IbKQ7ag2hueVyIo12gT1-77" value="Used" style="connectable=0;recursiveResize=0;strokeColor=#2D7600;fillColor=#60a917;align=center;whiteSpace=wrap;html=1;fontColor=#ffffff;fontSize=10;" parent="IbKQ7ag2hueVyIo12gT1-76" vertex="1">
          <mxGeometry width="90" height="18" as="geometry">
            <mxRectangle width="90" height="18" as="alternateBounds" />
          </mxGeometry>
        </mxCell>
        <mxCell id="IbKQ7ag2hueVyIo12gT1-78" style="shape=tableRow;horizontal=0;startSize=0;swimlaneHead=0;swimlaneBody=0;top=0;left=0;bottom=0;right=0;dropTarget=0;collapsible=0;recursiveResize=0;expand=0;fontStyle=0;fillColor=none;strokeColor=#001DBC;fontColor=#ffffff;" parent="IbKQ7ag2hueVyIo12gT1-73" vertex="1">
          <mxGeometry y="36" width="90" height="19" as="geometry" />
        </mxCell>
        <mxCell id="IbKQ7ag2hueVyIo12gT1-79" value="Used" style="connectable=0;recursiveResize=0;strokeColor=#2D7600;fillColor=#60a917;align=center;whiteSpace=wrap;html=1;fontColor=#ffffff;fontSize=10;" parent="IbKQ7ag2hueVyIo12gT1-78" vertex="1">
          <mxGeometry width="90" height="19" as="geometry">
            <mxRectangle width="90" height="19" as="alternateBounds" />
          </mxGeometry>
        </mxCell>
        <mxCell id="IbKQ7ag2hueVyIo12gT1-80" style="shape=tableRow;horizontal=0;startSize=0;swimlaneHead=0;swimlaneBody=0;top=0;left=0;bottom=0;right=0;dropTarget=0;collapsible=0;recursiveResize=0;expand=0;fontStyle=0;fillColor=none;strokeColor=#001DBC;fontColor=#ffffff;" parent="IbKQ7ag2hueVyIo12gT1-73" vertex="1">
          <mxGeometry y="55" width="90" height="18" as="geometry" />
        </mxCell>
        <mxCell id="IbKQ7ag2hueVyIo12gT1-81" value="Used" style="connectable=0;recursiveResize=0;strokeColor=#2D7600;fillColor=#60a917;align=center;whiteSpace=wrap;html=1;fontColor=#ffffff;fontSize=10;" parent="IbKQ7ag2hueVyIo12gT1-80" vertex="1">
          <mxGeometry width="90" height="18" as="geometry">
            <mxRectangle width="90" height="18" as="alternateBounds" />
          </mxGeometry>
        </mxCell>
        <mxCell id="IbKQ7ag2hueVyIo12gT1-82" style="shape=tableRow;horizontal=0;startSize=0;swimlaneHead=0;swimlaneBody=0;top=0;left=0;bottom=0;right=0;dropTarget=0;collapsible=0;recursiveResize=0;expand=0;fontStyle=0;fillColor=none;strokeColor=#001DBC;fontColor=#ffffff;" parent="IbKQ7ag2hueVyIo12gT1-73" vertex="1">
          <mxGeometry y="73" width="90" height="19" as="geometry" />
        </mxCell>
        <mxCell id="IbKQ7ag2hueVyIo12gT1-83" style="connectable=0;recursiveResize=0;strokeColor=#2D7600;fillColor=#60a917;align=center;whiteSpace=wrap;html=1;fontColor=#ffffff;" parent="IbKQ7ag2hueVyIo12gT1-82" vertex="1">
          <mxGeometry width="90" height="19" as="geometry">
            <mxRectangle width="90" height="19" as="alternateBounds" />
          </mxGeometry>
        </mxCell>
        <mxCell id="IbKQ7ag2hueVyIo12gT1-84" style="shape=tableRow;horizontal=0;startSize=0;swimlaneHead=0;swimlaneBody=0;top=0;left=0;bottom=0;right=0;dropTarget=0;collapsible=0;recursiveResize=0;expand=0;fontStyle=0;fillColor=none;strokeColor=#001DBC;fontColor=#ffffff;" parent="IbKQ7ag2hueVyIo12gT1-73" vertex="1">
          <mxGeometry y="92" width="90" height="18" as="geometry" />
        </mxCell>
        <mxCell id="IbKQ7ag2hueVyIo12gT1-85" style="connectable=0;recursiveResize=0;strokeColor=#2D7600;fillColor=#60a917;align=center;whiteSpace=wrap;html=1;fontColor=#ffffff;" parent="IbKQ7ag2hueVyIo12gT1-84" vertex="1">
          <mxGeometry width="90" height="18" as="geometry">
            <mxRectangle width="90" height="18" as="alternateBounds" />
          </mxGeometry>
        </mxCell>
        <mxCell id="IbKQ7ag2hueVyIo12gT1-86" style="shape=tableRow;horizontal=0;startSize=0;swimlaneHead=0;swimlaneBody=0;top=0;left=0;bottom=0;right=0;dropTarget=0;collapsible=0;recursiveResize=0;expand=0;fontStyle=0;fillColor=none;strokeColor=#001DBC;fontColor=#ffffff;" parent="IbKQ7ag2hueVyIo12gT1-73" vertex="1">
          <mxGeometry y="110" width="90" height="18" as="geometry" />
        </mxCell>
        <mxCell id="IbKQ7ag2hueVyIo12gT1-87" value="" style="connectable=0;recursiveResize=0;strokeColor=#2D7600;fillColor=#60a917;align=center;whiteSpace=wrap;html=1;fontColor=#ffffff;" parent="IbKQ7ag2hueVyIo12gT1-86" vertex="1">
          <mxGeometry width="90" height="18" as="geometry">
            <mxRectangle width="90" height="18" as="alternateBounds" />
          </mxGeometry>
        </mxCell>
        <mxCell id="IbKQ7ag2hueVyIo12gT1-88" style="shape=tableRow;horizontal=0;startSize=0;swimlaneHead=0;swimlaneBody=0;top=0;left=0;bottom=0;right=0;dropTarget=0;collapsible=0;recursiveResize=0;expand=0;fontStyle=0;fillColor=none;strokeColor=#001DBC;fontColor=#ffffff;" parent="IbKQ7ag2hueVyIo12gT1-73" vertex="1">
          <mxGeometry y="128" width="90" height="19" as="geometry" />
        </mxCell>
        <mxCell id="IbKQ7ag2hueVyIo12gT1-89" value="" style="connectable=0;recursiveResize=0;strokeColor=#2D7600;fillColor=#60a917;align=center;whiteSpace=wrap;html=1;fontColor=#ffffff;" parent="IbKQ7ag2hueVyIo12gT1-88" vertex="1">
          <mxGeometry width="90" height="19" as="geometry">
            <mxRectangle width="90" height="19" as="alternateBounds" />
          </mxGeometry>
        </mxCell>
        <mxCell id="IbKQ7ag2hueVyIo12gT1-90" value="虚拟内存" style="text;html=1;align=center;verticalAlign=middle;whiteSpace=wrap;rounded=0;" parent="1" vertex="1">
          <mxGeometry x="239" y="530" width="90" height="18.33333333333334" as="geometry" />
        </mxCell>
        <mxCell id="IbKQ7ag2hueVyIo12gT1-93" value="" style="childLayout=tableLayout;recursiveResize=0;shadow=0;fillColor=#1ba1e2;fontColor=#ffffff;strokeColor=#006EAF;strokeWidth=2;" parent="1" vertex="1">
          <mxGeometry x="239" y="738.3333333333334" width="90" height="146.6666666666667" as="geometry" />
        </mxCell>
        <mxCell id="IbKQ7ag2hueVyIo12gT1-94" value="" style="shape=tableRow;horizontal=0;startSize=0;swimlaneHead=0;swimlaneBody=0;top=0;left=0;bottom=0;right=0;dropTarget=0;collapsible=0;recursiveResize=0;expand=0;fontStyle=0;fillColor=none;strokeColor=#001DBC;fontColor=#ffffff;" parent="IbKQ7ag2hueVyIo12gT1-93" vertex="1">
          <mxGeometry width="90" height="18" as="geometry" />
        </mxCell>
        <mxCell id="IbKQ7ag2hueVyIo12gT1-95" value="&lt;div style=&quot;font-size: 10px;&quot;&gt;Used&lt;br style=&quot;font-size: 10px;&quot;&gt;&lt;/div&gt;" style="connectable=0;recursiveResize=0;strokeColor=#001DBC;fillColor=#0050ef;align=center;whiteSpace=wrap;html=1;fontColor=#ffffff;fontSize=10;" parent="IbKQ7ag2hueVyIo12gT1-94" vertex="1">
          <mxGeometry width="90" height="18" as="geometry">
            <mxRectangle width="90" height="18" as="alternateBounds" />
          </mxGeometry>
        </mxCell>
        <mxCell id="IbKQ7ag2hueVyIo12gT1-96" style="shape=tableRow;horizontal=0;startSize=0;swimlaneHead=0;swimlaneBody=0;top=0;left=0;bottom=0;right=0;dropTarget=0;collapsible=0;recursiveResize=0;expand=0;fontStyle=0;fillColor=none;strokeColor=#001DBC;fontColor=#ffffff;" parent="IbKQ7ag2hueVyIo12gT1-93" vertex="1">
          <mxGeometry y="18" width="90" height="18" as="geometry" />
        </mxCell>
        <mxCell id="IbKQ7ag2hueVyIo12gT1-97" value="Used" style="connectable=0;recursiveResize=0;strokeColor=#001DBC;fillColor=#0050ef;align=center;whiteSpace=wrap;html=1;fontColor=#ffffff;fontSize=10;" parent="IbKQ7ag2hueVyIo12gT1-96" vertex="1">
          <mxGeometry width="90" height="18" as="geometry">
            <mxRectangle width="90" height="18" as="alternateBounds" />
          </mxGeometry>
        </mxCell>
        <mxCell id="IbKQ7ag2hueVyIo12gT1-98" style="shape=tableRow;horizontal=0;startSize=0;swimlaneHead=0;swimlaneBody=0;top=0;left=0;bottom=0;right=0;dropTarget=0;collapsible=0;recursiveResize=0;expand=0;fontStyle=0;fillColor=none;strokeColor=#001DBC;fontColor=#ffffff;" parent="IbKQ7ag2hueVyIo12gT1-93" vertex="1">
          <mxGeometry y="36" width="90" height="19" as="geometry" />
        </mxCell>
        <mxCell id="IbKQ7ag2hueVyIo12gT1-99" value="" style="connectable=0;recursiveResize=0;strokeColor=#001DBC;fillColor=#0050ef;align=center;whiteSpace=wrap;html=1;fontColor=#ffffff;" parent="IbKQ7ag2hueVyIo12gT1-98" vertex="1">
          <mxGeometry width="90" height="19" as="geometry">
            <mxRectangle width="90" height="19" as="alternateBounds" />
          </mxGeometry>
        </mxCell>
        <mxCell id="IbKQ7ag2hueVyIo12gT1-100" style="shape=tableRow;horizontal=0;startSize=0;swimlaneHead=0;swimlaneBody=0;top=0;left=0;bottom=0;right=0;dropTarget=0;collapsible=0;recursiveResize=0;expand=0;fontStyle=0;fillColor=none;strokeColor=#001DBC;fontColor=#ffffff;" parent="IbKQ7ag2hueVyIo12gT1-93" vertex="1">
          <mxGeometry y="55" width="90" height="18" as="geometry" />
        </mxCell>
        <mxCell id="IbKQ7ag2hueVyIo12gT1-101" value="" style="connectable=0;recursiveResize=0;strokeColor=#001DBC;fillColor=#0050ef;align=center;whiteSpace=wrap;html=1;fontColor=#ffffff;" parent="IbKQ7ag2hueVyIo12gT1-100" vertex="1">
          <mxGeometry width="90" height="18" as="geometry">
            <mxRectangle width="90" height="18" as="alternateBounds" />
          </mxGeometry>
        </mxCell>
        <mxCell id="IbKQ7ag2hueVyIo12gT1-102" style="shape=tableRow;horizontal=0;startSize=0;swimlaneHead=0;swimlaneBody=0;top=0;left=0;bottom=0;right=0;dropTarget=0;collapsible=0;recursiveResize=0;expand=0;fontStyle=0;fillColor=none;strokeColor=#001DBC;fontColor=#ffffff;" parent="IbKQ7ag2hueVyIo12gT1-93" vertex="1">
          <mxGeometry y="73" width="90" height="19" as="geometry" />
        </mxCell>
        <mxCell id="IbKQ7ag2hueVyIo12gT1-103" style="connectable=0;recursiveResize=0;strokeColor=#001DBC;fillColor=#0050ef;align=center;whiteSpace=wrap;html=1;fontColor=#ffffff;" parent="IbKQ7ag2hueVyIo12gT1-102" vertex="1">
          <mxGeometry width="90" height="19" as="geometry">
            <mxRectangle width="90" height="19" as="alternateBounds" />
          </mxGeometry>
        </mxCell>
        <mxCell id="IbKQ7ag2hueVyIo12gT1-104" style="shape=tableRow;horizontal=0;startSize=0;swimlaneHead=0;swimlaneBody=0;top=0;left=0;bottom=0;right=0;dropTarget=0;collapsible=0;recursiveResize=0;expand=0;fontStyle=0;fillColor=none;strokeColor=#001DBC;fontColor=#ffffff;" parent="IbKQ7ag2hueVyIo12gT1-93" vertex="1">
          <mxGeometry y="92" width="90" height="18" as="geometry" />
        </mxCell>
        <mxCell id="IbKQ7ag2hueVyIo12gT1-105" style="connectable=0;recursiveResize=0;strokeColor=#001DBC;fillColor=#0050ef;align=center;whiteSpace=wrap;html=1;fontColor=#ffffff;" parent="IbKQ7ag2hueVyIo12gT1-104" vertex="1">
          <mxGeometry width="90" height="18" as="geometry">
            <mxRectangle width="90" height="18" as="alternateBounds" />
          </mxGeometry>
        </mxCell>
        <mxCell id="IbKQ7ag2hueVyIo12gT1-106" style="shape=tableRow;horizontal=0;startSize=0;swimlaneHead=0;swimlaneBody=0;top=0;left=0;bottom=0;right=0;dropTarget=0;collapsible=0;recursiveResize=0;expand=0;fontStyle=0;fillColor=none;strokeColor=#001DBC;fontColor=#ffffff;" parent="IbKQ7ag2hueVyIo12gT1-93" vertex="1">
          <mxGeometry y="110" width="90" height="18" as="geometry" />
        </mxCell>
        <mxCell id="IbKQ7ag2hueVyIo12gT1-107" value="" style="connectable=0;recursiveResize=0;strokeColor=#001DBC;fillColor=#0050ef;align=center;whiteSpace=wrap;html=1;fontColor=#ffffff;" parent="IbKQ7ag2hueVyIo12gT1-106" vertex="1">
          <mxGeometry width="90" height="18" as="geometry">
            <mxRectangle width="90" height="18" as="alternateBounds" />
          </mxGeometry>
        </mxCell>
        <mxCell id="IbKQ7ag2hueVyIo12gT1-108" style="shape=tableRow;horizontal=0;startSize=0;swimlaneHead=0;swimlaneBody=0;top=0;left=0;bottom=0;right=0;dropTarget=0;collapsible=0;recursiveResize=0;expand=0;fontStyle=0;fillColor=none;strokeColor=#001DBC;fontColor=#ffffff;" parent="IbKQ7ag2hueVyIo12gT1-93" vertex="1">
          <mxGeometry y="128" width="90" height="19" as="geometry" />
        </mxCell>
        <mxCell id="IbKQ7ag2hueVyIo12gT1-109" value="" style="connectable=0;recursiveResize=0;strokeColor=#001DBC;fillColor=#0050ef;align=center;whiteSpace=wrap;html=1;fontColor=#ffffff;" parent="IbKQ7ag2hueVyIo12gT1-108" vertex="1">
          <mxGeometry width="90" height="19" as="geometry">
            <mxRectangle width="90" height="19" as="alternateBounds" />
          </mxGeometry>
        </mxCell>
        <mxCell id="IbKQ7ag2hueVyIo12gT1-110" value="虚拟内存" style="text;html=1;align=center;verticalAlign=middle;whiteSpace=wrap;rounded=0;" parent="1" vertex="1">
          <mxGeometry x="239" y="720" width="90" height="18.33333333333334" as="geometry" />
        </mxCell>
        <mxCell id="IbKQ7ag2hueVyIo12gT1-111" value="" style="shape=flexArrow;endArrow=classic;html=1;rounded=0;fillColor=#60a917;strokeColor=#2D7600;" parent="1" edge="1">
          <mxGeometry width="50" height="50" relative="1" as="geometry">
            <mxPoint x="430" y="610" as="sourcePoint" />
            <mxPoint x="400" y="610" as="targetPoint" />
          </mxGeometry>
        </mxCell>
        <mxCell id="IbKQ7ag2hueVyIo12gT1-112" value="" style="shape=flexArrow;endArrow=classic;html=1;rounded=0;fillColor=#0050ef;strokeColor=#001DBC;" parent="1" edge="1">
          <mxGeometry width="50" height="50" relative="1" as="geometry">
            <mxPoint x="440" y="780" as="sourcePoint" />
            <mxPoint x="400" y="800" as="targetPoint" />
          </mxGeometry>
        </mxCell>
        <mxCell id="IbKQ7ag2hueVyIo12gT1-113" value="&lt;b&gt;&lt;font style=&quot;font-size: 16px;&quot;&gt;MMU&lt;/font&gt;&lt;/b&gt;" style="image;html=1;image=img/lib/clip_art/computers/Virtual_Application_128x128.png" parent="1" vertex="1">
          <mxGeometry x="500" y="650" width="80" height="80" as="geometry" />
        </mxCell>
        <mxCell id="IbKQ7ag2hueVyIo12gT1-116" value="" style="shape=curlyBracket;whiteSpace=wrap;html=1;rounded=1;flipH=1;labelPosition=right;verticalLabelPosition=middle;align=left;verticalAlign=middle;" parent="1" vertex="1">
          <mxGeometry x="715.93" y="632" width="20" height="160" as="geometry" />
        </mxCell>
        <mxCell id="IbKQ7ag2hueVyIo12gT1-117" value="8MB" style="text;html=1;align=center;verticalAlign=middle;resizable=0;points=[];autosize=1;strokeColor=none;fillColor=none;fontSize=16;" parent="1" vertex="1">
          <mxGeometry x="730.93" y="697" width="60" height="30" as="geometry" />
        </mxCell>
        <mxCell id="IbKQ7ag2hueVyIo12gT1-124" value="&lt;font style=&quot;font-size: 11px;&quot; color=&quot;#000000&quot;&gt;&lt;b style=&quot;&quot;&gt;实际上并没有16MB的空间，&lt;/b&gt;&lt;/font&gt;&lt;div style=&quot;font-size: 11px;&quot;&gt;&lt;font style=&quot;font-size: 11px;&quot; color=&quot;#000000&quot;&gt;&lt;b style=&quot;&quot;&gt;该怎么转换？&lt;/b&gt;&lt;/font&gt;&lt;/div&gt;" style="whiteSpace=wrap;html=1;shape=mxgraph.basic.oval_callout;fillColor=#f9f7ed;strokeColor=#36393d;" parent="1" vertex="1">
          <mxGeometry x="500" y="540" width="180" height="60" as="geometry" />
        </mxCell>
      </root>
    </mxGraphModel>
  </diagram>
  <diagram id="g8Mtabn8RW4cMnYj2DPA" name="内存分页">
    <mxGraphModel dx="1434" dy="836" grid="1" gridSize="10" guides="1" tooltips="1" connect="1" arrows="1" fold="1" page="1" pageScale="1" pageWidth="827" pageHeight="1169" math="0" shadow="0">
      <root>
        <mxCell id="0" />
        <mxCell id="1" parent="0" />
        <mxCell id="wJXAteI3264ifi4JOvTz-77" value="Pages&lt;div&gt;(&lt;span style=&quot;background-color: initial;&quot;&gt;R/W&lt;/span&gt;&lt;span style=&quot;background-color: initial;&quot;&gt;)&lt;/span&gt;&lt;/div&gt;" style="text;html=1;align=center;verticalAlign=middle;whiteSpace=wrap;rounded=0;fillColor=#d80073;strokeColor=#A50040;fontColor=#ffffff;strokeWidth=2;fontFamily=Courier New;" parent="1" vertex="1">
          <mxGeometry x="520" y="850" width="219" height="30" as="geometry" />
        </mxCell>
        <mxCell id="wJXAteI3264ifi4JOvTz-5" style="edgeStyle=orthogonalEdgeStyle;rounded=0;orthogonalLoop=1;jettySize=auto;html=1;entryX=1;entryY=0.5;entryDx=0;entryDy=0;fillColor=#60a917;strokeColor=#2D7600;strokeWidth=2;" parent="1" source="wJXAteI3264ifi4JOvTz-1" target="wJXAteI3264ifi4JOvTz-3" edge="1">
          <mxGeometry relative="1" as="geometry" />
        </mxCell>
        <mxCell id="wJXAteI3264ifi4JOvTz-1" value="BOOT.BIN" style="rounded=1;whiteSpace=wrap;html=1;fillColor=#60a917;fontColor=#ffffff;strokeColor=#2D7600;fontSize=13;" parent="1" vertex="1">
          <mxGeometry x="600" y="160" width="120" height="40" as="geometry" />
        </mxCell>
        <mxCell id="wJXAteI3264ifi4JOvTz-4" style="edgeStyle=orthogonalEdgeStyle;rounded=0;orthogonalLoop=1;jettySize=auto;html=1;entryX=0.5;entryY=0;entryDx=0;entryDy=0;" parent="1" source="wJXAteI3264ifi4JOvTz-2" target="wJXAteI3264ifi4JOvTz-3" edge="1">
          <mxGeometry relative="1" as="geometry" />
        </mxCell>
        <mxCell id="wJXAteI3264ifi4JOvTz-2" value="开机启动" style="rounded=0;whiteSpace=wrap;html=1;fillColor=#4D4D4D;" parent="1" vertex="1">
          <mxGeometry x="440" y="40" width="80" height="40" as="geometry" />
        </mxCell>
        <mxCell id="wJXAteI3264ifi4JOvTz-16" style="edgeStyle=orthogonalEdgeStyle;rounded=0;orthogonalLoop=1;jettySize=auto;html=1;entryX=1;entryY=0.5;entryDx=0;entryDy=0;dashed=1;fillColor=#60a917;strokeColor=#2D7600;" parent="1" source="wJXAteI3264ifi4JOvTz-3" target="wJXAteI3264ifi4JOvTz-8" edge="1">
          <mxGeometry relative="1" as="geometry" />
        </mxCell>
        <mxCell id="wJXAteI3264ifi4JOvTz-21" style="edgeStyle=orthogonalEdgeStyle;rounded=0;orthogonalLoop=1;jettySize=auto;html=1;entryX=0.5;entryY=0;entryDx=0;entryDy=0;" parent="1" source="wJXAteI3264ifi4JOvTz-3" target="wJXAteI3264ifi4JOvTz-18" edge="1">
          <mxGeometry relative="1" as="geometry" />
        </mxCell>
        <mxCell id="wJXAteI3264ifi4JOvTz-34" value="加载Loader" style="edgeLabel;html=1;align=center;verticalAlign=middle;resizable=0;points=[];" parent="wJXAteI3264ifi4JOvTz-21" vertex="1" connectable="0">
          <mxGeometry x="-0.1611" y="1" relative="1" as="geometry">
            <mxPoint as="offset" />
          </mxGeometry>
        </mxCell>
        <mxCell id="wJXAteI3264ifi4JOvTz-3" value="加载MBR" style="rounded=0;whiteSpace=wrap;html=1;fillColor=#4D4D4D;" parent="1" vertex="1">
          <mxGeometry x="440" y="160" width="80" height="40" as="geometry" />
        </mxCell>
        <mxCell id="wJXAteI3264ifi4JOvTz-6" value="&lt;span style=&quot;color: rgb(214, 214, 221); font-family: -apple-system, BlinkMacSystemFont, &amp;quot;Segoe WPC&amp;quot;, &amp;quot;Segoe UI&amp;quot;, system-ui, Ubuntu, &amp;quot;Droid Sans&amp;quot;, sans-serif; font-size: 14px;&quot;&gt;BIOS数据区 / 中断向量表&lt;/span&gt;" style="rounded=0;whiteSpace=wrap;html=1;fillColor=#a20025;fontColor=#ffffff;strokeColor=#6F0000;" parent="1" vertex="1">
          <mxGeometry x="120" y="120" width="200" height="40" as="geometry" />
        </mxCell>
        <mxCell id="wJXAteI3264ifi4JOvTz-7" value="0x00007C00" style="text;html=1;align=center;verticalAlign=middle;whiteSpace=wrap;rounded=0;" parent="1" vertex="1">
          <mxGeometry x="40" y="150" width="80" height="20" as="geometry" />
        </mxCell>
        <mxCell id="wJXAteI3264ifi4JOvTz-8" value="&lt;font face=&quot;-apple-system, BlinkMacSystemFont, Segoe WPC, Segoe UI, system-ui, Ubuntu, Droid Sans, sans-serif&quot; color=&quot;#d6d6dd&quot;&gt;&lt;span style=&quot;font-size: 14px;&quot;&gt;MBR&lt;/span&gt;&lt;/font&gt;" style="rounded=0;whiteSpace=wrap;html=1;fillColor=#60a917;fontColor=#ffffff;strokeColor=#2D7600;" parent="1" vertex="1">
          <mxGeometry x="120" y="160" width="200" height="40" as="geometry" />
        </mxCell>
        <mxCell id="wJXAteI3264ifi4JOvTz-9" value="0x00007E00" style="text;html=1;align=center;verticalAlign=middle;whiteSpace=wrap;rounded=0;" parent="1" vertex="1">
          <mxGeometry x="40" y="190" width="80" height="20" as="geometry" />
        </mxCell>
        <mxCell id="wJXAteI3264ifi4JOvTz-10" value="&lt;font face=&quot;-apple-system, BlinkMacSystemFont, Segoe WPC, Segoe UI, system-ui, Ubuntu, Droid Sans, sans-serif&quot; color=&quot;#d6d6dd&quot;&gt;&lt;span style=&quot;font-size: 14px;&quot;&gt;......&lt;/span&gt;&lt;/font&gt;" style="rounded=0;whiteSpace=wrap;html=1;" parent="1" vertex="1">
          <mxGeometry x="120" y="200" width="200" height="40" as="geometry" />
        </mxCell>
        <mxCell id="wJXAteI3264ifi4JOvTz-11" value="0x00008000" style="text;html=1;align=center;verticalAlign=middle;whiteSpace=wrap;rounded=0;" parent="1" vertex="1">
          <mxGeometry x="40" y="230" width="80" height="20" as="geometry" />
        </mxCell>
        <mxCell id="wJXAteI3264ifi4JOvTz-12" value="&lt;font face=&quot;-apple-system, BlinkMacSystemFont, Segoe WPC, Segoe UI, system-ui, Ubuntu, Droid Sans, sans-serif&quot; color=&quot;#d6d6dd&quot;&gt;&lt;span style=&quot;font-size: 14px;&quot;&gt;Loader (Kernelx16)&lt;/span&gt;&lt;/font&gt;" style="rounded=0;whiteSpace=wrap;html=1;fillColor=#008a00;fontColor=#ffffff;strokeColor=#005700;" parent="1" vertex="1">
          <mxGeometry x="120" y="240" width="200" height="40" as="geometry" />
        </mxCell>
        <mxCell id="wJXAteI3264ifi4JOvTz-13" value="0x00000000" style="text;html=1;align=center;verticalAlign=middle;whiteSpace=wrap;rounded=0;" parent="1" vertex="1">
          <mxGeometry x="40" y="110" width="80" height="20" as="geometry" />
        </mxCell>
        <mxCell id="wJXAteI3264ifi4JOvTz-14" value="0x00010000" style="text;html=1;align=center;verticalAlign=middle;whiteSpace=wrap;rounded=0;" parent="1" vertex="1">
          <mxGeometry x="40" y="270" width="80" height="20" as="geometry" />
        </mxCell>
        <mxCell id="wJXAteI3264ifi4JOvTz-15" value="&lt;span style=&quot;color: rgb(214, 214, 221); font-family: -apple-system, BlinkMacSystemFont, &amp;quot;Segoe WPC&amp;quot;, &amp;quot;Segoe UI&amp;quot;, system-ui, Ubuntu, &amp;quot;Droid Sans&amp;quot;, sans-serif; font-size: 14px;&quot;&gt;显存 / EBDA扩展BIOS数据区&lt;/span&gt;" style="rounded=0;whiteSpace=wrap;html=1;fillColor=#a20025;fontColor=#ffffff;strokeColor=#6F0000;" parent="1" vertex="1">
          <mxGeometry x="120" y="360" width="200" height="40" as="geometry" />
        </mxCell>
        <mxCell id="wJXAteI3264ifi4JOvTz-19" style="edgeStyle=orthogonalEdgeStyle;rounded=0;orthogonalLoop=1;jettySize=auto;html=1;entryX=1;entryY=0.5;entryDx=0;entryDy=0;strokeWidth=2;fillColor=#008a00;strokeColor=#005700;" parent="1" source="wJXAteI3264ifi4JOvTz-17" target="wJXAteI3264ifi4JOvTz-18" edge="1">
          <mxGeometry relative="1" as="geometry" />
        </mxCell>
        <mxCell id="wJXAteI3264ifi4JOvTz-17" value="KERNEL.BIN" style="rounded=1;whiteSpace=wrap;html=1;fillColor=#008a00;fontColor=#ffffff;strokeColor=#005700;fontSize=13;" parent="1" vertex="1">
          <mxGeometry x="600" y="240" width="120" height="40" as="geometry" />
        </mxCell>
        <mxCell id="wJXAteI3264ifi4JOvTz-20" style="edgeStyle=orthogonalEdgeStyle;rounded=0;orthogonalLoop=1;jettySize=auto;html=1;entryX=1;entryY=0.5;entryDx=0;entryDy=0;fillColor=#008a00;strokeColor=#005700;dashed=1;strokeWidth=1;" parent="1" source="wJXAteI3264ifi4JOvTz-18" target="wJXAteI3264ifi4JOvTz-12" edge="1">
          <mxGeometry relative="1" as="geometry" />
        </mxCell>
        <mxCell id="wJXAteI3264ifi4JOvTz-32" style="edgeStyle=orthogonalEdgeStyle;rounded=0;orthogonalLoop=1;jettySize=auto;html=1;entryX=0.5;entryY=0;entryDx=0;entryDy=0;" parent="1" source="wJXAteI3264ifi4JOvTz-18" target="wJXAteI3264ifi4JOvTz-29" edge="1">
          <mxGeometry relative="1" as="geometry" />
        </mxCell>
        <mxCell id="wJXAteI3264ifi4JOvTz-33" value="进入保护模式" style="edgeLabel;html=1;align=center;verticalAlign=middle;resizable=0;points=[];" parent="wJXAteI3264ifi4JOvTz-32" vertex="1" connectable="0">
          <mxGeometry x="-0.2292" y="2" relative="1" as="geometry">
            <mxPoint as="offset" />
          </mxGeometry>
        </mxCell>
        <mxCell id="wJXAteI3264ifi4JOvTz-18" value="读取Loader" style="rounded=0;whiteSpace=wrap;html=1;fillColor=#4D4D4D;" parent="1" vertex="1">
          <mxGeometry x="440" y="240" width="80" height="40" as="geometry" />
        </mxCell>
        <mxCell id="wJXAteI3264ifi4JOvTz-22" value="&lt;font face=&quot;-apple-system, BlinkMacSystemFont, Segoe WPC, Segoe UI, system-ui, Ubuntu, Droid Sans, sans-serif&quot; color=&quot;#d6d6dd&quot;&gt;&lt;span style=&quot;font-size: 14px;&quot;&gt;可用内存区域&lt;/span&gt;&lt;/font&gt;" style="rounded=0;whiteSpace=wrap;html=1;fillColor=#fa6800;fontColor=#000000;strokeColor=#C73500;" parent="1" vertex="1">
          <mxGeometry x="120" y="400" width="200" height="120" as="geometry" />
        </mxCell>
        <mxCell id="wJXAteI3264ifi4JOvTz-23" value="0x00100000" style="text;html=1;align=center;verticalAlign=middle;whiteSpace=wrap;rounded=0;" parent="1" vertex="1">
          <mxGeometry x="40" y="390" width="80" height="20" as="geometry" />
        </mxCell>
        <mxCell id="wJXAteI3264ifi4JOvTz-24" value="0x02000000" style="text;html=1;align=center;verticalAlign=middle;whiteSpace=wrap;rounded=0;" parent="1" vertex="1">
          <mxGeometry x="40" y="510" width="80" height="20" as="geometry" />
        </mxCell>
        <mxCell id="wJXAteI3264ifi4JOvTz-36" style="edgeStyle=orthogonalEdgeStyle;rounded=0;orthogonalLoop=1;jettySize=auto;html=1;entryX=1;entryY=0.75;entryDx=0;entryDy=0;fillColor=#1ba1e2;strokeColor=#006EAF;dashed=1;" parent="1" source="wJXAteI3264ifi4JOvTz-29" target="wJXAteI3264ifi4JOvTz-35" edge="1">
          <mxGeometry relative="1" as="geometry" />
        </mxCell>
        <mxCell id="wJXAteI3264ifi4JOvTz-117" style="edgeStyle=orthogonalEdgeStyle;rounded=0;orthogonalLoop=1;jettySize=auto;html=1;entryX=0.5;entryY=0;entryDx=0;entryDy=0;" parent="1" source="wJXAteI3264ifi4JOvTz-29" target="wJXAteI3264ifi4JOvTz-40" edge="1">
          <mxGeometry relative="1" as="geometry" />
        </mxCell>
        <mxCell id="wJXAteI3264ifi4JOvTz-161" value="简单映射" style="edgeLabel;html=1;align=center;verticalAlign=middle;resizable=0;points=[];" parent="wJXAteI3264ifi4JOvTz-117" vertex="1" connectable="0">
          <mxGeometry x="-0.0599" y="2" relative="1" as="geometry">
            <mxPoint as="offset" />
          </mxGeometry>
        </mxCell>
        <mxCell id="wJXAteI3264ifi4JOvTz-29" value="读取Kernel" style="rounded=0;whiteSpace=wrap;html=1;fillColor=#4D4D4D;" parent="1" vertex="1">
          <mxGeometry x="440" y="320" width="80" height="40" as="geometry" />
        </mxCell>
        <mxCell id="wJXAteI3264ifi4JOvTz-31" style="edgeStyle=orthogonalEdgeStyle;rounded=0;orthogonalLoop=1;jettySize=auto;html=1;entryX=1;entryY=0.5;entryDx=0;entryDy=0;strokeWidth=2;fillColor=#1ba1e2;strokeColor=#006EAF;" parent="1" source="wJXAteI3264ifi4JOvTz-30" target="wJXAteI3264ifi4JOvTz-29" edge="1">
          <mxGeometry relative="1" as="geometry" />
        </mxCell>
        <mxCell id="wJXAteI3264ifi4JOvTz-30" value="KERNEL32.ELF" style="rounded=1;whiteSpace=wrap;html=1;fillColor=#1ba1e2;fontColor=#ffffff;strokeColor=#006EAF;fontSize=13;" parent="1" vertex="1">
          <mxGeometry x="600" y="320" width="120" height="40" as="geometry" />
        </mxCell>
        <mxCell id="wJXAteI3264ifi4JOvTz-35" value="&lt;font face=&quot;-apple-system, BlinkMacSystemFont, Segoe WPC, Segoe UI, system-ui, Ubuntu, Droid Sans, sans-serif&quot; color=&quot;#d6d6dd&quot;&gt;&lt;span style=&quot;font-size: 14px;&quot;&gt;Kernelx86&lt;/span&gt;&lt;/font&gt;" style="rounded=0;whiteSpace=wrap;html=1;fillColor=#1ba1e2;fontColor=#ffffff;strokeColor=#006EAF;" parent="1" vertex="1">
          <mxGeometry x="120" y="280" width="200" height="80" as="geometry" />
        </mxCell>
        <mxCell id="wJXAteI3264ifi4JOvTz-37" value=".text" style="rounded=0;whiteSpace=wrap;html=1;fillColor=#1ba1e2;fontColor=#ffffff;strokeColor=#006EAF;fontFamily=Courier New;fontStyle=1;fontSize=15;align=left;spacingLeft=8;" parent="1" vertex="1">
          <mxGeometry x="99" y="820" width="80" height="30" as="geometry" />
        </mxCell>
        <mxCell id="wJXAteI3264ifi4JOvTz-39" value="0x00080000" style="text;html=1;align=center;verticalAlign=middle;whiteSpace=wrap;rounded=0;" parent="1" vertex="1">
          <mxGeometry x="40" y="350" width="80" height="20" as="geometry" />
        </mxCell>
        <mxCell id="wJXAteI3264ifi4JOvTz-116" value="" style="edgeStyle=orthogonalEdgeStyle;rounded=0;orthogonalLoop=1;jettySize=auto;html=1;" parent="1" source="wJXAteI3264ifi4JOvTz-40" target="wJXAteI3264ifi4JOvTz-42" edge="1">
          <mxGeometry relative="1" as="geometry" />
        </mxCell>
        <mxCell id="wJXAteI3264ifi4JOvTz-159" value="" style="edgeStyle=orthogonalEdgeStyle;rounded=0;orthogonalLoop=1;jettySize=auto;html=1;" parent="1" source="wJXAteI3264ifi4JOvTz-40" target="wJXAteI3264ifi4JOvTz-158" edge="1">
          <mxGeometry relative="1" as="geometry" />
        </mxCell>
        <mxCell id="wJXAteI3264ifi4JOvTz-162" value="重映射" style="edgeLabel;html=1;align=center;verticalAlign=middle;resizable=0;points=[];" parent="wJXAteI3264ifi4JOvTz-159" vertex="1" connectable="0">
          <mxGeometry x="-0.2915" y="-3" relative="1" as="geometry">
            <mxPoint as="offset" />
          </mxGeometry>
        </mxCell>
        <mxCell id="wJXAteI3264ifi4JOvTz-40" value="4MByte分页" style="rounded=0;whiteSpace=wrap;html=1;fillColor=#6a00ff;fontColor=#ffffff;strokeColor=#3700CC;" parent="1" vertex="1">
          <mxGeometry x="440" y="545" width="80" height="40" as="geometry" />
        </mxCell>
        <mxCell id="wJXAteI3264ifi4JOvTz-42" value="0x000000 - 0x3FFFFF → &lt;b&gt;&lt;u&gt;0x000000 - 0x3FFFFF (RW)&lt;/u&gt;&lt;/b&gt;" style="rounded=0;whiteSpace=wrap;html=1;fontFamily=Courier New;fillColor=#d80073;fontColor=#ffffff;strokeColor=#A50040;" parent="1" vertex="1">
          <mxGeometry x="40" y="550" width="360" height="30" as="geometry" />
        </mxCell>
        <mxCell id="wJXAteI3264ifi4JOvTz-51" value=".rodata" style="rounded=0;whiteSpace=wrap;html=1;fillColor=#126D99;fontColor=#ffffff;strokeColor=#004D7A;fontFamily=Courier New;fontStyle=1;fontSize=15;" parent="1" vertex="1">
          <mxGeometry x="179" y="820" width="80" height="30" as="geometry" />
        </mxCell>
        <mxCell id="wJXAteI3264ifi4JOvTz-52" value=".data" style="rounded=0;whiteSpace=wrap;html=1;fillColor=#1ba1e2;fontColor=#ffffff;strokeColor=#006EAF;fontFamily=Courier New;fontStyle=1;fontSize=15;" parent="1" vertex="1">
          <mxGeometry x="259" y="820" width="80" height="30" as="geometry" />
        </mxCell>
        <mxCell id="wJXAteI3264ifi4JOvTz-53" value=".bss" style="rounded=0;whiteSpace=wrap;html=1;fillColor=#126D99;fontColor=#ffffff;strokeColor=#004D7A;fontFamily=Courier New;fontStyle=1;align=left;verticalAlign=middle;fontSize=15;spacingLeft=8;" parent="1" vertex="1">
          <mxGeometry x="339" y="820" width="91" height="30" as="geometry" />
        </mxCell>
        <mxCell id="wJXAteI3264ifi4JOvTz-54" value="" style="group" parent="1" vertex="1" connectable="0">
          <mxGeometry x="314" y="730" width="210" height="30" as="geometry" />
        </mxCell>
        <mxCell id="wJXAteI3264ifi4JOvTz-49" value="" style="shape=flexArrow;endArrow=classic;html=1;rounded=0;width=4.390243902439025;endSize=1.9512195121951221;endWidth=2.831647828673409;fillColor=#1ba1e2;strokeColor=#006EAF;" parent="wJXAteI3264ifi4JOvTz-54" edge="1">
          <mxGeometry width="50" height="50" relative="1" as="geometry">
            <mxPoint y="30" as="sourcePoint" />
            <mxPoint x="210" y="30" as="targetPoint" />
          </mxGeometry>
        </mxCell>
        <mxCell id="wJXAteI3264ifi4JOvTz-50" value="地址从低到高" style="text;html=1;align=center;verticalAlign=middle;whiteSpace=wrap;rounded=0;" parent="wJXAteI3264ifi4JOvTz-54" vertex="1">
          <mxGeometry x="60" width="100" height="30" as="geometry" />
        </mxCell>
        <mxCell id="wJXAteI3264ifi4JOvTz-62" value="&lt;font face=&quot;Courier New&quot;&gt;&lt;b&gt;Ext Memory&lt;/b&gt;&lt;/font&gt;" style="rounded=0;whiteSpace=wrap;html=1;fillColor=#fa6800;fontColor=#F7F5F5;strokeColor=#C73500;" parent="1" vertex="1">
          <mxGeometry x="629" y="820" width="110" height="30" as="geometry" />
        </mxCell>
        <mxCell id="wJXAteI3264ifi4JOvTz-65" value="kernel" style="rounded=0;whiteSpace=wrap;html=1;fillColor=#126D99;fontColor=#ffffff;strokeColor=#004D7A;fontFamily=Courier New;fontStyle=1;fontSize=15;" parent="1" vertex="1">
          <mxGeometry x="19" y="820" width="80" height="30" as="geometry" />
        </mxCell>
        <mxCell id="wJXAteI3264ifi4JOvTz-67" value="&lt;b&gt;0x10000&lt;/b&gt;" style="text;html=1;align=center;verticalAlign=middle;whiteSpace=wrap;rounded=0;fontFamily=Courier New;" parent="1" vertex="1">
          <mxGeometry x="99" y="770" width="50" height="30" as="geometry" />
        </mxCell>
        <mxCell id="wJXAteI3264ifi4JOvTz-75" value="Pages&lt;div&gt;(&lt;span style=&quot;background-color: initial;&quot;&gt;R/W&lt;/span&gt;&lt;span style=&quot;background-color: initial;&quot;&gt;)&lt;/span&gt;&lt;/div&gt;" style="text;html=1;align=center;verticalAlign=middle;whiteSpace=wrap;rounded=0;fillColor=#d80073;strokeColor=#A50040;fontColor=#ffffff;strokeWidth=2;fontFamily=Courier New;" parent="1" vertex="1">
          <mxGeometry x="259" y="850" width="171" height="30" as="geometry" />
        </mxCell>
        <mxCell id="wJXAteI3264ifi4JOvTz-73" value="Pages&lt;div&gt;(R)&lt;/div&gt;" style="text;html=1;align=center;verticalAlign=middle;whiteSpace=wrap;rounded=0;fillColor=#d80073;strokeColor=#A50040;fontColor=#ffffff;strokeWidth=2;fontFamily=Courier New;" parent="1" vertex="1">
          <mxGeometry x="99" y="850" width="160" height="30" as="geometry" />
        </mxCell>
        <mxCell id="wJXAteI3264ifi4JOvTz-70" value="Pages&lt;div&gt;(R/W)&lt;/div&gt;" style="text;html=1;align=center;verticalAlign=middle;whiteSpace=wrap;rounded=0;fillColor=#d80073;strokeColor=#A50040;fontColor=#ffffff;strokeWidth=2;fontFamily=Courier New;" parent="1" vertex="1">
          <mxGeometry x="19" y="850" width="80" height="30" as="geometry" />
        </mxCell>
        <mxCell id="wJXAteI3264ifi4JOvTz-87" value="" style="endArrow=none;dashed=1;html=1;dashPattern=1 3;strokeWidth=2;rounded=0;entryX=0;entryY=0.25;entryDx=0;entryDy=0;exitX=1;exitY=1;exitDx=0;exitDy=0;" parent="1" source="wJXAteI3264ifi4JOvTz-70" target="wJXAteI3264ifi4JOvTz-67" edge="1">
          <mxGeometry width="50" height="50" relative="1" as="geometry">
            <mxPoint x="59" y="830" as="sourcePoint" />
            <mxPoint x="109" y="780" as="targetPoint" />
          </mxGeometry>
        </mxCell>
        <mxCell id="wJXAteI3264ifi4JOvTz-90" value="" style="endArrow=none;dashed=1;html=1;dashPattern=1 3;strokeWidth=2;rounded=0;entryX=0;entryY=0.25;entryDx=0;entryDy=0;exitX=1;exitY=1;exitDx=0;exitDy=0;" parent="1" edge="1">
          <mxGeometry width="50" height="50" relative="1" as="geometry">
            <mxPoint x="259" y="880" as="sourcePoint" />
            <mxPoint x="259" y="778" as="targetPoint" />
          </mxGeometry>
        </mxCell>
        <mxCell id="wJXAteI3264ifi4JOvTz-91" value="&lt;b&gt;0x14000&lt;/b&gt;" style="text;html=1;align=center;verticalAlign=middle;whiteSpace=wrap;rounded=0;fontFamily=Courier New;" parent="1" vertex="1">
          <mxGeometry x="259" y="770" width="50" height="30" as="geometry" />
        </mxCell>
        <mxCell id="wJXAteI3264ifi4JOvTz-92" value="" style="endArrow=none;dashed=1;html=1;dashPattern=1 3;strokeWidth=2;rounded=0;entryX=0;entryY=0.25;entryDx=0;entryDy=0;exitX=1;exitY=1;exitDx=0;exitDy=0;" parent="1" edge="1">
          <mxGeometry width="50" height="50" relative="1" as="geometry">
            <mxPoint x="19" y="880" as="sourcePoint" />
            <mxPoint x="19" y="778" as="targetPoint" />
          </mxGeometry>
        </mxCell>
        <mxCell id="wJXAteI3264ifi4JOvTz-93" value="&lt;b&gt;0x0&lt;/b&gt;" style="text;html=1;align=center;verticalAlign=middle;whiteSpace=wrap;rounded=0;fontFamily=Courier New;" parent="1" vertex="1">
          <mxGeometry x="19" y="770" width="20" height="30" as="geometry" />
        </mxCell>
        <mxCell id="wJXAteI3264ifi4JOvTz-95" value="&lt;b&gt;0x80000&lt;/b&gt;" style="text;html=1;align=center;verticalAlign=middle;whiteSpace=wrap;rounded=0;fontFamily=Courier New;" parent="1" vertex="1">
          <mxGeometry x="430" y="770" width="50" height="30" as="geometry" />
        </mxCell>
        <mxCell id="wJXAteI3264ifi4JOvTz-96" value="" style="endArrow=none;dashed=1;html=1;dashPattern=1 3;strokeWidth=2;rounded=0;entryX=0;entryY=0.25;entryDx=0;entryDy=0;exitX=1;exitY=1;exitDx=0;exitDy=0;" parent="1" edge="1">
          <mxGeometry width="50" height="50" relative="1" as="geometry">
            <mxPoint x="739" y="880" as="sourcePoint" />
            <mxPoint x="739" y="778" as="targetPoint" />
          </mxGeometry>
        </mxCell>
        <mxCell id="wJXAteI3264ifi4JOvTz-97" value="&lt;b&gt;0x2000000&lt;/b&gt;" style="text;html=1;align=center;verticalAlign=middle;whiteSpace=wrap;rounded=0;fontFamily=Courier New;" parent="1" vertex="1">
          <mxGeometry x="739" y="770" width="70" height="30" as="geometry" />
        </mxCell>
        <mxCell id="wJXAteI3264ifi4JOvTz-103" value="EBDA/VGA" style="rounded=0;whiteSpace=wrap;html=1;fillColor=#a20025;fontColor=#ffffff;strokeColor=#6F0000;fontStyle=1;fontFamily=Courier New;" parent="1" vertex="1">
          <mxGeometry x="430" y="820" width="90" height="30" as="geometry" />
        </mxCell>
        <mxCell id="wJXAteI3264ifi4JOvTz-105" value="&lt;b&gt;0x100000&lt;/b&gt;" style="text;html=1;align=center;verticalAlign=middle;whiteSpace=wrap;rounded=0;fontFamily=Courier New;" parent="1" vertex="1">
          <mxGeometry x="520" y="770" width="60" height="30" as="geometry" />
        </mxCell>
        <mxCell id="wJXAteI3264ifi4JOvTz-158" value="4KByte分页" style="rounded=0;whiteSpace=wrap;html=1;fillColor=#6a00ff;fontColor=#ffffff;strokeColor=#3700CC;" parent="1" vertex="1">
          <mxGeometry x="614" y="545" width="80" height="40" as="geometry" />
        </mxCell>
        <mxCell id="RJltgvXT6OS1B_VrEqyd-1" value="" style="group" parent="1" vertex="1" connectable="0">
          <mxGeometry x="198" y="920" width="530" height="120" as="geometry" />
        </mxCell>
        <mxCell id="wJXAteI3264ifi4JOvTz-108" value="&lt;span&gt;&amp;nbsp; 16 Pages(PTE)&lt;/span&gt;" style="rounded=0;whiteSpace=wrap;html=1;fillColor=#fa6800;fontColor=#F7F5F5;strokeColor=#C73500;fontStyle=0;fontFamily=Courier New;" parent="RJltgvXT6OS1B_VrEqyd-1" vertex="1">
          <mxGeometry x="400" width="130" height="30" as="geometry" />
        </mxCell>
        <mxCell id="wJXAteI3264ifi4JOvTz-109" value="&lt;span&gt;&amp;nbsp; &amp;nbsp;4 Pages(PTE)&lt;/span&gt;" style="rounded=0;whiteSpace=wrap;html=1;fillColor=#542300;fontColor=#F7F5F5;strokeColor=#591800;fontStyle=0;fontFamily=Courier New;" parent="RJltgvXT6OS1B_VrEqyd-1" vertex="1">
          <mxGeometry x="400" y="30" width="130" height="30" as="geometry" />
        </mxCell>
        <mxCell id="wJXAteI3264ifi4JOvTz-110" value="&lt;span&gt;&amp;nbsp;108 Pages(PTE)&lt;/span&gt;" style="rounded=0;whiteSpace=wrap;html=1;fillColor=#fa6800;fontColor=#F7F5F5;strokeColor=#C73500;fontStyle=0;fontFamily=Courier New;" parent="RJltgvXT6OS1B_VrEqyd-1" vertex="1">
          <mxGeometry x="400" y="60" width="130" height="30" as="geometry" />
        </mxCell>
        <mxCell id="wJXAteI3264ifi4JOvTz-111" value="&lt;span&gt;7936 Pages(PTE)&lt;/span&gt;" style="rounded=0;whiteSpace=wrap;html=1;fillColor=#542300;fontColor=#F7F5F5;strokeColor=#591800;fontStyle=0;fontFamily=Courier New;" parent="RJltgvXT6OS1B_VrEqyd-1" vertex="1">
          <mxGeometry x="400" y="90" width="130" height="30" as="geometry" />
        </mxCell>
        <mxCell id="wJXAteI3264ifi4JOvTz-83" value="0x00000000 - 0x00010000 → &lt;b&gt;&lt;u&gt;0x00000000 - 0x00010000 (RW)&lt;/u&gt;&lt;/b&gt;" style="rounded=0;whiteSpace=wrap;html=1;fontFamily=Courier New;fillColor=#d80073;fontColor=#ffffff;strokeColor=#A50040;" parent="RJltgvXT6OS1B_VrEqyd-1" vertex="1">
          <mxGeometry width="400" height="30" as="geometry" />
        </mxCell>
        <mxCell id="wJXAteI3264ifi4JOvTz-85" value="0x00010000 - 0x00014000 → &lt;b&gt;&lt;u&gt;0x00010000 - 0x00014000&amp;nbsp; (R)&lt;/u&gt;&lt;/b&gt;" style="rounded=0;whiteSpace=wrap;html=1;fontFamily=Courier New;fillColor=#4A0027;fontColor=#ffffff;strokeColor=#400019;" parent="RJltgvXT6OS1B_VrEqyd-1" vertex="1">
          <mxGeometry y="30" width="400" height="30" as="geometry" />
        </mxCell>
        <mxCell id="wJXAteI3264ifi4JOvTz-98" value="0x00014000 - 0x00080000 → &lt;b&gt;&lt;u&gt;0x00014000 - 0x00080000 (RW)&lt;/u&gt;&lt;/b&gt;" style="rounded=0;whiteSpace=wrap;html=1;fontFamily=Courier New;fillColor=#d80073;fontColor=#ffffff;strokeColor=#A50040;" parent="RJltgvXT6OS1B_VrEqyd-1" vertex="1">
          <mxGeometry y="60" width="400" height="30" as="geometry" />
        </mxCell>
        <mxCell id="wJXAteI3264ifi4JOvTz-100" value="0x00100000 - 0x02000000 → &lt;b&gt;&lt;u&gt;0x00100000 - 0x02000000 (RW)&lt;/u&gt;&lt;/b&gt;" style="rounded=0;whiteSpace=wrap;html=1;fontFamily=Courier New;fillColor=#4A0027;fontColor=#ffffff;strokeColor=#400019;" parent="RJltgvXT6OS1B_VrEqyd-1" vertex="1">
          <mxGeometry y="90" width="400" height="30" as="geometry" />
        </mxCell>
        <mxCell id="QjY0TRZcK_x5DErUguPq-1" value="&lt;font style=&quot;font-size: 14px;&quot; face=&quot;Courier New&quot;&gt;&lt;b&gt;Kernel&amp;nbsp;&lt;span style=&quot;background-color: initial;&quot;&gt;PDEs&lt;/span&gt;&lt;/b&gt;&lt;/font&gt;" style="rounded=0;whiteSpace=wrap;html=1;fillColor=#76608a;fontColor=#ffffff;strokeColor=#432D57;" parent="1" vertex="1">
          <mxGeometry x="99" y="920" width="99" height="120" as="geometry" />
        </mxCell>
        <mxCell id="UiOiPgRgmLwPV9pIHGz9-1" value="Bitmap" style="rounded=0;whiteSpace=wrap;html=1;fillColor=#6a00ff;fontColor=#ffffff;strokeColor=#3700CC;fontStyle=1;fontFamily=Courier New;" parent="1" vertex="1">
          <mxGeometry x="520" y="820" width="109" height="30" as="geometry" />
        </mxCell>
        <mxCell id="wJXAteI3264ifi4JOvTz-104" value="" style="endArrow=none;dashed=1;html=1;dashPattern=1 3;strokeWidth=2;rounded=0;entryX=0;entryY=0.25;entryDx=0;entryDy=0;exitX=1;exitY=1;exitDx=0;exitDy=0;" parent="1" edge="1">
          <mxGeometry width="50" height="50" relative="1" as="geometry">
            <mxPoint x="520" y="880" as="sourcePoint" />
            <mxPoint x="520" y="778" as="targetPoint" />
          </mxGeometry>
        </mxCell>
        <mxCell id="wJXAteI3264ifi4JOvTz-94" value="" style="endArrow=none;dashed=1;html=1;dashPattern=1 3;strokeWidth=2;rounded=0;entryX=0;entryY=0.25;entryDx=0;entryDy=0;exitX=1;exitY=1;exitDx=0;exitDy=0;" parent="1" edge="1">
          <mxGeometry width="50" height="50" relative="1" as="geometry">
            <mxPoint x="430" y="880" as="sourcePoint" />
            <mxPoint x="430" y="778" as="targetPoint" />
          </mxGeometry>
        </mxCell>
        <mxCell id="UiOiPgRgmLwPV9pIHGz9-33" value="" style="group" parent="1" vertex="1" connectable="0">
          <mxGeometry x="40" y="620" width="479" height="80" as="geometry" />
        </mxCell>
        <mxCell id="UiOiPgRgmLwPV9pIHGz9-19" value="CR3" style="rounded=0;whiteSpace=wrap;html=1;fillColor=#647687;fontColor=#ffffff;strokeColor=#314354;" parent="UiOiPgRgmLwPV9pIHGz9-33" vertex="1">
          <mxGeometry width="87" height="30" as="geometry" />
        </mxCell>
        <mxCell id="UiOiPgRgmLwPV9pIHGz9-20" value="PDE" style="swimlane;fontStyle=0;childLayout=stackLayout;horizontal=1;startSize=26;fillColor=#d80073;horizontalStack=0;resizeParent=1;resizeParentMax=0;resizeLast=0;collapsible=1;marginBottom=0;whiteSpace=wrap;html=1;fontFamily=Courier New;fontColor=#ffffff;strokeColor=#A50040;" parent="UiOiPgRgmLwPV9pIHGz9-33" vertex="1">
          <mxGeometry x="177.75" width="140" height="78" as="geometry" />
        </mxCell>
        <mxCell id="UiOiPgRgmLwPV9pIHGz9-21" value="+ attr&amp;nbsp; : 12 bits" style="text;strokeColor=none;fillColor=none;align=left;verticalAlign=top;spacingLeft=4;spacingRight=4;overflow=hidden;rotatable=0;points=[[0,0.5],[1,0.5]];portConstraint=eastwest;whiteSpace=wrap;html=1;fontFamily=Courier New;" parent="UiOiPgRgmLwPV9pIHGz9-20" vertex="1">
          <mxGeometry y="26" width="140" height="26" as="geometry" />
        </mxCell>
        <mxCell id="UiOiPgRgmLwPV9pIHGz9-22" value="+ index : 20 bits" style="text;strokeColor=none;fillColor=none;align=left;verticalAlign=top;spacingLeft=4;spacingRight=4;overflow=hidden;rotatable=0;points=[[0,0.5],[1,0.5]];portConstraint=eastwest;whiteSpace=wrap;html=1;fontFamily=Courier New;" parent="UiOiPgRgmLwPV9pIHGz9-20" vertex="1">
          <mxGeometry y="52" width="140" height="26" as="geometry" />
        </mxCell>
        <mxCell id="UiOiPgRgmLwPV9pIHGz9-28" style="edgeStyle=orthogonalEdgeStyle;rounded=0;orthogonalLoop=1;jettySize=auto;html=1;entryX=0.001;entryY=0.197;entryDx=0;entryDy=0;entryPerimeter=0;" parent="UiOiPgRgmLwPV9pIHGz9-33" source="UiOiPgRgmLwPV9pIHGz9-19" target="UiOiPgRgmLwPV9pIHGz9-20" edge="1">
          <mxGeometry relative="1" as="geometry" />
        </mxCell>
        <mxCell id="UiOiPgRgmLwPV9pIHGz9-29" value="PDE的地址" style="edgeLabel;html=1;align=center;verticalAlign=middle;resizable=0;points=[];" parent="UiOiPgRgmLwPV9pIHGz9-28" vertex="1" connectable="0">
          <mxGeometry x="-0.1142" y="-2" relative="1" as="geometry">
            <mxPoint as="offset" />
          </mxGeometry>
        </mxCell>
        <mxCell id="UiOiPgRgmLwPV9pIHGz9-30" value="Physical Page" style="rounded=0;whiteSpace=wrap;html=1;fillColor=#76608a;fontColor=#ffffff;strokeColor=#432D57;" parent="UiOiPgRgmLwPV9pIHGz9-33" vertex="1">
          <mxGeometry x="392" y="50" width="87" height="30" as="geometry" />
        </mxCell>
        <mxCell id="UiOiPgRgmLwPV9pIHGz9-31" style="edgeStyle=orthogonalEdgeStyle;rounded=0;orthogonalLoop=1;jettySize=auto;html=1;entryX=0;entryY=0.5;entryDx=0;entryDy=0;exitX=1;exitY=0.5;exitDx=0;exitDy=0;" parent="UiOiPgRgmLwPV9pIHGz9-33" source="UiOiPgRgmLwPV9pIHGz9-22" target="UiOiPgRgmLwPV9pIHGz9-30" edge="1">
          <mxGeometry relative="1" as="geometry">
            <mxPoint x="557.75" y="115" as="sourcePoint" />
          </mxGeometry>
        </mxCell>
        <mxCell id="UiOiPgRgmLwPV9pIHGz9-32" value="物理地址" style="edgeLabel;html=1;align=center;verticalAlign=middle;resizable=0;points=[];" parent="UiOiPgRgmLwPV9pIHGz9-31" vertex="1" connectable="0">
          <mxGeometry x="0.2733" y="-1" relative="1" as="geometry">
            <mxPoint x="-10" y="-1" as="offset" />
          </mxGeometry>
        </mxCell>
        <mxCell id="UiOiPgRgmLwPV9pIHGz9-34" value="" style="group" parent="1" vertex="1" connectable="0">
          <mxGeometry x="23.25" y="1080" width="771.5" height="130" as="geometry" />
        </mxCell>
        <mxCell id="UiOiPgRgmLwPV9pIHGz9-2" value="CR3" style="rounded=0;whiteSpace=wrap;html=1;fillColor=#647687;fontColor=#ffffff;strokeColor=#314354;" parent="UiOiPgRgmLwPV9pIHGz9-34" vertex="1">
          <mxGeometry width="87" height="30" as="geometry" />
        </mxCell>
        <mxCell id="UiOiPgRgmLwPV9pIHGz9-4" value="PDE" style="swimlane;fontStyle=0;childLayout=stackLayout;horizontal=1;startSize=26;fillColor=#d80073;horizontalStack=0;resizeParent=1;resizeParentMax=0;resizeLast=0;collapsible=1;marginBottom=0;whiteSpace=wrap;html=1;fontFamily=Courier New;fontColor=#ffffff;strokeColor=#A50040;" parent="UiOiPgRgmLwPV9pIHGz9-34" vertex="1">
          <mxGeometry x="204.5" width="140" height="78" as="geometry" />
        </mxCell>
        <mxCell id="UiOiPgRgmLwPV9pIHGz9-5" value="+ attr&amp;nbsp; : 12 bits" style="text;strokeColor=none;fillColor=none;align=left;verticalAlign=top;spacingLeft=4;spacingRight=4;overflow=hidden;rotatable=0;points=[[0,0.5],[1,0.5]];portConstraint=eastwest;whiteSpace=wrap;html=1;fontFamily=Courier New;" parent="UiOiPgRgmLwPV9pIHGz9-4" vertex="1">
          <mxGeometry y="26" width="140" height="26" as="geometry" />
        </mxCell>
        <mxCell id="UiOiPgRgmLwPV9pIHGz9-6" value="+ index : 20 bits" style="text;strokeColor=none;fillColor=none;align=left;verticalAlign=top;spacingLeft=4;spacingRight=4;overflow=hidden;rotatable=0;points=[[0,0.5],[1,0.5]];portConstraint=eastwest;whiteSpace=wrap;html=1;fontFamily=Courier New;" parent="UiOiPgRgmLwPV9pIHGz9-4" vertex="1">
          <mxGeometry y="52" width="140" height="26" as="geometry" />
        </mxCell>
        <mxCell id="UiOiPgRgmLwPV9pIHGz9-8" value="PTE" style="swimlane;fontStyle=0;childLayout=stackLayout;horizontal=1;startSize=26;fillColor=#d80073;horizontalStack=0;resizeParent=1;resizeParentMax=0;resizeLast=0;collapsible=1;marginBottom=0;whiteSpace=wrap;html=1;fontFamily=Courier New;fontColor=#ffffff;strokeColor=#A50040;" parent="UiOiPgRgmLwPV9pIHGz9-34" vertex="1">
          <mxGeometry x="444.5" y="50" width="140" height="78" as="geometry" />
        </mxCell>
        <mxCell id="UiOiPgRgmLwPV9pIHGz9-9" value="+ attr&amp;nbsp; : 12 bits" style="text;strokeColor=none;fillColor=none;align=left;verticalAlign=top;spacingLeft=4;spacingRight=4;overflow=hidden;rotatable=0;points=[[0,0.5],[1,0.5]];portConstraint=eastwest;whiteSpace=wrap;html=1;fontFamily=Courier New;" parent="UiOiPgRgmLwPV9pIHGz9-8" vertex="1">
          <mxGeometry y="26" width="140" height="26" as="geometry" />
        </mxCell>
        <mxCell id="UiOiPgRgmLwPV9pIHGz9-10" value="+ index : 20 bits" style="text;strokeColor=none;fillColor=none;align=left;verticalAlign=top;spacingLeft=4;spacingRight=4;overflow=hidden;rotatable=0;points=[[0,0.5],[1,0.5]];portConstraint=eastwest;whiteSpace=wrap;html=1;fontFamily=Courier New;" parent="UiOiPgRgmLwPV9pIHGz9-8" vertex="1">
          <mxGeometry y="52" width="140" height="26" as="geometry" />
        </mxCell>
        <mxCell id="UiOiPgRgmLwPV9pIHGz9-11" style="edgeStyle=orthogonalEdgeStyle;rounded=0;orthogonalLoop=1;jettySize=auto;html=1;entryX=0.007;entryY=0.192;entryDx=0;entryDy=0;entryPerimeter=0;" parent="UiOiPgRgmLwPV9pIHGz9-34" source="UiOiPgRgmLwPV9pIHGz9-6" target="UiOiPgRgmLwPV9pIHGz9-8" edge="1">
          <mxGeometry relative="1" as="geometry" />
        </mxCell>
        <mxCell id="UiOiPgRgmLwPV9pIHGz9-12" value="PTE的地址" style="edgeLabel;html=1;align=center;verticalAlign=middle;resizable=0;points=[];" parent="UiOiPgRgmLwPV9pIHGz9-11" vertex="1" connectable="0">
          <mxGeometry x="0.1227" y="2" relative="1" as="geometry">
            <mxPoint x="-8" y="2" as="offset" />
          </mxGeometry>
        </mxCell>
        <mxCell id="UiOiPgRgmLwPV9pIHGz9-13" style="edgeStyle=orthogonalEdgeStyle;rounded=0;orthogonalLoop=1;jettySize=auto;html=1;entryX=0.001;entryY=0.197;entryDx=0;entryDy=0;entryPerimeter=0;" parent="UiOiPgRgmLwPV9pIHGz9-34" source="UiOiPgRgmLwPV9pIHGz9-2" target="UiOiPgRgmLwPV9pIHGz9-4" edge="1">
          <mxGeometry relative="1" as="geometry" />
        </mxCell>
        <mxCell id="UiOiPgRgmLwPV9pIHGz9-14" value="PDE的地址" style="edgeLabel;html=1;align=center;verticalAlign=middle;resizable=0;points=[];" parent="UiOiPgRgmLwPV9pIHGz9-13" vertex="1" connectable="0">
          <mxGeometry x="-0.1142" y="-2" relative="1" as="geometry">
            <mxPoint as="offset" />
          </mxGeometry>
        </mxCell>
        <mxCell id="UiOiPgRgmLwPV9pIHGz9-15" value="Physical Page" style="rounded=0;whiteSpace=wrap;html=1;fillColor=#76608a;fontColor=#ffffff;strokeColor=#432D57;" parent="UiOiPgRgmLwPV9pIHGz9-34" vertex="1">
          <mxGeometry x="684.5" y="100" width="87" height="30" as="geometry" />
        </mxCell>
        <mxCell id="UiOiPgRgmLwPV9pIHGz9-16" style="edgeStyle=orthogonalEdgeStyle;rounded=0;orthogonalLoop=1;jettySize=auto;html=1;entryX=0;entryY=0.5;entryDx=0;entryDy=0;" parent="UiOiPgRgmLwPV9pIHGz9-34" source="UiOiPgRgmLwPV9pIHGz9-10" target="UiOiPgRgmLwPV9pIHGz9-15" edge="1">
          <mxGeometry relative="1" as="geometry" />
        </mxCell>
        <mxCell id="UiOiPgRgmLwPV9pIHGz9-17" value="物理地址" style="edgeLabel;html=1;align=center;verticalAlign=middle;resizable=0;points=[];" parent="UiOiPgRgmLwPV9pIHGz9-16" vertex="1" connectable="0">
          <mxGeometry x="0.2733" y="-1" relative="1" as="geometry">
            <mxPoint x="-10" y="-1" as="offset" />
          </mxGeometry>
        </mxCell>
        <mxCell id="UiOiPgRgmLwPV9pIHGz9-125" value="" style="shape=curlyBracket;whiteSpace=wrap;html=1;rounded=1;flipH=1;labelPosition=right;verticalLabelPosition=middle;align=left;verticalAlign=middle;" parent="1" vertex="1">
          <mxGeometry x="728" y="920" width="20" height="90" as="geometry" />
        </mxCell>
        <mxCell id="UiOiPgRgmLwPV9pIHGz9-126" value="PDE(0)" style="text;html=1;align=center;verticalAlign=middle;whiteSpace=wrap;rounded=0;" parent="1" vertex="1">
          <mxGeometry x="748.5" y="955" width="51" height="20" as="geometry" />
        </mxCell>
        <mxCell id="UiOiPgRgmLwPV9pIHGz9-127" value="" style="shape=curlyBracket;whiteSpace=wrap;html=1;rounded=1;flipH=1;labelPosition=right;verticalLabelPosition=middle;align=left;verticalAlign=middle;" parent="1" vertex="1">
          <mxGeometry x="728" y="1010" width="20" height="30" as="geometry" />
        </mxCell>
        <mxCell id="UiOiPgRgmLwPV9pIHGz9-128" value="PDE(1-7)" style="text;html=1;align=center;verticalAlign=middle;whiteSpace=wrap;rounded=0;" parent="1" vertex="1">
          <mxGeometry x="748.5" y="1015" width="51.5" height="20" as="geometry" />
        </mxCell>
      </root>
    </mxGraphModel>
  </diagram>
  <diagram id="z5Emcwi83iZWIiWva0_M" name="分离内核任务">
    <mxGraphModel dx="1195" dy="697" grid="1" gridSize="10" guides="1" tooltips="1" connect="1" arrows="1" fold="1" page="1" pageScale="1" pageWidth="827" pageHeight="1169" math="0" shadow="0">
      <root>
        <mxCell id="0" />
        <mxCell id="1" parent="0" />
        <mxCell id="P8NagcA2YXhkpzVoZLzE-1" value="&lt;span style=&quot;color: rgb(214, 214, 221); font-family: -apple-system, BlinkMacSystemFont, &amp;quot;Segoe WPC&amp;quot;, &amp;quot;Segoe UI&amp;quot;, system-ui, Ubuntu, &amp;quot;Droid Sans&amp;quot;, sans-serif; font-size: 14px;&quot;&gt;BIOS数据区 / 中断向量表&lt;/span&gt;" style="rounded=0;whiteSpace=wrap;html=1;fillColor=#a20025;fontColor=#ffffff;strokeColor=#6F0000;" vertex="1" parent="1">
          <mxGeometry x="300" y="90" width="200" height="40" as="geometry" />
        </mxCell>
        <mxCell id="P8NagcA2YXhkpzVoZLzE-2" value="0x00007C00" style="text;html=1;align=center;verticalAlign=middle;whiteSpace=wrap;rounded=0;" vertex="1" parent="1">
          <mxGeometry x="220" y="120" width="80" height="20" as="geometry" />
        </mxCell>
        <mxCell id="P8NagcA2YXhkpzVoZLzE-3" value="&lt;font face=&quot;-apple-system, BlinkMacSystemFont, Segoe WPC, Segoe UI, system-ui, Ubuntu, Droid Sans, sans-serif&quot; color=&quot;#d6d6dd&quot;&gt;&lt;span style=&quot;font-size: 14px;&quot;&gt;MBR&lt;/span&gt;&lt;/font&gt;" style="rounded=0;whiteSpace=wrap;html=1;fillColor=#60a917;fontColor=#ffffff;strokeColor=#2D7600;" vertex="1" parent="1">
          <mxGeometry x="300" y="130" width="200" height="40" as="geometry" />
        </mxCell>
        <mxCell id="P8NagcA2YXhkpzVoZLzE-4" value="0x00007E00" style="text;html=1;align=center;verticalAlign=middle;whiteSpace=wrap;rounded=0;" vertex="1" parent="1">
          <mxGeometry x="220" y="160" width="80" height="20" as="geometry" />
        </mxCell>
        <mxCell id="P8NagcA2YXhkpzVoZLzE-5" value="&lt;font face=&quot;-apple-system, BlinkMacSystemFont, Segoe WPC, Segoe UI, system-ui, Ubuntu, Droid Sans, sans-serif&quot; color=&quot;#d6d6dd&quot;&gt;&lt;span style=&quot;font-size: 14px;&quot;&gt;......&lt;/span&gt;&lt;/font&gt;" style="rounded=0;whiteSpace=wrap;html=1;" vertex="1" parent="1">
          <mxGeometry x="300" y="170" width="200" height="40" as="geometry" />
        </mxCell>
        <mxCell id="P8NagcA2YXhkpzVoZLzE-6" value="0x00008000" style="text;html=1;align=center;verticalAlign=middle;whiteSpace=wrap;rounded=0;" vertex="1" parent="1">
          <mxGeometry x="220" y="200" width="80" height="20" as="geometry" />
        </mxCell>
        <mxCell id="P8NagcA2YXhkpzVoZLzE-7" value="&lt;font face=&quot;-apple-system, BlinkMacSystemFont, Segoe WPC, Segoe UI, system-ui, Ubuntu, Droid Sans, sans-serif&quot; color=&quot;#d6d6dd&quot;&gt;&lt;span style=&quot;font-size: 14px;&quot;&gt;Loader (Kernelx16)&lt;/span&gt;&lt;/font&gt;" style="rounded=0;whiteSpace=wrap;html=1;fillColor=#008a00;fontColor=#ffffff;strokeColor=#005700;" vertex="1" parent="1">
          <mxGeometry x="300" y="210" width="200" height="40" as="geometry" />
        </mxCell>
        <mxCell id="P8NagcA2YXhkpzVoZLzE-8" value="0x00000000" style="text;html=1;align=center;verticalAlign=middle;whiteSpace=wrap;rounded=0;" vertex="1" parent="1">
          <mxGeometry x="220" y="80" width="80" height="20" as="geometry" />
        </mxCell>
        <mxCell id="P8NagcA2YXhkpzVoZLzE-9" value="0x00010000" style="text;html=1;align=center;verticalAlign=middle;whiteSpace=wrap;rounded=0;" vertex="1" parent="1">
          <mxGeometry x="220" y="240" width="80" height="20" as="geometry" />
        </mxCell>
        <mxCell id="P8NagcA2YXhkpzVoZLzE-10" value="&lt;span style=&quot;color: rgb(214, 214, 221); font-family: -apple-system, BlinkMacSystemFont, &amp;quot;Segoe WPC&amp;quot;, &amp;quot;Segoe UI&amp;quot;, system-ui, Ubuntu, &amp;quot;Droid Sans&amp;quot;, sans-serif; font-size: 14px;&quot;&gt;显存 / EBDA扩展BIOS数据区&lt;/span&gt;" style="rounded=0;whiteSpace=wrap;html=1;fillColor=#a20025;fontColor=#ffffff;strokeColor=#6F0000;" vertex="1" parent="1">
          <mxGeometry x="300" y="330" width="200" height="40" as="geometry" />
        </mxCell>
        <mxCell id="P8NagcA2YXhkpzVoZLzE-11" value="&lt;font face=&quot;-apple-system, BlinkMacSystemFont, Segoe WPC, Segoe UI, system-ui, Ubuntu, Droid Sans, sans-serif&quot; color=&quot;#d6d6dd&quot;&gt;&lt;span style=&quot;font-size: 14px;&quot;&gt;可用内存区域&lt;/span&gt;&lt;/font&gt;" style="rounded=0;whiteSpace=wrap;html=1;fillColor=#fa6800;fontColor=#000000;strokeColor=#C73500;" vertex="1" parent="1">
          <mxGeometry x="300" y="370" width="200" height="120" as="geometry" />
        </mxCell>
        <mxCell id="P8NagcA2YXhkpzVoZLzE-12" value="0x00100000" style="text;html=1;align=center;verticalAlign=middle;whiteSpace=wrap;rounded=0;" vertex="1" parent="1">
          <mxGeometry x="220" y="360" width="80" height="20" as="geometry" />
        </mxCell>
        <mxCell id="P8NagcA2YXhkpzVoZLzE-13" value="0x01FF6000" style="text;html=1;align=center;verticalAlign=middle;whiteSpace=wrap;rounded=0;" vertex="1" parent="1">
          <mxGeometry x="220" y="480" width="80" height="20" as="geometry" />
        </mxCell>
        <mxCell id="P8NagcA2YXhkpzVoZLzE-14" value="&lt;font face=&quot;-apple-system, BlinkMacSystemFont, Segoe WPC, Segoe UI, system-ui, Ubuntu, Droid Sans, sans-serif&quot; color=&quot;#d6d6dd&quot;&gt;&lt;span style=&quot;font-size: 14px;&quot;&gt;Kernelx86&lt;/span&gt;&lt;/font&gt;" style="rounded=0;whiteSpace=wrap;html=1;fillColor=#1ba1e2;fontColor=#ffffff;strokeColor=#006EAF;verticalAlign=top;" vertex="1" parent="1">
          <mxGeometry x="300" y="250" width="200" height="80" as="geometry" />
        </mxCell>
        <mxCell id="P8NagcA2YXhkpzVoZLzE-15" value="0x00080000" style="text;html=1;align=center;verticalAlign=middle;whiteSpace=wrap;rounded=0;" vertex="1" parent="1">
          <mxGeometry x="220" y="320" width="80" height="20" as="geometry" />
        </mxCell>
        <mxCell id="P8NagcA2YXhkpzVoZLzE-16" value="&lt;font face=&quot;-apple-system, BlinkMacSystemFont, Segoe WPC, Segoe UI, system-ui, Ubuntu, Droid Sans, sans-serif&quot; color=&quot;#d6d6dd&quot;&gt;&lt;span style=&quot;font-size: 14px;&quot;&gt;内核 &lt;b&gt;&lt;u&gt;INIT&lt;/u&gt;&lt;/b&gt;&amp;nbsp;任务&lt;/span&gt;&lt;/font&gt;" style="rounded=0;whiteSpace=wrap;html=1;fillColor=#d80073;fontColor=#ffffff;strokeColor=#A50040;" vertex="1" parent="1">
          <mxGeometry x="300" y="490" width="200" height="40" as="geometry" />
        </mxCell>
        <mxCell id="P8NagcA2YXhkpzVoZLzE-17" value="0x02000000" style="text;html=1;align=center;verticalAlign=middle;whiteSpace=wrap;rounded=0;" vertex="1" parent="1">
          <mxGeometry x="220" y="520" width="80" height="20" as="geometry" />
        </mxCell>
        <mxCell id="P8NagcA2YXhkpzVoZLzE-19" style="edgeStyle=orthogonalEdgeStyle;rounded=0;orthogonalLoop=1;jettySize=auto;html=1;entryX=1;entryY=0.5;entryDx=0;entryDy=0;exitX=1;exitY=0.5;exitDx=0;exitDy=0;" edge="1" parent="1" source="P8NagcA2YXhkpzVoZLzE-18" target="P8NagcA2YXhkpzVoZLzE-16">
          <mxGeometry relative="1" as="geometry">
            <Array as="points">
              <mxPoint x="530" y="295" />
              <mxPoint x="530" y="510" />
            </Array>
          </mxGeometry>
        </mxCell>
        <mxCell id="P8NagcA2YXhkpzVoZLzE-18" value="INIT 任务" style="rounded=0;whiteSpace=wrap;html=1;fillColor=#d80073;fontColor=#ffffff;strokeColor=#A50040;" vertex="1" parent="1">
          <mxGeometry x="350" y="280" width="100" height="30" as="geometry" />
        </mxCell>
      </root>
    </mxGraphModel>
  </diagram>
  <diagram id="fEsaS7RpXC5-fvV341ZN" name="虚拟内存布局">
    <mxGraphModel dx="683" dy="398" grid="1" gridSize="10" guides="1" tooltips="1" connect="1" arrows="1" fold="1" page="1" pageScale="1" pageWidth="827" pageHeight="1169" math="0" shadow="0">
      <root>
        <mxCell id="0" />
        <mxCell id="1" parent="0" />
        <mxCell id="Fxpvu13fTT9lpUUS7K4a-1" value="&lt;span style=&quot;color: rgb(214, 214, 221); font-family: -apple-system, BlinkMacSystemFont, &amp;quot;Segoe WPC&amp;quot;, &amp;quot;Segoe UI&amp;quot;, system-ui, Ubuntu, &amp;quot;Droid Sans&amp;quot;, sans-serif; font-size: 14px;&quot;&gt;BIOS数据区 / 中断向量表&lt;/span&gt;" style="rounded=0;whiteSpace=wrap;html=1;fillColor=#a20025;fontColor=#ffffff;strokeColor=#6F0000;" vertex="1" parent="1">
          <mxGeometry x="280" y="100" width="200" height="40" as="geometry" />
        </mxCell>
        <mxCell id="Fxpvu13fTT9lpUUS7K4a-2" value="0x000007C00" style="text;html=1;align=center;verticalAlign=middle;whiteSpace=wrap;rounded=0;" vertex="1" parent="1">
          <mxGeometry x="200" y="130" width="80" height="20" as="geometry" />
        </mxCell>
        <mxCell id="Fxpvu13fTT9lpUUS7K4a-3" value="&lt;font face=&quot;-apple-system, BlinkMacSystemFont, Segoe WPC, Segoe UI, system-ui, Ubuntu, Droid Sans, sans-serif&quot; color=&quot;#d6d6dd&quot;&gt;&lt;span style=&quot;font-size: 14px;&quot;&gt;MBR&lt;/span&gt;&lt;/font&gt;" style="rounded=0;whiteSpace=wrap;html=1;fillColor=#60a917;fontColor=#ffffff;strokeColor=#2D7600;" vertex="1" parent="1">
          <mxGeometry x="280" y="140" width="200" height="40" as="geometry" />
        </mxCell>
        <mxCell id="Fxpvu13fTT9lpUUS7K4a-4" value="0x000007E00" style="text;html=1;align=center;verticalAlign=middle;whiteSpace=wrap;rounded=0;" vertex="1" parent="1">
          <mxGeometry x="200" y="170" width="80" height="20" as="geometry" />
        </mxCell>
        <mxCell id="Fxpvu13fTT9lpUUS7K4a-5" value="&lt;font face=&quot;-apple-system, BlinkMacSystemFont, Segoe WPC, Segoe UI, system-ui, Ubuntu, Droid Sans, sans-serif&quot; color=&quot;#d6d6dd&quot;&gt;&lt;span style=&quot;font-size: 14px;&quot;&gt;......&lt;/span&gt;&lt;/font&gt;" style="rounded=0;whiteSpace=wrap;html=1;" vertex="1" parent="1">
          <mxGeometry x="280" y="180" width="200" height="40" as="geometry" />
        </mxCell>
        <mxCell id="Fxpvu13fTT9lpUUS7K4a-6" value="0x000008000" style="text;html=1;align=center;verticalAlign=middle;whiteSpace=wrap;rounded=0;" vertex="1" parent="1">
          <mxGeometry x="200" y="210" width="80" height="20" as="geometry" />
        </mxCell>
        <mxCell id="Fxpvu13fTT9lpUUS7K4a-7" value="&lt;font face=&quot;-apple-system, BlinkMacSystemFont, Segoe WPC, Segoe UI, system-ui, Ubuntu, Droid Sans, sans-serif&quot; color=&quot;#d6d6dd&quot;&gt;&lt;span style=&quot;font-size: 14px;&quot;&gt;Loader (Kernelx16)&lt;/span&gt;&lt;/font&gt;" style="rounded=0;whiteSpace=wrap;html=1;fillColor=#008a00;fontColor=#ffffff;strokeColor=#005700;" vertex="1" parent="1">
          <mxGeometry x="280" y="220" width="200" height="40" as="geometry" />
        </mxCell>
        <mxCell id="Fxpvu13fTT9lpUUS7K4a-8" value="0x000000000" style="text;html=1;align=center;verticalAlign=middle;whiteSpace=wrap;rounded=0;" vertex="1" parent="1">
          <mxGeometry x="200" y="90" width="80" height="20" as="geometry" />
        </mxCell>
        <mxCell id="Fxpvu13fTT9lpUUS7K4a-9" value="0x000010000" style="text;html=1;align=center;verticalAlign=middle;whiteSpace=wrap;rounded=0;" vertex="1" parent="1">
          <mxGeometry x="200" y="250" width="80" height="20" as="geometry" />
        </mxCell>
        <mxCell id="Fxpvu13fTT9lpUUS7K4a-10" value="&lt;span style=&quot;color: rgb(214, 214, 221); font-family: -apple-system, BlinkMacSystemFont, &amp;quot;Segoe WPC&amp;quot;, &amp;quot;Segoe UI&amp;quot;, system-ui, Ubuntu, &amp;quot;Droid Sans&amp;quot;, sans-serif; font-size: 14px;&quot;&gt;显存 / EBDA扩展BIOS数据区&lt;/span&gt;" style="rounded=0;whiteSpace=wrap;html=1;fillColor=#a20025;fontColor=#ffffff;strokeColor=#6F0000;" vertex="1" parent="1">
          <mxGeometry x="280" y="340" width="200" height="40" as="geometry" />
        </mxCell>
        <mxCell id="Fxpvu13fTT9lpUUS7K4a-11" value="&lt;font face=&quot;-apple-system, BlinkMacSystemFont, Segoe WPC, Segoe UI, system-ui, Ubuntu, Droid Sans, sans-serif&quot; color=&quot;#d6d6dd&quot;&gt;&lt;span style=&quot;font-size: 14px;&quot;&gt;内核可用内存&lt;/span&gt;&lt;/font&gt;" style="rounded=0;whiteSpace=wrap;html=1;fillColor=#647687;fontColor=#ffffff;strokeColor=#314354;" vertex="1" parent="1">
          <mxGeometry x="280" y="420" width="200" height="80" as="geometry" />
        </mxCell>
        <mxCell id="Fxpvu13fTT9lpUUS7K4a-12" value="0x000100000" style="text;html=1;align=center;verticalAlign=middle;whiteSpace=wrap;rounded=0;" vertex="1" parent="1">
          <mxGeometry x="200" y="370" width="80" height="20" as="geometry" />
        </mxCell>
        <mxCell id="Fxpvu13fTT9lpUUS7K4a-14" value="&lt;font face=&quot;-apple-system, BlinkMacSystemFont, Segoe WPC, Segoe UI, system-ui, Ubuntu, Droid Sans, sans-serif&quot; color=&quot;#d6d6dd&quot;&gt;&lt;span style=&quot;font-size: 14px;&quot;&gt;Kernelx86&lt;/span&gt;&lt;/font&gt;" style="rounded=0;whiteSpace=wrap;html=1;fillColor=#1ba1e2;fontColor=#ffffff;strokeColor=#006EAF;verticalAlign=middle;" vertex="1" parent="1">
          <mxGeometry x="280" y="260" width="200" height="80" as="geometry" />
        </mxCell>
        <mxCell id="Fxpvu13fTT9lpUUS7K4a-15" value="0x000080000" style="text;html=1;align=center;verticalAlign=middle;whiteSpace=wrap;rounded=0;" vertex="1" parent="1">
          <mxGeometry x="200" y="330" width="80" height="20" as="geometry" />
        </mxCell>
        <mxCell id="Fxpvu13fTT9lpUUS7K4a-16" value="&lt;font face=&quot;-apple-system, BlinkMacSystemFont, Segoe WPC, Segoe UI, system-ui, Ubuntu, Droid Sans, sans-serif&quot; color=&quot;#d6d6dd&quot;&gt;&lt;span style=&quot;font-size: 14px;&quot;&gt;用户可用内存&lt;/span&gt;&lt;/font&gt;" style="rounded=0;whiteSpace=wrap;html=1;fillColor=#d80073;fontColor=#ffffff;strokeColor=#A50040;" vertex="1" parent="1">
          <mxGeometry x="280" y="500" width="200" height="140" as="geometry" />
        </mxCell>
        <mxCell id="Fxpvu13fTT9lpUUS7K4a-17" value="0x040000000" style="text;html=1;align=center;verticalAlign=middle;whiteSpace=wrap;rounded=0;" vertex="1" parent="1">
          <mxGeometry x="200" y="490" width="80" height="20" as="geometry" />
        </mxCell>
        <mxCell id="M1nUi0GGtp5r2Q0GWLYq-2" value="" style="shape=curlyBracket;whiteSpace=wrap;html=1;rounded=1;flipH=1;labelPosition=right;verticalLabelPosition=middle;align=left;verticalAlign=middle;" vertex="1" parent="1">
          <mxGeometry x="480" y="100" width="20" height="400" as="geometry" />
        </mxCell>
        <mxCell id="M1nUi0GGtp5r2Q0GWLYq-3" value="0x100000000" style="text;html=1;align=center;verticalAlign=middle;whiteSpace=wrap;rounded=0;" vertex="1" parent="1">
          <mxGeometry x="200" y="630" width="80" height="20" as="geometry" />
        </mxCell>
        <mxCell id="M1nUi0GGtp5r2Q0GWLYq-4" value="" style="shape=curlyBracket;whiteSpace=wrap;html=1;rounded=1;flipH=1;labelPosition=right;verticalLabelPosition=middle;align=left;verticalAlign=middle;" vertex="1" parent="1">
          <mxGeometry x="480" y="500" width="20" height="140" as="geometry" />
        </mxCell>
        <mxCell id="M1nUi0GGtp5r2Q0GWLYq-5" value="虚拟地址视角下的内存布局" style="text;html=1;align=center;verticalAlign=middle;whiteSpace=wrap;rounded=0;fontSize=16;fontStyle=1" vertex="1" parent="1">
          <mxGeometry x="290" y="20" width="200" height="40" as="geometry" />
        </mxCell>
        <mxCell id="M1nUi0GGtp5r2Q0GWLYq-6" value="内核空间（0~1G）" style="text;html=1;align=center;verticalAlign=middle;whiteSpace=wrap;rounded=0;fontSize=16;fontStyle=1" vertex="1" parent="1">
          <mxGeometry x="500" y="285" width="140" height="30" as="geometry" />
        </mxCell>
        <mxCell id="M1nUi0GGtp5r2Q0GWLYq-7" value="内核空间（1~4G）" style="text;html=1;align=center;verticalAlign=middle;whiteSpace=wrap;rounded=0;fontStyle=1;fontSize=16;" vertex="1" parent="1">
          <mxGeometry x="500" y="555" width="140" height="30" as="geometry" />
        </mxCell>
        <mxCell id="4RgGj6bsCSbHUdckR5IF-1" value="&lt;font face=&quot;-apple-system, BlinkMacSystemFont, Segoe WPC, Segoe UI, system-ui, Ubuntu, Droid Sans, sans-serif&quot; color=&quot;#d6d6dd&quot;&gt;&lt;span style=&quot;font-size: 14px;&quot;&gt;位图结构&lt;/span&gt;&lt;/font&gt;" style="rounded=0;whiteSpace=wrap;html=1;fillColor=#76608a;fontColor=#ffffff;strokeColor=#432D57;" vertex="1" parent="1">
          <mxGeometry x="280" y="380" width="200" height="40" as="geometry" />
        </mxCell>
      </root>
    </mxGraphModel>
  </diagram>
  <diagram id="ENOuGR3EFh1bkUQIKfTq" name="位图的作用">
    <mxGraphModel dx="989" dy="577" grid="1" gridSize="10" guides="1" tooltips="1" connect="1" arrows="1" fold="1" page="1" pageScale="1" pageWidth="827" pageHeight="1169" math="0" shadow="0">
      <root>
        <mxCell id="0" />
        <mxCell id="1" parent="0" />
        <mxCell id="CBEQ6D1oWAcKs2kqTUA8-63" value="" style="rounded=0;whiteSpace=wrap;html=1;" vertex="1" parent="1">
          <mxGeometry x="630" y="780" width="120" height="90" as="geometry" />
        </mxCell>
        <mxCell id="CBEQ6D1oWAcKs2kqTUA8-7" value="" style="rounded=0;whiteSpace=wrap;html=1;" vertex="1" parent="1">
          <mxGeometry x="360" y="430" width="120" height="140" as="geometry" />
        </mxCell>
        <mxCell id="CBEQ6D1oWAcKs2kqTUA8-8" value="" style="shape=table;startSize=0;container=1;collapsible=0;childLayout=tableLayout;fontSize=16;fillColor=#a0522d;fontColor=#ffffff;strokeColor=#6D1F00;" vertex="1" parent="1">
          <mxGeometry x="360" y="430" width="120" height="140" as="geometry" />
        </mxCell>
        <mxCell id="CBEQ6D1oWAcKs2kqTUA8-9" value="" style="shape=tableRow;horizontal=0;startSize=0;swimlaneHead=0;swimlaneBody=0;strokeColor=inherit;top=0;left=0;bottom=0;right=0;collapsible=0;dropTarget=0;fillColor=none;points=[[0,0.5],[1,0.5]];portConstraint=eastwest;fontSize=16;" vertex="1" parent="CBEQ6D1oWAcKs2kqTUA8-8">
          <mxGeometry width="120" height="23" as="geometry" />
        </mxCell>
        <mxCell id="CBEQ6D1oWAcKs2kqTUA8-10" value="PDE 0" style="shape=partialRectangle;html=1;whiteSpace=wrap;connectable=0;strokeColor=inherit;overflow=hidden;fillColor=none;top=0;left=0;bottom=0;right=0;pointerEvents=1;fontSize=12;" vertex="1" parent="CBEQ6D1oWAcKs2kqTUA8-9">
          <mxGeometry width="120" height="23" as="geometry">
            <mxRectangle width="120" height="23" as="alternateBounds" />
          </mxGeometry>
        </mxCell>
        <mxCell id="CBEQ6D1oWAcKs2kqTUA8-11" value="" style="shape=tableRow;horizontal=0;startSize=0;swimlaneHead=0;swimlaneBody=0;strokeColor=inherit;top=0;left=0;bottom=0;right=0;collapsible=0;dropTarget=0;fillColor=none;points=[[0,0.5],[1,0.5]];portConstraint=eastwest;fontSize=16;" vertex="1" parent="CBEQ6D1oWAcKs2kqTUA8-8">
          <mxGeometry y="23" width="120" height="23" as="geometry" />
        </mxCell>
        <mxCell id="CBEQ6D1oWAcKs2kqTUA8-12" value="PDE 1" style="shape=partialRectangle;html=1;whiteSpace=wrap;connectable=0;strokeColor=inherit;overflow=hidden;fillColor=none;top=0;left=0;bottom=0;right=0;pointerEvents=1;fontSize=12;" vertex="1" parent="CBEQ6D1oWAcKs2kqTUA8-11">
          <mxGeometry width="120" height="23" as="geometry">
            <mxRectangle width="120" height="23" as="alternateBounds" />
          </mxGeometry>
        </mxCell>
        <mxCell id="CBEQ6D1oWAcKs2kqTUA8-22" style="shape=tableRow;horizontal=0;startSize=0;swimlaneHead=0;swimlaneBody=0;strokeColor=inherit;top=0;left=0;bottom=0;right=0;collapsible=0;dropTarget=0;fillColor=none;points=[[0,0.5],[1,0.5]];portConstraint=eastwest;fontSize=16;" vertex="1" parent="CBEQ6D1oWAcKs2kqTUA8-8">
          <mxGeometry y="46" width="120" height="24" as="geometry" />
        </mxCell>
        <mxCell id="CBEQ6D1oWAcKs2kqTUA8-23" value="..." style="shape=partialRectangle;html=1;whiteSpace=wrap;connectable=0;strokeColor=inherit;overflow=hidden;fillColor=none;top=0;left=0;bottom=0;right=0;pointerEvents=1;fontSize=12;" vertex="1" parent="CBEQ6D1oWAcKs2kqTUA8-22">
          <mxGeometry width="120" height="24" as="geometry">
            <mxRectangle width="120" height="24" as="alternateBounds" />
          </mxGeometry>
        </mxCell>
        <mxCell id="CBEQ6D1oWAcKs2kqTUA8-20" style="shape=tableRow;horizontal=0;startSize=0;swimlaneHead=0;swimlaneBody=0;strokeColor=inherit;top=0;left=0;bottom=0;right=0;collapsible=0;dropTarget=0;fillColor=none;points=[[0,0.5],[1,0.5]];portConstraint=eastwest;fontSize=16;" vertex="1" parent="CBEQ6D1oWAcKs2kqTUA8-8">
          <mxGeometry y="70" width="120" height="24" as="geometry" />
        </mxCell>
        <mxCell id="CBEQ6D1oWAcKs2kqTUA8-21" value="PDE n" style="shape=partialRectangle;html=1;whiteSpace=wrap;connectable=0;strokeColor=inherit;overflow=hidden;fillColor=none;top=0;left=0;bottom=0;right=0;pointerEvents=1;fontSize=12;" vertex="1" parent="CBEQ6D1oWAcKs2kqTUA8-20">
          <mxGeometry width="120" height="24" as="geometry">
            <mxRectangle width="120" height="24" as="alternateBounds" />
          </mxGeometry>
        </mxCell>
        <mxCell id="CBEQ6D1oWAcKs2kqTUA8-13" value="" style="shape=tableRow;horizontal=0;startSize=0;swimlaneHead=0;swimlaneBody=0;strokeColor=inherit;top=0;left=0;bottom=0;right=0;collapsible=0;dropTarget=0;fillColor=none;points=[[0,0.5],[1,0.5]];portConstraint=eastwest;fontSize=16;" vertex="1" parent="CBEQ6D1oWAcKs2kqTUA8-8">
          <mxGeometry y="94" width="120" height="23" as="geometry" />
        </mxCell>
        <mxCell id="CBEQ6D1oWAcKs2kqTUA8-14" value="..." style="shape=partialRectangle;html=1;whiteSpace=wrap;connectable=0;strokeColor=inherit;overflow=hidden;fillColor=none;top=0;left=0;bottom=0;right=0;pointerEvents=1;fontSize=12;" vertex="1" parent="CBEQ6D1oWAcKs2kqTUA8-13">
          <mxGeometry width="120" height="23" as="geometry">
            <mxRectangle width="120" height="23" as="alternateBounds" />
          </mxGeometry>
        </mxCell>
        <mxCell id="CBEQ6D1oWAcKs2kqTUA8-15" style="shape=tableRow;horizontal=0;startSize=0;swimlaneHead=0;swimlaneBody=0;strokeColor=inherit;top=0;left=0;bottom=0;right=0;collapsible=0;dropTarget=0;fillColor=none;points=[[0,0.5],[1,0.5]];portConstraint=eastwest;fontSize=16;" vertex="1" parent="CBEQ6D1oWAcKs2kqTUA8-8">
          <mxGeometry y="117" width="120" height="23" as="geometry" />
        </mxCell>
        <mxCell id="CBEQ6D1oWAcKs2kqTUA8-16" value="PDE 1023" style="shape=partialRectangle;html=1;whiteSpace=wrap;connectable=0;strokeColor=inherit;overflow=hidden;fillColor=none;top=0;left=0;bottom=0;right=0;pointerEvents=1;fontSize=12;" vertex="1" parent="CBEQ6D1oWAcKs2kqTUA8-15">
          <mxGeometry width="120" height="23" as="geometry">
            <mxRectangle width="120" height="23" as="alternateBounds" />
          </mxGeometry>
        </mxCell>
        <mxCell id="HpR2BSxGtMljKJ589372-1" value="" style="shape=table;startSize=0;container=1;collapsible=0;childLayout=tableLayout;fontSize=16;" vertex="1" parent="1">
          <mxGeometry x="64" y="40" width="240" height="120" as="geometry" />
        </mxCell>
        <mxCell id="HpR2BSxGtMljKJ589372-2" value="" style="shape=tableRow;horizontal=0;startSize=0;swimlaneHead=0;swimlaneBody=0;strokeColor=inherit;top=0;left=0;bottom=0;right=0;collapsible=0;dropTarget=0;fillColor=none;points=[[0,0.5],[1,0.5]];portConstraint=eastwest;fontSize=16;" vertex="1" parent="HpR2BSxGtMljKJ589372-1">
          <mxGeometry width="240" height="31" as="geometry" />
        </mxCell>
        <mxCell id="HpR2BSxGtMljKJ589372-3" value="1" style="shape=partialRectangle;html=1;whiteSpace=wrap;connectable=0;strokeColor=#B20000;overflow=hidden;fillColor=#e51400;top=0;left=0;bottom=0;right=0;pointerEvents=1;fontSize=16;fontColor=#ffffff;" vertex="1" parent="HpR2BSxGtMljKJ589372-2">
          <mxGeometry width="30" height="31" as="geometry">
            <mxRectangle width="30" height="31" as="alternateBounds" />
          </mxGeometry>
        </mxCell>
        <mxCell id="HpR2BSxGtMljKJ589372-4" value="1" style="shape=partialRectangle;html=1;whiteSpace=wrap;connectable=0;strokeColor=#B20000;overflow=hidden;fillColor=#e51400;top=0;left=0;bottom=0;right=0;pointerEvents=1;fontSize=16;fontColor=#ffffff;" vertex="1" parent="HpR2BSxGtMljKJ589372-2">
          <mxGeometry x="30" width="30" height="31" as="geometry">
            <mxRectangle width="30" height="31" as="alternateBounds" />
          </mxGeometry>
        </mxCell>
        <mxCell id="HpR2BSxGtMljKJ589372-5" value="1" style="shape=partialRectangle;html=1;whiteSpace=wrap;connectable=0;strokeColor=#B20000;overflow=hidden;fillColor=#e51400;top=0;left=0;bottom=0;right=0;pointerEvents=1;fontSize=16;fontColor=#ffffff;" vertex="1" parent="HpR2BSxGtMljKJ589372-2">
          <mxGeometry x="60" width="30" height="31" as="geometry">
            <mxRectangle width="30" height="31" as="alternateBounds" />
          </mxGeometry>
        </mxCell>
        <mxCell id="HpR2BSxGtMljKJ589372-14" value="1" style="shape=partialRectangle;html=1;whiteSpace=wrap;connectable=0;strokeColor=#B20000;overflow=hidden;fillColor=#e51400;top=0;left=0;bottom=0;right=0;pointerEvents=1;fontSize=16;fontColor=#ffffff;" vertex="1" parent="HpR2BSxGtMljKJ589372-2">
          <mxGeometry x="90" width="30" height="31" as="geometry">
            <mxRectangle width="30" height="31" as="alternateBounds" />
          </mxGeometry>
        </mxCell>
        <mxCell id="HpR2BSxGtMljKJ589372-17" value="1" style="shape=partialRectangle;html=1;whiteSpace=wrap;connectable=0;strokeColor=#B20000;overflow=hidden;fillColor=#e51400;top=0;left=0;bottom=0;right=0;pointerEvents=1;fontSize=16;fontColor=#ffffff;" vertex="1" parent="HpR2BSxGtMljKJ589372-2">
          <mxGeometry x="120" width="30" height="31" as="geometry">
            <mxRectangle width="30" height="31" as="alternateBounds" />
          </mxGeometry>
        </mxCell>
        <mxCell id="HpR2BSxGtMljKJ589372-20" value="1" style="shape=partialRectangle;html=1;whiteSpace=wrap;connectable=0;strokeColor=#B20000;overflow=hidden;fillColor=#e51400;top=0;left=0;bottom=0;right=0;pointerEvents=1;fontSize=16;fontColor=#ffffff;" vertex="1" parent="HpR2BSxGtMljKJ589372-2">
          <mxGeometry x="150" width="30" height="31" as="geometry">
            <mxRectangle width="30" height="31" as="alternateBounds" />
          </mxGeometry>
        </mxCell>
        <mxCell id="HpR2BSxGtMljKJ589372-23" value="1" style="shape=partialRectangle;html=1;whiteSpace=wrap;connectable=0;strokeColor=#B20000;overflow=hidden;fillColor=#e51400;top=0;left=0;bottom=0;right=0;pointerEvents=1;fontSize=16;fontColor=#ffffff;" vertex="1" parent="HpR2BSxGtMljKJ589372-2">
          <mxGeometry x="180" width="30" height="31" as="geometry">
            <mxRectangle width="30" height="31" as="alternateBounds" />
          </mxGeometry>
        </mxCell>
        <mxCell id="HpR2BSxGtMljKJ589372-26" value="1" style="shape=partialRectangle;html=1;whiteSpace=wrap;connectable=0;strokeColor=#B20000;overflow=hidden;fillColor=#e51400;top=0;left=0;bottom=0;right=0;pointerEvents=1;fontSize=16;fontColor=#ffffff;" vertex="1" parent="HpR2BSxGtMljKJ589372-2">
          <mxGeometry x="210" width="30" height="31" as="geometry">
            <mxRectangle width="30" height="31" as="alternateBounds" />
          </mxGeometry>
        </mxCell>
        <mxCell id="HpR2BSxGtMljKJ589372-6" value="" style="shape=tableRow;horizontal=0;startSize=0;swimlaneHead=0;swimlaneBody=0;strokeColor=inherit;top=0;left=0;bottom=0;right=0;collapsible=0;dropTarget=0;fillColor=none;points=[[0,0.5],[1,0.5]];portConstraint=eastwest;fontSize=16;" vertex="1" parent="HpR2BSxGtMljKJ589372-1">
          <mxGeometry y="31" width="240" height="29" as="geometry" />
        </mxCell>
        <mxCell id="HpR2BSxGtMljKJ589372-7" value="1" style="shape=partialRectangle;html=1;whiteSpace=wrap;connectable=0;strokeColor=#B20000;overflow=hidden;fillColor=#e51400;top=0;left=0;bottom=0;right=0;pointerEvents=1;fontSize=16;fontColor=#ffffff;" vertex="1" parent="HpR2BSxGtMljKJ589372-6">
          <mxGeometry width="30" height="29" as="geometry">
            <mxRectangle width="30" height="29" as="alternateBounds" />
          </mxGeometry>
        </mxCell>
        <mxCell id="HpR2BSxGtMljKJ589372-8" value="1" style="shape=partialRectangle;html=1;whiteSpace=wrap;connectable=0;strokeColor=#B20000;overflow=hidden;fillColor=#e51400;top=0;left=0;bottom=0;right=0;pointerEvents=1;fontSize=16;fontColor=#ffffff;" vertex="1" parent="HpR2BSxGtMljKJ589372-6">
          <mxGeometry x="30" width="30" height="29" as="geometry">
            <mxRectangle width="30" height="29" as="alternateBounds" />
          </mxGeometry>
        </mxCell>
        <mxCell id="HpR2BSxGtMljKJ589372-9" value="0" style="shape=partialRectangle;html=1;whiteSpace=wrap;connectable=0;strokeColor=#2D7600;overflow=hidden;fillColor=#60a917;top=0;left=0;bottom=0;right=0;pointerEvents=1;fontSize=16;fontColor=#ffffff;" vertex="1" parent="HpR2BSxGtMljKJ589372-6">
          <mxGeometry x="60" width="30" height="29" as="geometry">
            <mxRectangle width="30" height="29" as="alternateBounds" />
          </mxGeometry>
        </mxCell>
        <mxCell id="HpR2BSxGtMljKJ589372-15" value="0" style="shape=partialRectangle;html=1;whiteSpace=wrap;connectable=0;strokeColor=#2D7600;overflow=hidden;fillColor=#60a917;top=0;left=0;bottom=0;right=0;pointerEvents=1;fontSize=16;fontColor=#ffffff;" vertex="1" parent="HpR2BSxGtMljKJ589372-6">
          <mxGeometry x="90" width="30" height="29" as="geometry">
            <mxRectangle width="30" height="29" as="alternateBounds" />
          </mxGeometry>
        </mxCell>
        <mxCell id="HpR2BSxGtMljKJ589372-18" value="0" style="shape=partialRectangle;html=1;whiteSpace=wrap;connectable=0;strokeColor=#2D7600;overflow=hidden;fillColor=#60a917;top=0;left=0;bottom=0;right=0;pointerEvents=1;fontSize=16;fontColor=#ffffff;" vertex="1" parent="HpR2BSxGtMljKJ589372-6">
          <mxGeometry x="120" width="30" height="29" as="geometry">
            <mxRectangle width="30" height="29" as="alternateBounds" />
          </mxGeometry>
        </mxCell>
        <mxCell id="HpR2BSxGtMljKJ589372-21" value="0" style="shape=partialRectangle;html=1;whiteSpace=wrap;connectable=0;strokeColor=#2D7600;overflow=hidden;fillColor=#60a917;top=0;left=0;bottom=0;right=0;pointerEvents=1;fontSize=16;fontColor=#ffffff;" vertex="1" parent="HpR2BSxGtMljKJ589372-6">
          <mxGeometry x="150" width="30" height="29" as="geometry">
            <mxRectangle width="30" height="29" as="alternateBounds" />
          </mxGeometry>
        </mxCell>
        <mxCell id="HpR2BSxGtMljKJ589372-24" value="0" style="shape=partialRectangle;html=1;whiteSpace=wrap;connectable=0;strokeColor=#2D7600;overflow=hidden;fillColor=#60a917;top=0;left=0;bottom=0;right=0;pointerEvents=1;fontSize=16;fontColor=#ffffff;" vertex="1" parent="HpR2BSxGtMljKJ589372-6">
          <mxGeometry x="180" width="30" height="29" as="geometry">
            <mxRectangle width="30" height="29" as="alternateBounds" />
          </mxGeometry>
        </mxCell>
        <mxCell id="HpR2BSxGtMljKJ589372-27" value="0" style="shape=partialRectangle;html=1;whiteSpace=wrap;connectable=0;strokeColor=#2D7600;overflow=hidden;fillColor=#60a917;top=0;left=0;bottom=0;right=0;pointerEvents=1;fontSize=16;fontColor=#ffffff;" vertex="1" parent="HpR2BSxGtMljKJ589372-6">
          <mxGeometry x="210" width="30" height="29" as="geometry">
            <mxRectangle width="30" height="29" as="alternateBounds" />
          </mxGeometry>
        </mxCell>
        <mxCell id="HpR2BSxGtMljKJ589372-10" value="" style="shape=tableRow;horizontal=0;startSize=0;swimlaneHead=0;swimlaneBody=0;strokeColor=inherit;top=0;left=0;bottom=0;right=0;collapsible=0;dropTarget=0;fillColor=none;points=[[0,0.5],[1,0.5]];portConstraint=eastwest;fontSize=16;" vertex="1" parent="HpR2BSxGtMljKJ589372-1">
          <mxGeometry y="60" width="240" height="31" as="geometry" />
        </mxCell>
        <mxCell id="HpR2BSxGtMljKJ589372-11" value="0" style="shape=partialRectangle;html=1;whiteSpace=wrap;connectable=0;strokeColor=#2D7600;overflow=hidden;fillColor=#60a917;top=0;left=0;bottom=0;right=0;pointerEvents=1;fontSize=16;fontColor=#ffffff;" vertex="1" parent="HpR2BSxGtMljKJ589372-10">
          <mxGeometry width="30" height="31" as="geometry">
            <mxRectangle width="30" height="31" as="alternateBounds" />
          </mxGeometry>
        </mxCell>
        <mxCell id="HpR2BSxGtMljKJ589372-12" value="0" style="shape=partialRectangle;html=1;whiteSpace=wrap;connectable=0;strokeColor=#2D7600;overflow=hidden;fillColor=#60a917;top=0;left=0;bottom=0;right=0;pointerEvents=1;fontSize=16;fontColor=#ffffff;" vertex="1" parent="HpR2BSxGtMljKJ589372-10">
          <mxGeometry x="30" width="30" height="31" as="geometry">
            <mxRectangle width="30" height="31" as="alternateBounds" />
          </mxGeometry>
        </mxCell>
        <mxCell id="HpR2BSxGtMljKJ589372-13" value="0" style="shape=partialRectangle;html=1;whiteSpace=wrap;connectable=0;strokeColor=#2D7600;overflow=hidden;fillColor=#60a917;top=0;left=0;bottom=0;right=0;pointerEvents=1;fontSize=16;fontColor=#ffffff;" vertex="1" parent="HpR2BSxGtMljKJ589372-10">
          <mxGeometry x="60" width="30" height="31" as="geometry">
            <mxRectangle width="30" height="31" as="alternateBounds" />
          </mxGeometry>
        </mxCell>
        <mxCell id="HpR2BSxGtMljKJ589372-16" value="0" style="shape=partialRectangle;html=1;whiteSpace=wrap;connectable=0;strokeColor=#2D7600;overflow=hidden;fillColor=#60a917;top=0;left=0;bottom=0;right=0;pointerEvents=1;fontSize=16;fontColor=#ffffff;" vertex="1" parent="HpR2BSxGtMljKJ589372-10">
          <mxGeometry x="90" width="30" height="31" as="geometry">
            <mxRectangle width="30" height="31" as="alternateBounds" />
          </mxGeometry>
        </mxCell>
        <mxCell id="HpR2BSxGtMljKJ589372-19" value="0" style="shape=partialRectangle;html=1;whiteSpace=wrap;connectable=0;strokeColor=#2D7600;overflow=hidden;fillColor=#60a917;top=0;left=0;bottom=0;right=0;pointerEvents=1;fontSize=16;fontColor=#ffffff;" vertex="1" parent="HpR2BSxGtMljKJ589372-10">
          <mxGeometry x="120" width="30" height="31" as="geometry">
            <mxRectangle width="30" height="31" as="alternateBounds" />
          </mxGeometry>
        </mxCell>
        <mxCell id="HpR2BSxGtMljKJ589372-22" value="0" style="shape=partialRectangle;html=1;whiteSpace=wrap;connectable=0;strokeColor=#2D7600;overflow=hidden;fillColor=#60a917;top=0;left=0;bottom=0;right=0;pointerEvents=1;fontSize=16;fontColor=#ffffff;" vertex="1" parent="HpR2BSxGtMljKJ589372-10">
          <mxGeometry x="150" width="30" height="31" as="geometry">
            <mxRectangle width="30" height="31" as="alternateBounds" />
          </mxGeometry>
        </mxCell>
        <mxCell id="HpR2BSxGtMljKJ589372-25" value="0" style="shape=partialRectangle;html=1;whiteSpace=wrap;connectable=0;strokeColor=#2D7600;overflow=hidden;fillColor=#60a917;top=0;left=0;bottom=0;right=0;pointerEvents=1;fontSize=16;fontColor=#ffffff;" vertex="1" parent="HpR2BSxGtMljKJ589372-10">
          <mxGeometry x="180" width="30" height="31" as="geometry">
            <mxRectangle width="30" height="31" as="alternateBounds" />
          </mxGeometry>
        </mxCell>
        <mxCell id="HpR2BSxGtMljKJ589372-28" value="0" style="shape=partialRectangle;html=1;whiteSpace=wrap;connectable=0;strokeColor=#2D7600;overflow=hidden;fillColor=#60a917;top=0;left=0;bottom=0;right=0;pointerEvents=1;fontSize=16;fontColor=#ffffff;" vertex="1" parent="HpR2BSxGtMljKJ589372-10">
          <mxGeometry x="210" width="30" height="31" as="geometry">
            <mxRectangle width="30" height="31" as="alternateBounds" />
          </mxGeometry>
        </mxCell>
        <mxCell id="HpR2BSxGtMljKJ589372-29" style="shape=tableRow;horizontal=0;startSize=0;swimlaneHead=0;swimlaneBody=0;strokeColor=inherit;top=0;left=0;bottom=0;right=0;collapsible=0;dropTarget=0;fillColor=none;points=[[0,0.5],[1,0.5]];portConstraint=eastwest;fontSize=16;" vertex="1" parent="HpR2BSxGtMljKJ589372-1">
          <mxGeometry y="91" width="240" height="29" as="geometry" />
        </mxCell>
        <mxCell id="HpR2BSxGtMljKJ589372-30" value="..." style="shape=partialRectangle;html=1;whiteSpace=wrap;connectable=0;strokeColor=#2D7600;overflow=hidden;fillColor=#60a917;top=0;left=0;bottom=0;right=0;pointerEvents=1;fontSize=16;fontColor=#ffffff;" vertex="1" parent="HpR2BSxGtMljKJ589372-29">
          <mxGeometry width="30" height="29" as="geometry">
            <mxRectangle width="30" height="29" as="alternateBounds" />
          </mxGeometry>
        </mxCell>
        <mxCell id="HpR2BSxGtMljKJ589372-31" value="..." style="shape=partialRectangle;html=1;whiteSpace=wrap;connectable=0;strokeColor=#2D7600;overflow=hidden;fillColor=#60a917;top=0;left=0;bottom=0;right=0;pointerEvents=1;fontSize=16;fontColor=#ffffff;" vertex="1" parent="HpR2BSxGtMljKJ589372-29">
          <mxGeometry x="30" width="30" height="29" as="geometry">
            <mxRectangle width="30" height="29" as="alternateBounds" />
          </mxGeometry>
        </mxCell>
        <mxCell id="HpR2BSxGtMljKJ589372-32" value="..." style="shape=partialRectangle;html=1;whiteSpace=wrap;connectable=0;strokeColor=#2D7600;overflow=hidden;fillColor=#60a917;top=0;left=0;bottom=0;right=0;pointerEvents=1;fontSize=16;fontColor=#ffffff;" vertex="1" parent="HpR2BSxGtMljKJ589372-29">
          <mxGeometry x="60" width="30" height="29" as="geometry">
            <mxRectangle width="30" height="29" as="alternateBounds" />
          </mxGeometry>
        </mxCell>
        <mxCell id="HpR2BSxGtMljKJ589372-33" value="..." style="shape=partialRectangle;html=1;whiteSpace=wrap;connectable=0;strokeColor=#2D7600;overflow=hidden;fillColor=#60a917;top=0;left=0;bottom=0;right=0;pointerEvents=1;fontSize=16;fontColor=#ffffff;" vertex="1" parent="HpR2BSxGtMljKJ589372-29">
          <mxGeometry x="90" width="30" height="29" as="geometry">
            <mxRectangle width="30" height="29" as="alternateBounds" />
          </mxGeometry>
        </mxCell>
        <mxCell id="HpR2BSxGtMljKJ589372-34" value="..." style="shape=partialRectangle;html=1;whiteSpace=wrap;connectable=0;strokeColor=#2D7600;overflow=hidden;fillColor=#60a917;top=0;left=0;bottom=0;right=0;pointerEvents=1;fontSize=16;fontColor=#ffffff;" vertex="1" parent="HpR2BSxGtMljKJ589372-29">
          <mxGeometry x="120" width="30" height="29" as="geometry">
            <mxRectangle width="30" height="29" as="alternateBounds" />
          </mxGeometry>
        </mxCell>
        <mxCell id="HpR2BSxGtMljKJ589372-35" value="..." style="shape=partialRectangle;html=1;whiteSpace=wrap;connectable=0;strokeColor=#2D7600;overflow=hidden;fillColor=#60a917;top=0;left=0;bottom=0;right=0;pointerEvents=1;fontSize=16;fontColor=#ffffff;" vertex="1" parent="HpR2BSxGtMljKJ589372-29">
          <mxGeometry x="150" width="30" height="29" as="geometry">
            <mxRectangle width="30" height="29" as="alternateBounds" />
          </mxGeometry>
        </mxCell>
        <mxCell id="HpR2BSxGtMljKJ589372-36" value="..." style="shape=partialRectangle;html=1;whiteSpace=wrap;connectable=0;strokeColor=#2D7600;overflow=hidden;fillColor=#60a917;top=0;left=0;bottom=0;right=0;pointerEvents=1;fontSize=16;fontColor=#ffffff;" vertex="1" parent="HpR2BSxGtMljKJ589372-29">
          <mxGeometry x="180" width="30" height="29" as="geometry">
            <mxRectangle width="30" height="29" as="alternateBounds" />
          </mxGeometry>
        </mxCell>
        <mxCell id="HpR2BSxGtMljKJ589372-37" value="..." style="shape=partialRectangle;html=1;whiteSpace=wrap;connectable=0;strokeColor=#2D7600;overflow=hidden;fillColor=#60a917;top=0;left=0;bottom=0;right=0;pointerEvents=1;fontSize=16;fontColor=#ffffff;" vertex="1" parent="HpR2BSxGtMljKJ589372-29">
          <mxGeometry x="210" width="30" height="29" as="geometry">
            <mxRectangle width="30" height="29" as="alternateBounds" />
          </mxGeometry>
        </mxCell>
        <mxCell id="HpR2BSxGtMljKJ589372-47" value="" style="endArrow=classic;html=1;rounded=0;entryX=1;entryY=0.5;entryDx=0;entryDy=0;exitX=0;exitY=0.5;exitDx=0;exitDy=0;" edge="1" parent="1" source="HpR2BSxGtMljKJ589372-48" target="HpR2BSxGtMljKJ589372-2">
          <mxGeometry width="50" height="50" relative="1" as="geometry">
            <mxPoint x="344" y="56" as="sourcePoint" />
            <mxPoint x="434" y="60" as="targetPoint" />
          </mxGeometry>
        </mxCell>
        <mxCell id="HpR2BSxGtMljKJ589372-48" value="Page = 4K" style="rounded=0;whiteSpace=wrap;html=1;fillColor=#647687;fontColor=#ffffff;strokeColor=#314354;" vertex="1" parent="1">
          <mxGeometry x="344" y="40" width="80" height="30" as="geometry" />
        </mxCell>
        <mxCell id="HpR2BSxGtMljKJ589372-49" value="每个 Bit 用来管理一个&lt;u style=&quot;font-weight: bold;&quot;&gt;物理内存页（并非PTE）&lt;/u&gt;&lt;div style=&quot;line-height: 220%;&quot;&gt;就是单纯的4K大小的内存空间&lt;/div&gt;" style="shape=note;whiteSpace=wrap;html=1;backgroundOutline=1;darkOpacity=0.05;size=12;fillColor=#f0a30a;fontColor=#000000;strokeColor=#BD7000;" vertex="1" parent="1">
          <mxGeometry x="494" y="40" width="290" height="60" as="geometry" />
        </mxCell>
        <mxCell id="HpR2BSxGtMljKJ589372-50" value="" style="endArrow=none;html=1;rounded=0;movable=0;resizable=0;rotatable=0;deletable=0;editable=0;locked=1;connectable=0;" edge="1" parent="1">
          <mxGeometry width="50" height="50" relative="1" as="geometry">
            <mxPoint y="190" as="sourcePoint" />
            <mxPoint x="820" y="190" as="targetPoint" />
          </mxGeometry>
        </mxCell>
        <mxCell id="HpR2BSxGtMljKJ589372-57" value="" style="group" vertex="1" connectable="0" parent="1">
          <mxGeometry x="344" y="120" width="440" height="50" as="geometry" />
        </mxCell>
        <mxCell id="HpR2BSxGtMljKJ589372-56" value="" style="rounded=0;whiteSpace=wrap;html=1;" vertex="1" parent="HpR2BSxGtMljKJ589372-57">
          <mxGeometry width="440" height="50" as="geometry" />
        </mxCell>
        <mxCell id="HpR2BSxGtMljKJ589372-51" value="Start" style="rounded=0;whiteSpace=wrap;html=1;fontFamily=Courier New;fillColor=#6d8764;fontColor=#ffffff;strokeColor=#3A5431;" vertex="1" parent="HpR2BSxGtMljKJ589372-57">
          <mxGeometry x="10" y="10" width="60" height="30" as="geometry" />
        </mxCell>
        <mxCell id="HpR2BSxGtMljKJ589372-52" value="&lt;font face=&quot;Courier New&quot;&gt;Index * PAGE_SIZE&lt;/font&gt;" style="rounded=0;whiteSpace=wrap;html=1;fillColor=#6d8764;fontColor=#ffffff;strokeColor=#3A5431;" vertex="1" parent="HpR2BSxGtMljKJ589372-57">
          <mxGeometry x="110" y="10" width="140" height="30" as="geometry" />
        </mxCell>
        <mxCell id="HpR2BSxGtMljKJ589372-53" value="&lt;font style=&quot;font-size: 20px;&quot;&gt;&lt;b&gt;+&lt;/b&gt;&lt;/font&gt;" style="text;html=1;align=center;verticalAlign=middle;whiteSpace=wrap;rounded=0;" vertex="1" parent="HpR2BSxGtMljKJ589372-57">
          <mxGeometry x="70" y="10" width="40" height="30" as="geometry" />
        </mxCell>
        <mxCell id="HpR2BSxGtMljKJ589372-54" value="&lt;span style=&quot;font-size: 20px;&quot;&gt;&lt;b&gt;=&lt;/b&gt;&lt;/span&gt;" style="text;html=1;align=center;verticalAlign=middle;whiteSpace=wrap;rounded=0;" vertex="1" parent="HpR2BSxGtMljKJ589372-57">
          <mxGeometry x="250" y="10" width="40" height="30" as="geometry" />
        </mxCell>
        <mxCell id="HpR2BSxGtMljKJ589372-55" value="&lt;font face=&quot;Courier New&quot;&gt;Phsical Address&lt;/font&gt;" style="rounded=0;whiteSpace=wrap;html=1;fillColor=#6d8764;fontColor=#ffffff;strokeColor=#3A5431;" vertex="1" parent="HpR2BSxGtMljKJ589372-57">
          <mxGeometry x="290" y="10" width="140" height="30" as="geometry" />
        </mxCell>
        <mxCell id="HpR2BSxGtMljKJ589372-58" value="创建一个完成的进程虚拟内存的过程（以FORK为例）" style="text;html=1;align=center;verticalAlign=middle;whiteSpace=wrap;rounded=0;spacingLeft=4;fontSize=16;fontStyle=1" vertex="1" parent="1">
          <mxGeometry x="207" y="190" width="414" height="40" as="geometry" />
        </mxCell>
        <mxCell id="HpR2BSxGtMljKJ589372-80" value="" style="edgeStyle=orthogonalEdgeStyle;rounded=0;orthogonalLoop=1;jettySize=auto;html=1;" edge="1" parent="1" source="HpR2BSxGtMljKJ589372-78" target="HpR2BSxGtMljKJ589372-79">
          <mxGeometry relative="1" as="geometry" />
        </mxCell>
        <mxCell id="HpR2BSxGtMljKJ589372-81" value="申请一页物理内存" style="edgeLabel;html=1;align=center;verticalAlign=middle;resizable=0;points=[];" vertex="1" connectable="0" parent="HpR2BSxGtMljKJ589372-80">
          <mxGeometry x="0.1056" y="-2" relative="1" as="geometry">
            <mxPoint x="-8" y="-2" as="offset" />
          </mxGeometry>
        </mxCell>
        <mxCell id="HpR2BSxGtMljKJ589372-78" value="位图" style="rounded=0;whiteSpace=wrap;html=1;fillColor=#6d8764;fontColor=#ffffff;strokeColor=#3A5431;" vertex="1" parent="1">
          <mxGeometry x="160" y="295" width="80" height="40" as="geometry" />
        </mxCell>
        <mxCell id="HpR2BSxGtMljKJ589372-83" style="edgeStyle=orthogonalEdgeStyle;rounded=0;orthogonalLoop=1;jettySize=auto;html=1;" edge="1" parent="1" source="HpR2BSxGtMljKJ589372-79" target="HpR2BSxGtMljKJ589372-82">
          <mxGeometry relative="1" as="geometry" />
        </mxCell>
        <mxCell id="HpR2BSxGtMljKJ589372-84" value="存放所有PDE" style="edgeLabel;html=1;align=center;verticalAlign=middle;resizable=0;points=[];" vertex="1" connectable="0" parent="HpR2BSxGtMljKJ589372-83">
          <mxGeometry x="-0.0505" relative="1" as="geometry">
            <mxPoint as="offset" />
          </mxGeometry>
        </mxCell>
        <mxCell id="HpR2BSxGtMljKJ589372-79" value="Page" style="rounded=0;whiteSpace=wrap;html=1;fillColor=#647687;fontColor=#ffffff;strokeColor=#314354;" vertex="1" parent="1">
          <mxGeometry x="380" y="295" width="80" height="40" as="geometry" />
        </mxCell>
        <mxCell id="HpR2BSxGtMljKJ589372-85" value="" style="group;fillColor=#a0522d;fontColor=#ffffff;strokeColor=#6D1F00;" vertex="1" connectable="0" parent="1">
          <mxGeometry x="610" y="270" width="120" height="90" as="geometry" />
        </mxCell>
        <mxCell id="HpR2BSxGtMljKJ589372-82" value="" style="rounded=0;whiteSpace=wrap;html=1;" vertex="1" parent="HpR2BSxGtMljKJ589372-85">
          <mxGeometry width="120" height="90" as="geometry" />
        </mxCell>
        <mxCell id="HpR2BSxGtMljKJ589372-59" value="" style="shape=table;startSize=0;container=1;collapsible=0;childLayout=tableLayout;fontSize=16;fillColor=#a0522d;fontColor=#ffffff;strokeColor=#6D1F00;" vertex="1" parent="HpR2BSxGtMljKJ589372-85">
          <mxGeometry width="120" height="90" as="geometry" />
        </mxCell>
        <mxCell id="HpR2BSxGtMljKJ589372-60" value="" style="shape=tableRow;horizontal=0;startSize=0;swimlaneHead=0;swimlaneBody=0;strokeColor=inherit;top=0;left=0;bottom=0;right=0;collapsible=0;dropTarget=0;fillColor=none;points=[[0,0.5],[1,0.5]];portConstraint=eastwest;fontSize=16;" vertex="1" parent="HpR2BSxGtMljKJ589372-59">
          <mxGeometry width="120" height="22" as="geometry" />
        </mxCell>
        <mxCell id="HpR2BSxGtMljKJ589372-61" value="PDE 0" style="shape=partialRectangle;html=1;whiteSpace=wrap;connectable=0;strokeColor=inherit;overflow=hidden;fillColor=none;top=0;left=0;bottom=0;right=0;pointerEvents=1;fontSize=12;" vertex="1" parent="HpR2BSxGtMljKJ589372-60">
          <mxGeometry width="120" height="22" as="geometry">
            <mxRectangle width="120" height="22" as="alternateBounds" />
          </mxGeometry>
        </mxCell>
        <mxCell id="HpR2BSxGtMljKJ589372-64" value="" style="shape=tableRow;horizontal=0;startSize=0;swimlaneHead=0;swimlaneBody=0;strokeColor=inherit;top=0;left=0;bottom=0;right=0;collapsible=0;dropTarget=0;fillColor=none;points=[[0,0.5],[1,0.5]];portConstraint=eastwest;fontSize=16;" vertex="1" parent="HpR2BSxGtMljKJ589372-59">
          <mxGeometry y="22" width="120" height="23" as="geometry" />
        </mxCell>
        <mxCell id="HpR2BSxGtMljKJ589372-65" value="PDE 1" style="shape=partialRectangle;html=1;whiteSpace=wrap;connectable=0;strokeColor=inherit;overflow=hidden;fillColor=none;top=0;left=0;bottom=0;right=0;pointerEvents=1;fontSize=12;" vertex="1" parent="HpR2BSxGtMljKJ589372-64">
          <mxGeometry width="120" height="23" as="geometry">
            <mxRectangle width="120" height="23" as="alternateBounds" />
          </mxGeometry>
        </mxCell>
        <mxCell id="HpR2BSxGtMljKJ589372-68" value="" style="shape=tableRow;horizontal=0;startSize=0;swimlaneHead=0;swimlaneBody=0;strokeColor=inherit;top=0;left=0;bottom=0;right=0;collapsible=0;dropTarget=0;fillColor=none;points=[[0,0.5],[1,0.5]];portConstraint=eastwest;fontSize=16;" vertex="1" parent="HpR2BSxGtMljKJ589372-59">
          <mxGeometry y="45" width="120" height="23" as="geometry" />
        </mxCell>
        <mxCell id="HpR2BSxGtMljKJ589372-69" value="..." style="shape=partialRectangle;html=1;whiteSpace=wrap;connectable=0;strokeColor=inherit;overflow=hidden;fillColor=none;top=0;left=0;bottom=0;right=0;pointerEvents=1;fontSize=12;" vertex="1" parent="HpR2BSxGtMljKJ589372-68">
          <mxGeometry width="120" height="23" as="geometry">
            <mxRectangle width="120" height="23" as="alternateBounds" />
          </mxGeometry>
        </mxCell>
        <mxCell id="HpR2BSxGtMljKJ589372-76" style="shape=tableRow;horizontal=0;startSize=0;swimlaneHead=0;swimlaneBody=0;strokeColor=inherit;top=0;left=0;bottom=0;right=0;collapsible=0;dropTarget=0;fillColor=none;points=[[0,0.5],[1,0.5]];portConstraint=eastwest;fontSize=16;" vertex="1" parent="HpR2BSxGtMljKJ589372-59">
          <mxGeometry y="68" width="120" height="22" as="geometry" />
        </mxCell>
        <mxCell id="HpR2BSxGtMljKJ589372-77" value="PDE 1023" style="shape=partialRectangle;html=1;whiteSpace=wrap;connectable=0;strokeColor=inherit;overflow=hidden;fillColor=none;top=0;left=0;bottom=0;right=0;pointerEvents=1;fontSize=12;" vertex="1" parent="HpR2BSxGtMljKJ589372-76">
          <mxGeometry width="120" height="22" as="geometry">
            <mxRectangle width="120" height="22" as="alternateBounds" />
          </mxGeometry>
        </mxCell>
        <mxCell id="CBEQ6D1oWAcKs2kqTUA8-1" value="" style="endArrow=none;html=1;rounded=0;" edge="1" parent="1">
          <mxGeometry width="50" height="50" relative="1" as="geometry">
            <mxPoint y="230" as="sourcePoint" />
            <mxPoint x="820" y="230" as="targetPoint" />
          </mxGeometry>
        </mxCell>
        <mxCell id="CBEQ6D1oWAcKs2kqTUA8-2" value="" style="endArrow=none;html=1;rounded=0;" edge="1" parent="1">
          <mxGeometry width="50" height="50" relative="1" as="geometry">
            <mxPoint x="120" y="890" as="sourcePoint" />
            <mxPoint x="120" y="230" as="targetPoint" />
          </mxGeometry>
        </mxCell>
        <mxCell id="CBEQ6D1oWAcKs2kqTUA8-3" value="1. 创建页目录" style="text;html=1;align=center;verticalAlign=middle;whiteSpace=wrap;rounded=0;" vertex="1" parent="1">
          <mxGeometry x="10" y="300" width="90" height="30" as="geometry" />
        </mxCell>
        <mxCell id="CBEQ6D1oWAcKs2kqTUA8-4" value="" style="endArrow=none;html=1;rounded=0;" edge="1" parent="1">
          <mxGeometry width="50" height="50" relative="1" as="geometry">
            <mxPoint y="380" as="sourcePoint" />
            <mxPoint x="820" y="380" as="targetPoint" />
          </mxGeometry>
        </mxCell>
        <mxCell id="CBEQ6D1oWAcKs2kqTUA8-5" value="2. 映射内核&lt;span style=&quot;background-color: initial;&quot;&gt;页&lt;/span&gt;" style="text;html=1;align=center;verticalAlign=middle;whiteSpace=wrap;rounded=0;" vertex="1" parent="1">
          <mxGeometry x="10" y="485" width="90" height="30" as="geometry" />
        </mxCell>
        <mxCell id="CBEQ6D1oWAcKs2kqTUA8-30" style="edgeStyle=orthogonalEdgeStyle;rounded=0;orthogonalLoop=1;jettySize=auto;html=1;" edge="1" parent="1" source="CBEQ6D1oWAcKs2kqTUA8-26" target="CBEQ6D1oWAcKs2kqTUA8-7">
          <mxGeometry relative="1" as="geometry" />
        </mxCell>
        <mxCell id="CBEQ6D1oWAcKs2kqTUA8-31" value="复制内核页目录项" style="edgeLabel;html=1;align=center;verticalAlign=middle;resizable=0;points=[];" vertex="1" connectable="0" parent="CBEQ6D1oWAcKs2kqTUA8-30">
          <mxGeometry x="0.0262" relative="1" as="geometry">
            <mxPoint x="-5" as="offset" />
          </mxGeometry>
        </mxCell>
        <mxCell id="CBEQ6D1oWAcKs2kqTUA8-26" value="Kernel Pdes" style="rounded=0;whiteSpace=wrap;html=1;fillColor=#6d8764;fontColor=#ffffff;strokeColor=#3A5431;" vertex="1" parent="1">
          <mxGeometry x="160" y="480" width="80" height="40" as="geometry" />
        </mxCell>
        <mxCell id="CBEQ6D1oWAcKs2kqTUA8-32" value="" style="shape=table;startSize=0;container=1;collapsible=0;childLayout=tableLayout;fontSize=16;fillColor=#a0522d;fontColor=#ffffff;strokeColor=#6D1F00;" vertex="1" parent="1">
          <mxGeometry x="610" y="430" width="120" height="140" as="geometry" />
        </mxCell>
        <mxCell id="CBEQ6D1oWAcKs2kqTUA8-33" value="" style="shape=tableRow;horizontal=0;startSize=0;swimlaneHead=0;swimlaneBody=0;strokeColor=inherit;top=0;left=0;bottom=0;right=0;collapsible=0;dropTarget=0;fillColor=none;points=[[0,0.5],[1,0.5]];portConstraint=eastwest;fontSize=16;" vertex="1" parent="CBEQ6D1oWAcKs2kqTUA8-32">
          <mxGeometry width="120" height="23" as="geometry" />
        </mxCell>
        <mxCell id="CBEQ6D1oWAcKs2kqTUA8-34" value="PDE 0" style="shape=partialRectangle;html=1;whiteSpace=wrap;connectable=0;strokeColor=#3A5431;overflow=hidden;fillColor=#6d8764;top=0;left=0;bottom=0;right=0;pointerEvents=1;fontSize=12;fontColor=#ffffff;" vertex="1" parent="CBEQ6D1oWAcKs2kqTUA8-33">
          <mxGeometry width="120" height="23" as="geometry">
            <mxRectangle width="120" height="23" as="alternateBounds" />
          </mxGeometry>
        </mxCell>
        <mxCell id="CBEQ6D1oWAcKs2kqTUA8-35" value="" style="shape=tableRow;horizontal=0;startSize=0;swimlaneHead=0;swimlaneBody=0;strokeColor=inherit;top=0;left=0;bottom=0;right=0;collapsible=0;dropTarget=0;fillColor=none;points=[[0,0.5],[1,0.5]];portConstraint=eastwest;fontSize=16;" vertex="1" parent="CBEQ6D1oWAcKs2kqTUA8-32">
          <mxGeometry y="23" width="120" height="23" as="geometry" />
        </mxCell>
        <mxCell id="CBEQ6D1oWAcKs2kqTUA8-36" value="PDE 1" style="shape=partialRectangle;html=1;whiteSpace=wrap;connectable=0;strokeColor=#3A5431;overflow=hidden;fillColor=#6d8764;top=0;left=0;bottom=0;right=0;pointerEvents=1;fontSize=12;fontColor=#ffffff;" vertex="1" parent="CBEQ6D1oWAcKs2kqTUA8-35">
          <mxGeometry width="120" height="23" as="geometry">
            <mxRectangle width="120" height="23" as="alternateBounds" />
          </mxGeometry>
        </mxCell>
        <mxCell id="CBEQ6D1oWAcKs2kqTUA8-37" style="shape=tableRow;horizontal=0;startSize=0;swimlaneHead=0;swimlaneBody=0;strokeColor=inherit;top=0;left=0;bottom=0;right=0;collapsible=0;dropTarget=0;fillColor=none;points=[[0,0.5],[1,0.5]];portConstraint=eastwest;fontSize=16;" vertex="1" parent="CBEQ6D1oWAcKs2kqTUA8-32">
          <mxGeometry y="46" width="120" height="24" as="geometry" />
        </mxCell>
        <mxCell id="CBEQ6D1oWAcKs2kqTUA8-38" value="..." style="shape=partialRectangle;html=1;whiteSpace=wrap;connectable=0;strokeColor=inherit;overflow=hidden;fillColor=none;top=0;left=0;bottom=0;right=0;pointerEvents=1;fontSize=12;" vertex="1" parent="CBEQ6D1oWAcKs2kqTUA8-37">
          <mxGeometry width="120" height="24" as="geometry">
            <mxRectangle width="120" height="24" as="alternateBounds" />
          </mxGeometry>
        </mxCell>
        <mxCell id="CBEQ6D1oWAcKs2kqTUA8-39" style="shape=tableRow;horizontal=0;startSize=0;swimlaneHead=0;swimlaneBody=0;strokeColor=inherit;top=0;left=0;bottom=0;right=0;collapsible=0;dropTarget=0;fillColor=none;points=[[0,0.5],[1,0.5]];portConstraint=eastwest;fontSize=16;" vertex="1" parent="CBEQ6D1oWAcKs2kqTUA8-32">
          <mxGeometry y="70" width="120" height="24" as="geometry" />
        </mxCell>
        <mxCell id="CBEQ6D1oWAcKs2kqTUA8-40" value="PDE n" style="shape=partialRectangle;html=1;whiteSpace=wrap;connectable=0;strokeColor=inherit;overflow=hidden;fillColor=none;top=0;left=0;bottom=0;right=0;pointerEvents=1;fontSize=12;" vertex="1" parent="CBEQ6D1oWAcKs2kqTUA8-39">
          <mxGeometry width="120" height="24" as="geometry">
            <mxRectangle width="120" height="24" as="alternateBounds" />
          </mxGeometry>
        </mxCell>
        <mxCell id="CBEQ6D1oWAcKs2kqTUA8-41" value="" style="shape=tableRow;horizontal=0;startSize=0;swimlaneHead=0;swimlaneBody=0;strokeColor=inherit;top=0;left=0;bottom=0;right=0;collapsible=0;dropTarget=0;fillColor=none;points=[[0,0.5],[1,0.5]];portConstraint=eastwest;fontSize=16;" vertex="1" parent="CBEQ6D1oWAcKs2kqTUA8-32">
          <mxGeometry y="94" width="120" height="23" as="geometry" />
        </mxCell>
        <mxCell id="CBEQ6D1oWAcKs2kqTUA8-42" value="..." style="shape=partialRectangle;html=1;whiteSpace=wrap;connectable=0;strokeColor=inherit;overflow=hidden;fillColor=none;top=0;left=0;bottom=0;right=0;pointerEvents=1;fontSize=12;" vertex="1" parent="CBEQ6D1oWAcKs2kqTUA8-41">
          <mxGeometry width="120" height="23" as="geometry">
            <mxRectangle width="120" height="23" as="alternateBounds" />
          </mxGeometry>
        </mxCell>
        <mxCell id="CBEQ6D1oWAcKs2kqTUA8-43" style="shape=tableRow;horizontal=0;startSize=0;swimlaneHead=0;swimlaneBody=0;strokeColor=inherit;top=0;left=0;bottom=0;right=0;collapsible=0;dropTarget=0;fillColor=none;points=[[0,0.5],[1,0.5]];portConstraint=eastwest;fontSize=16;" vertex="1" parent="CBEQ6D1oWAcKs2kqTUA8-32">
          <mxGeometry y="117" width="120" height="23" as="geometry" />
        </mxCell>
        <mxCell id="CBEQ6D1oWAcKs2kqTUA8-44" value="PDE 1023" style="shape=partialRectangle;html=1;whiteSpace=wrap;connectable=0;strokeColor=inherit;overflow=hidden;fillColor=none;top=0;left=0;bottom=0;right=0;pointerEvents=1;fontSize=12;" vertex="1" parent="CBEQ6D1oWAcKs2kqTUA8-43">
          <mxGeometry width="120" height="23" as="geometry">
            <mxRectangle width="120" height="23" as="alternateBounds" />
          </mxGeometry>
        </mxCell>
        <mxCell id="CBEQ6D1oWAcKs2kqTUA8-45" value="" style="shape=flexArrow;endArrow=classic;html=1;rounded=0;fillColor=#6d8764;strokeColor=#3A5431;" edge="1" parent="1">
          <mxGeometry width="50" height="50" relative="1" as="geometry">
            <mxPoint x="520" y="499.71000000000004" as="sourcePoint" />
            <mxPoint x="570" y="499.71000000000004" as="targetPoint" />
          </mxGeometry>
        </mxCell>
        <mxCell id="CBEQ6D1oWAcKs2kqTUA8-46" value="" style="endArrow=classic;html=1;rounded=0;entryX=1.003;entryY=0.012;entryDx=0;entryDy=0;entryPerimeter=0;" edge="1" parent="1" target="CBEQ6D1oWAcKs2kqTUA8-37">
          <mxGeometry width="50" height="50" relative="1" as="geometry">
            <mxPoint x="800" y="476" as="sourcePoint" />
            <mxPoint x="810" y="510" as="targetPoint" />
          </mxGeometry>
        </mxCell>
        <mxCell id="CBEQ6D1oWAcKs2kqTUA8-47" value="&lt;font color=&quot;#a8cc7c&quot; style=&quot;font-size: 9px;&quot;&gt;VM_TASK_BASE&lt;/font&gt;" style="text;html=1;align=center;verticalAlign=middle;whiteSpace=wrap;rounded=0;fontSize=9;" vertex="1" parent="1">
          <mxGeometry x="750" y="460" width="70" height="20" as="geometry" />
        </mxCell>
        <mxCell id="CBEQ6D1oWAcKs2kqTUA8-48" value="" style="endArrow=none;html=1;rounded=0;" edge="1" parent="1">
          <mxGeometry width="50" height="50" relative="1" as="geometry">
            <mxPoint y="600" as="sourcePoint" />
            <mxPoint x="820" y="600" as="targetPoint" />
          </mxGeometry>
        </mxCell>
        <mxCell id="CBEQ6D1oWAcKs2kqTUA8-49" value="3. 映射用户页" style="text;html=1;align=center;verticalAlign=middle;whiteSpace=wrap;rounded=0;" vertex="1" parent="1">
          <mxGeometry x="10" y="740" width="90" height="30" as="geometry" />
        </mxCell>
        <mxCell id="CBEQ6D1oWAcKs2kqTUA8-52" style="edgeStyle=orthogonalEdgeStyle;rounded=0;orthogonalLoop=1;jettySize=auto;html=1;entryX=0;entryY=0.5;entryDx=0;entryDy=0;" edge="1" parent="1" source="CBEQ6D1oWAcKs2kqTUA8-50" target="CBEQ6D1oWAcKs2kqTUA8-51">
          <mxGeometry relative="1" as="geometry" />
        </mxCell>
        <mxCell id="CBEQ6D1oWAcKs2kqTUA8-53" value="申请一页物理内存" style="edgeLabel;html=1;align=center;verticalAlign=middle;resizable=0;points=[];" vertex="1" connectable="0" parent="CBEQ6D1oWAcKs2kqTUA8-52">
          <mxGeometry x="-0.0878" y="1" relative="1" as="geometry">
            <mxPoint as="offset" />
          </mxGeometry>
        </mxCell>
        <mxCell id="CBEQ6D1oWAcKs2kqTUA8-50" value="位图" style="rounded=0;whiteSpace=wrap;html=1;fillColor=#6d8764;fontColor=#ffffff;strokeColor=#3A5431;" vertex="1" parent="1">
          <mxGeometry x="180" y="805" width="80" height="40" as="geometry" />
        </mxCell>
        <mxCell id="CBEQ6D1oWAcKs2kqTUA8-64" style="edgeStyle=orthogonalEdgeStyle;rounded=0;orthogonalLoop=1;jettySize=auto;html=1;entryX=0;entryY=0.5;entryDx=0;entryDy=0;" edge="1" parent="1" source="CBEQ6D1oWAcKs2kqTUA8-51" target="CBEQ6D1oWAcKs2kqTUA8-63">
          <mxGeometry relative="1" as="geometry" />
        </mxCell>
        <mxCell id="CBEQ6D1oWAcKs2kqTUA8-65" value="存放所有PTE" style="edgeLabel;html=1;align=center;verticalAlign=middle;resizable=0;points=[];" vertex="1" connectable="0" parent="CBEQ6D1oWAcKs2kqTUA8-64">
          <mxGeometry x="-0.1913" y="1" relative="1" as="geometry">
            <mxPoint as="offset" />
          </mxGeometry>
        </mxCell>
        <mxCell id="CBEQ6D1oWAcKs2kqTUA8-51" value="Page" style="rounded=0;whiteSpace=wrap;html=1;fillColor=#647687;fontColor=#ffffff;strokeColor=#314354;" vertex="1" parent="1">
          <mxGeometry x="400" y="805" width="80" height="40" as="geometry" />
        </mxCell>
        <mxCell id="CBEQ6D1oWAcKs2kqTUA8-54" value="" style="shape=table;startSize=0;container=1;collapsible=0;childLayout=tableLayout;fontSize=16;fillColor=#a20025;fontColor=#ffffff;strokeColor=#6F0000;" vertex="1" parent="1">
          <mxGeometry x="630" y="780" width="120" height="90" as="geometry" />
        </mxCell>
        <mxCell id="CBEQ6D1oWAcKs2kqTUA8-55" value="" style="shape=tableRow;horizontal=0;startSize=0;swimlaneHead=0;swimlaneBody=0;strokeColor=inherit;top=0;left=0;bottom=0;right=0;collapsible=0;dropTarget=0;fillColor=none;points=[[0,0.5],[1,0.5]];portConstraint=eastwest;fontSize=16;" vertex="1" parent="CBEQ6D1oWAcKs2kqTUA8-54">
          <mxGeometry width="120" height="22" as="geometry" />
        </mxCell>
        <mxCell id="CBEQ6D1oWAcKs2kqTUA8-56" value="PTE 0" style="shape=partialRectangle;html=1;whiteSpace=wrap;connectable=0;strokeColor=inherit;overflow=hidden;fillColor=none;top=0;left=0;bottom=0;right=0;pointerEvents=1;fontSize=12;" vertex="1" parent="CBEQ6D1oWAcKs2kqTUA8-55">
          <mxGeometry width="120" height="22" as="geometry">
            <mxRectangle width="120" height="22" as="alternateBounds" />
          </mxGeometry>
        </mxCell>
        <mxCell id="CBEQ6D1oWAcKs2kqTUA8-57" value="" style="shape=tableRow;horizontal=0;startSize=0;swimlaneHead=0;swimlaneBody=0;strokeColor=inherit;top=0;left=0;bottom=0;right=0;collapsible=0;dropTarget=0;fillColor=none;points=[[0,0.5],[1,0.5]];portConstraint=eastwest;fontSize=16;" vertex="1" parent="CBEQ6D1oWAcKs2kqTUA8-54">
          <mxGeometry y="22" width="120" height="23" as="geometry" />
        </mxCell>
        <mxCell id="CBEQ6D1oWAcKs2kqTUA8-58" value="PTE 1" style="shape=partialRectangle;html=1;whiteSpace=wrap;connectable=0;strokeColor=inherit;overflow=hidden;fillColor=none;top=0;left=0;bottom=0;right=0;pointerEvents=1;fontSize=12;" vertex="1" parent="CBEQ6D1oWAcKs2kqTUA8-57">
          <mxGeometry width="120" height="23" as="geometry">
            <mxRectangle width="120" height="23" as="alternateBounds" />
          </mxGeometry>
        </mxCell>
        <mxCell id="CBEQ6D1oWAcKs2kqTUA8-59" value="" style="shape=tableRow;horizontal=0;startSize=0;swimlaneHead=0;swimlaneBody=0;strokeColor=inherit;top=0;left=0;bottom=0;right=0;collapsible=0;dropTarget=0;fillColor=none;points=[[0,0.5],[1,0.5]];portConstraint=eastwest;fontSize=16;" vertex="1" parent="CBEQ6D1oWAcKs2kqTUA8-54">
          <mxGeometry y="45" width="120" height="23" as="geometry" />
        </mxCell>
        <mxCell id="CBEQ6D1oWAcKs2kqTUA8-60" value="..." style="shape=partialRectangle;html=1;whiteSpace=wrap;connectable=0;strokeColor=inherit;overflow=hidden;fillColor=none;top=0;left=0;bottom=0;right=0;pointerEvents=1;fontSize=12;" vertex="1" parent="CBEQ6D1oWAcKs2kqTUA8-59">
          <mxGeometry width="120" height="23" as="geometry">
            <mxRectangle width="120" height="23" as="alternateBounds" />
          </mxGeometry>
        </mxCell>
        <mxCell id="CBEQ6D1oWAcKs2kqTUA8-61" style="shape=tableRow;horizontal=0;startSize=0;swimlaneHead=0;swimlaneBody=0;strokeColor=inherit;top=0;left=0;bottom=0;right=0;collapsible=0;dropTarget=0;fillColor=none;points=[[0,0.5],[1,0.5]];portConstraint=eastwest;fontSize=16;" vertex="1" parent="CBEQ6D1oWAcKs2kqTUA8-54">
          <mxGeometry y="68" width="120" height="22" as="geometry" />
        </mxCell>
        <mxCell id="CBEQ6D1oWAcKs2kqTUA8-62" value="PTE 1023" style="shape=partialRectangle;html=1;whiteSpace=wrap;connectable=0;strokeColor=inherit;overflow=hidden;fillColor=none;top=0;left=0;bottom=0;right=0;pointerEvents=1;fontSize=12;" vertex="1" parent="CBEQ6D1oWAcKs2kqTUA8-61">
          <mxGeometry width="120" height="22" as="geometry">
            <mxRectangle width="120" height="22" as="alternateBounds" />
          </mxGeometry>
        </mxCell>
        <mxCell id="CBEQ6D1oWAcKs2kqTUA8-69" style="edgeStyle=orthogonalEdgeStyle;rounded=0;orthogonalLoop=1;jettySize=auto;html=1;" edge="1" parent="1" source="CBEQ6D1oWAcKs2kqTUA8-66" target="CBEQ6D1oWAcKs2kqTUA8-67">
          <mxGeometry relative="1" as="geometry">
            <Array as="points">
              <mxPoint x="200" y="730" />
              <mxPoint x="670" y="730" />
            </Array>
          </mxGeometry>
        </mxCell>
        <mxCell id="CBEQ6D1oWAcKs2kqTUA8-70" value="从页目录中获取一个页目录项" style="edgeLabel;html=1;align=center;verticalAlign=middle;resizable=0;points=[];" vertex="1" connectable="0" parent="CBEQ6D1oWAcKs2kqTUA8-69">
          <mxGeometry x="0.0007" y="-1" relative="1" as="geometry">
            <mxPoint as="offset" />
          </mxGeometry>
        </mxCell>
        <mxCell id="CBEQ6D1oWAcKs2kqTUA8-66" value="PDEs" style="rounded=0;whiteSpace=wrap;html=1;fillColor=#6d8764;fontColor=#ffffff;strokeColor=#3A5431;" vertex="1" parent="1">
          <mxGeometry x="160" y="670" width="80" height="40" as="geometry" />
        </mxCell>
        <mxCell id="CBEQ6D1oWAcKs2kqTUA8-72" style="edgeStyle=orthogonalEdgeStyle;rounded=0;orthogonalLoop=1;jettySize=auto;html=1;entryX=0.5;entryY=0;entryDx=0;entryDy=0;" edge="1" parent="1" source="CBEQ6D1oWAcKs2kqTUA8-67" target="CBEQ6D1oWAcKs2kqTUA8-66">
          <mxGeometry relative="1" as="geometry">
            <Array as="points">
              <mxPoint x="670" y="650" />
              <mxPoint x="200" y="650" />
            </Array>
          </mxGeometry>
        </mxCell>
        <mxCell id="CBEQ6D1oWAcKs2kqTUA8-73" value="映射下一个页目录项" style="edgeLabel;html=1;align=center;verticalAlign=middle;resizable=0;points=[];" vertex="1" connectable="0" parent="CBEQ6D1oWAcKs2kqTUA8-72">
          <mxGeometry x="-0.0457" y="1" relative="1" as="geometry">
            <mxPoint x="-8" as="offset" />
          </mxGeometry>
        </mxCell>
        <mxCell id="CBEQ6D1oWAcKs2kqTUA8-67" value="PDE" style="rounded=0;whiteSpace=wrap;html=1;fillColor=#6d8764;fontColor=#ffffff;strokeColor=#3A5431;" vertex="1" parent="1">
          <mxGeometry x="630" y="670" width="80" height="40" as="geometry" />
        </mxCell>
        <mxCell id="CBEQ6D1oWAcKs2kqTUA8-71" value="" style="shape=flexArrow;endArrow=classic;html=1;rounded=0;" edge="1" parent="1">
          <mxGeometry width="50" height="50" relative="1" as="geometry">
            <mxPoint x="439.66" y="750" as="sourcePoint" />
            <mxPoint x="439.66" y="800" as="targetPoint" />
          </mxGeometry>
        </mxCell>
        <mxCell id="CBEQ6D1oWAcKs2kqTUA8-74" value="" style="endArrow=none;html=1;rounded=0;" edge="1" parent="1">
          <mxGeometry width="50" height="50" relative="1" as="geometry">
            <mxPoint y="890" as="sourcePoint" />
            <mxPoint x="820" y="890" as="targetPoint" />
          </mxGeometry>
        </mxCell>
        <mxCell id="CBEQ6D1oWAcKs2kqTUA8-75" value="" style="shape=table;startSize=0;container=1;collapsible=0;childLayout=tableLayout;fontSize=16;" vertex="1" parent="1">
          <mxGeometry x="70" y="990" width="320" height="119" as="geometry" />
        </mxCell>
        <mxCell id="CBEQ6D1oWAcKs2kqTUA8-76" value="" style="shape=tableRow;horizontal=0;startSize=0;swimlaneHead=0;swimlaneBody=0;strokeColor=inherit;top=0;left=0;bottom=0;right=0;collapsible=0;dropTarget=0;fillColor=none;points=[[0,0.5],[1,0.5]];portConstraint=eastwest;fontSize=16;" vertex="1" parent="CBEQ6D1oWAcKs2kqTUA8-75">
          <mxGeometry width="320" height="30" as="geometry" />
        </mxCell>
        <mxCell id="CBEQ6D1oWAcKs2kqTUA8-77" value="1" style="shape=partialRectangle;html=1;whiteSpace=wrap;connectable=0;strokeColor=#B20000;overflow=hidden;fillColor=#e51400;top=0;left=0;bottom=0;right=0;pointerEvents=1;fontSize=16;fontColor=#ffffff;" vertex="1" parent="CBEQ6D1oWAcKs2kqTUA8-76">
          <mxGeometry width="40" height="30" as="geometry">
            <mxRectangle width="40" height="30" as="alternateBounds" />
          </mxGeometry>
        </mxCell>
        <mxCell id="CBEQ6D1oWAcKs2kqTUA8-78" value="1" style="shape=partialRectangle;html=1;whiteSpace=wrap;connectable=0;strokeColor=#B20000;overflow=hidden;fillColor=#e51400;top=0;left=0;bottom=0;right=0;pointerEvents=1;fontSize=16;fontColor=#ffffff;" vertex="1" parent="CBEQ6D1oWAcKs2kqTUA8-76">
          <mxGeometry x="40" width="41" height="30" as="geometry">
            <mxRectangle width="41" height="30" as="alternateBounds" />
          </mxGeometry>
        </mxCell>
        <mxCell id="CBEQ6D1oWAcKs2kqTUA8-79" value="1" style="shape=partialRectangle;html=1;whiteSpace=wrap;connectable=0;strokeColor=#B20000;overflow=hidden;fillColor=#e51400;top=0;left=0;bottom=0;right=0;pointerEvents=1;fontSize=16;fontColor=#ffffff;" vertex="1" parent="CBEQ6D1oWAcKs2kqTUA8-76">
          <mxGeometry x="81" width="39" height="30" as="geometry">
            <mxRectangle width="39" height="30" as="alternateBounds" />
          </mxGeometry>
        </mxCell>
        <mxCell id="CBEQ6D1oWAcKs2kqTUA8-80" value="1" style="shape=partialRectangle;html=1;whiteSpace=wrap;connectable=0;strokeColor=#B20000;overflow=hidden;fillColor=#e51400;top=0;left=0;bottom=0;right=0;pointerEvents=1;fontSize=16;fontColor=#ffffff;" vertex="1" parent="CBEQ6D1oWAcKs2kqTUA8-76">
          <mxGeometry x="120" width="40" height="30" as="geometry">
            <mxRectangle width="40" height="30" as="alternateBounds" />
          </mxGeometry>
        </mxCell>
        <mxCell id="CBEQ6D1oWAcKs2kqTUA8-81" value="1" style="shape=partialRectangle;html=1;whiteSpace=wrap;connectable=0;strokeColor=#B20000;overflow=hidden;fillColor=#e51400;top=0;left=0;bottom=0;right=0;pointerEvents=1;fontSize=16;fontColor=#ffffff;" vertex="1" parent="CBEQ6D1oWAcKs2kqTUA8-76">
          <mxGeometry x="160" width="40" height="30" as="geometry">
            <mxRectangle width="40" height="30" as="alternateBounds" />
          </mxGeometry>
        </mxCell>
        <mxCell id="CBEQ6D1oWAcKs2kqTUA8-82" value="1" style="shape=partialRectangle;html=1;whiteSpace=wrap;connectable=0;strokeColor=#B20000;overflow=hidden;fillColor=#e51400;top=0;left=0;bottom=0;right=0;pointerEvents=1;fontSize=16;fontColor=#ffffff;" vertex="1" parent="CBEQ6D1oWAcKs2kqTUA8-76">
          <mxGeometry x="200" width="41" height="30" as="geometry">
            <mxRectangle width="41" height="30" as="alternateBounds" />
          </mxGeometry>
        </mxCell>
        <mxCell id="CBEQ6D1oWAcKs2kqTUA8-83" value="1" style="shape=partialRectangle;html=1;whiteSpace=wrap;connectable=0;strokeColor=#B20000;overflow=hidden;fillColor=#e51400;top=0;left=0;bottom=0;right=0;pointerEvents=1;fontSize=16;fontColor=#ffffff;" vertex="1" parent="CBEQ6D1oWAcKs2kqTUA8-76">
          <mxGeometry x="241" width="39" height="30" as="geometry">
            <mxRectangle width="39" height="30" as="alternateBounds" />
          </mxGeometry>
        </mxCell>
        <mxCell id="CBEQ6D1oWAcKs2kqTUA8-84" value="1" style="shape=partialRectangle;html=1;whiteSpace=wrap;connectable=0;strokeColor=#B20000;overflow=hidden;fillColor=#e51400;top=0;left=0;bottom=0;right=0;pointerEvents=1;fontSize=16;fontColor=#ffffff;" vertex="1" parent="CBEQ6D1oWAcKs2kqTUA8-76">
          <mxGeometry x="280" width="40" height="30" as="geometry">
            <mxRectangle width="40" height="30" as="alternateBounds" />
          </mxGeometry>
        </mxCell>
        <mxCell id="CBEQ6D1oWAcKs2kqTUA8-85" value="" style="shape=tableRow;horizontal=0;startSize=0;swimlaneHead=0;swimlaneBody=0;strokeColor=inherit;top=0;left=0;bottom=0;right=0;collapsible=0;dropTarget=0;fillColor=none;points=[[0,0.5],[1,0.5]];portConstraint=eastwest;fontSize=16;" vertex="1" parent="CBEQ6D1oWAcKs2kqTUA8-75">
          <mxGeometry y="30" width="320" height="29" as="geometry" />
        </mxCell>
        <mxCell id="CBEQ6D1oWAcKs2kqTUA8-86" value="1" style="shape=partialRectangle;html=1;whiteSpace=wrap;connectable=0;strokeColor=#B20000;overflow=hidden;fillColor=#e51400;top=0;left=0;bottom=0;right=0;pointerEvents=1;fontSize=16;fontColor=#ffffff;" vertex="1" parent="CBEQ6D1oWAcKs2kqTUA8-85">
          <mxGeometry width="40" height="29" as="geometry">
            <mxRectangle width="40" height="29" as="alternateBounds" />
          </mxGeometry>
        </mxCell>
        <mxCell id="CBEQ6D1oWAcKs2kqTUA8-87" value="1" style="shape=partialRectangle;html=1;whiteSpace=wrap;connectable=0;strokeColor=#B20000;overflow=hidden;fillColor=#e51400;top=0;left=0;bottom=0;right=0;pointerEvents=1;fontSize=16;fontColor=#ffffff;" vertex="1" parent="CBEQ6D1oWAcKs2kqTUA8-85">
          <mxGeometry x="40" width="41" height="29" as="geometry">
            <mxRectangle width="41" height="29" as="alternateBounds" />
          </mxGeometry>
        </mxCell>
        <mxCell id="CBEQ6D1oWAcKs2kqTUA8-88" value="0" style="shape=partialRectangle;html=1;whiteSpace=wrap;connectable=0;strokeColor=#2D7600;overflow=hidden;fillColor=#60a917;top=0;left=0;bottom=0;right=0;pointerEvents=1;fontSize=16;fontColor=#ffffff;" vertex="1" parent="CBEQ6D1oWAcKs2kqTUA8-85">
          <mxGeometry x="81" width="39" height="29" as="geometry">
            <mxRectangle width="39" height="29" as="alternateBounds" />
          </mxGeometry>
        </mxCell>
        <mxCell id="CBEQ6D1oWAcKs2kqTUA8-89" value="0" style="shape=partialRectangle;html=1;whiteSpace=wrap;connectable=0;strokeColor=#2D7600;overflow=hidden;fillColor=#60a917;top=0;left=0;bottom=0;right=0;pointerEvents=1;fontSize=16;fontColor=#ffffff;" vertex="1" parent="CBEQ6D1oWAcKs2kqTUA8-85">
          <mxGeometry x="120" width="40" height="29" as="geometry">
            <mxRectangle width="40" height="29" as="alternateBounds" />
          </mxGeometry>
        </mxCell>
        <mxCell id="CBEQ6D1oWAcKs2kqTUA8-90" value="0" style="shape=partialRectangle;html=1;whiteSpace=wrap;connectable=0;strokeColor=#2D7600;overflow=hidden;fillColor=#60a917;top=0;left=0;bottom=0;right=0;pointerEvents=1;fontSize=16;fontColor=#ffffff;" vertex="1" parent="CBEQ6D1oWAcKs2kqTUA8-85">
          <mxGeometry x="160" width="40" height="29" as="geometry">
            <mxRectangle width="40" height="29" as="alternateBounds" />
          </mxGeometry>
        </mxCell>
        <mxCell id="CBEQ6D1oWAcKs2kqTUA8-91" value="0" style="shape=partialRectangle;html=1;whiteSpace=wrap;connectable=0;strokeColor=#2D7600;overflow=hidden;fillColor=#60a917;top=0;left=0;bottom=0;right=0;pointerEvents=1;fontSize=16;fontColor=#ffffff;" vertex="1" parent="CBEQ6D1oWAcKs2kqTUA8-85">
          <mxGeometry x="200" width="41" height="29" as="geometry">
            <mxRectangle width="41" height="29" as="alternateBounds" />
          </mxGeometry>
        </mxCell>
        <mxCell id="CBEQ6D1oWAcKs2kqTUA8-92" value="0" style="shape=partialRectangle;html=1;whiteSpace=wrap;connectable=0;strokeColor=#2D7600;overflow=hidden;fillColor=#60a917;top=0;left=0;bottom=0;right=0;pointerEvents=1;fontSize=16;fontColor=#ffffff;" vertex="1" parent="CBEQ6D1oWAcKs2kqTUA8-85">
          <mxGeometry x="241" width="39" height="29" as="geometry">
            <mxRectangle width="39" height="29" as="alternateBounds" />
          </mxGeometry>
        </mxCell>
        <mxCell id="CBEQ6D1oWAcKs2kqTUA8-93" value="0" style="shape=partialRectangle;html=1;whiteSpace=wrap;connectable=0;strokeColor=#2D7600;overflow=hidden;fillColor=#60a917;top=0;left=0;bottom=0;right=0;pointerEvents=1;fontSize=16;fontColor=#ffffff;" vertex="1" parent="CBEQ6D1oWAcKs2kqTUA8-85">
          <mxGeometry x="280" width="40" height="29" as="geometry">
            <mxRectangle width="40" height="29" as="alternateBounds" />
          </mxGeometry>
        </mxCell>
        <mxCell id="CBEQ6D1oWAcKs2kqTUA8-94" value="" style="shape=tableRow;horizontal=0;startSize=0;swimlaneHead=0;swimlaneBody=0;strokeColor=inherit;top=0;left=0;bottom=0;right=0;collapsible=0;dropTarget=0;fillColor=none;points=[[0,0.5],[1,0.5]];portConstraint=eastwest;fontSize=16;" vertex="1" parent="CBEQ6D1oWAcKs2kqTUA8-75">
          <mxGeometry y="59" width="320" height="31" as="geometry" />
        </mxCell>
        <mxCell id="CBEQ6D1oWAcKs2kqTUA8-95" value="0" style="shape=partialRectangle;html=1;whiteSpace=wrap;connectable=0;strokeColor=#2D7600;overflow=hidden;fillColor=#60a917;top=0;left=0;bottom=0;right=0;pointerEvents=1;fontSize=16;fontColor=#ffffff;" vertex="1" parent="CBEQ6D1oWAcKs2kqTUA8-94">
          <mxGeometry width="40" height="31" as="geometry">
            <mxRectangle width="40" height="31" as="alternateBounds" />
          </mxGeometry>
        </mxCell>
        <mxCell id="CBEQ6D1oWAcKs2kqTUA8-96" value="0" style="shape=partialRectangle;html=1;whiteSpace=wrap;connectable=0;strokeColor=#2D7600;overflow=hidden;fillColor=#60a917;top=0;left=0;bottom=0;right=0;pointerEvents=1;fontSize=16;fontColor=#ffffff;" vertex="1" parent="CBEQ6D1oWAcKs2kqTUA8-94">
          <mxGeometry x="40" width="41" height="31" as="geometry">
            <mxRectangle width="41" height="31" as="alternateBounds" />
          </mxGeometry>
        </mxCell>
        <mxCell id="CBEQ6D1oWAcKs2kqTUA8-97" value="0" style="shape=partialRectangle;html=1;whiteSpace=wrap;connectable=0;strokeColor=#2D7600;overflow=hidden;fillColor=#60a917;top=0;left=0;bottom=0;right=0;pointerEvents=1;fontSize=16;fontColor=#ffffff;" vertex="1" parent="CBEQ6D1oWAcKs2kqTUA8-94">
          <mxGeometry x="81" width="39" height="31" as="geometry">
            <mxRectangle width="39" height="31" as="alternateBounds" />
          </mxGeometry>
        </mxCell>
        <mxCell id="CBEQ6D1oWAcKs2kqTUA8-98" value="0" style="shape=partialRectangle;html=1;whiteSpace=wrap;connectable=0;strokeColor=#2D7600;overflow=hidden;fillColor=#60a917;top=0;left=0;bottom=0;right=0;pointerEvents=1;fontSize=16;fontColor=#ffffff;" vertex="1" parent="CBEQ6D1oWAcKs2kqTUA8-94">
          <mxGeometry x="120" width="40" height="31" as="geometry">
            <mxRectangle width="40" height="31" as="alternateBounds" />
          </mxGeometry>
        </mxCell>
        <mxCell id="CBEQ6D1oWAcKs2kqTUA8-99" value="0" style="shape=partialRectangle;html=1;whiteSpace=wrap;connectable=0;strokeColor=#2D7600;overflow=hidden;fillColor=#60a917;top=0;left=0;bottom=0;right=0;pointerEvents=1;fontSize=16;fontColor=#ffffff;" vertex="1" parent="CBEQ6D1oWAcKs2kqTUA8-94">
          <mxGeometry x="160" width="40" height="31" as="geometry">
            <mxRectangle width="40" height="31" as="alternateBounds" />
          </mxGeometry>
        </mxCell>
        <mxCell id="CBEQ6D1oWAcKs2kqTUA8-100" value="0" style="shape=partialRectangle;html=1;whiteSpace=wrap;connectable=0;strokeColor=#2D7600;overflow=hidden;fillColor=#60a917;top=0;left=0;bottom=0;right=0;pointerEvents=1;fontSize=16;fontColor=#ffffff;" vertex="1" parent="CBEQ6D1oWAcKs2kqTUA8-94">
          <mxGeometry x="200" width="41" height="31" as="geometry">
            <mxRectangle width="41" height="31" as="alternateBounds" />
          </mxGeometry>
        </mxCell>
        <mxCell id="CBEQ6D1oWAcKs2kqTUA8-101" value="0" style="shape=partialRectangle;html=1;whiteSpace=wrap;connectable=0;strokeColor=#2D7600;overflow=hidden;fillColor=#60a917;top=0;left=0;bottom=0;right=0;pointerEvents=1;fontSize=16;fontColor=#ffffff;" vertex="1" parent="CBEQ6D1oWAcKs2kqTUA8-94">
          <mxGeometry x="241" width="39" height="31" as="geometry">
            <mxRectangle width="39" height="31" as="alternateBounds" />
          </mxGeometry>
        </mxCell>
        <mxCell id="CBEQ6D1oWAcKs2kqTUA8-102" value="0" style="shape=partialRectangle;html=1;whiteSpace=wrap;connectable=0;strokeColor=#2D7600;overflow=hidden;fillColor=#60a917;top=0;left=0;bottom=0;right=0;pointerEvents=1;fontSize=16;fontColor=#ffffff;" vertex="1" parent="CBEQ6D1oWAcKs2kqTUA8-94">
          <mxGeometry x="280" width="40" height="31" as="geometry">
            <mxRectangle width="40" height="31" as="alternateBounds" />
          </mxGeometry>
        </mxCell>
        <mxCell id="CBEQ6D1oWAcKs2kqTUA8-103" style="shape=tableRow;horizontal=0;startSize=0;swimlaneHead=0;swimlaneBody=0;strokeColor=inherit;top=0;left=0;bottom=0;right=0;collapsible=0;dropTarget=0;fillColor=none;points=[[0,0.5],[1,0.5]];portConstraint=eastwest;fontSize=16;" vertex="1" parent="CBEQ6D1oWAcKs2kqTUA8-75">
          <mxGeometry y="90" width="320" height="29" as="geometry" />
        </mxCell>
        <mxCell id="CBEQ6D1oWAcKs2kqTUA8-104" value="..." style="shape=partialRectangle;html=1;whiteSpace=wrap;connectable=0;strokeColor=#2D7600;overflow=hidden;fillColor=#60a917;top=0;left=0;bottom=0;right=0;pointerEvents=1;fontSize=16;fontColor=#ffffff;" vertex="1" parent="CBEQ6D1oWAcKs2kqTUA8-103">
          <mxGeometry width="40" height="29" as="geometry">
            <mxRectangle width="40" height="29" as="alternateBounds" />
          </mxGeometry>
        </mxCell>
        <mxCell id="CBEQ6D1oWAcKs2kqTUA8-105" value="..." style="shape=partialRectangle;html=1;whiteSpace=wrap;connectable=0;strokeColor=#2D7600;overflow=hidden;fillColor=#60a917;top=0;left=0;bottom=0;right=0;pointerEvents=1;fontSize=16;fontColor=#ffffff;" vertex="1" parent="CBEQ6D1oWAcKs2kqTUA8-103">
          <mxGeometry x="40" width="41" height="29" as="geometry">
            <mxRectangle width="41" height="29" as="alternateBounds" />
          </mxGeometry>
        </mxCell>
        <mxCell id="CBEQ6D1oWAcKs2kqTUA8-106" value="..." style="shape=partialRectangle;html=1;whiteSpace=wrap;connectable=0;strokeColor=#2D7600;overflow=hidden;fillColor=#60a917;top=0;left=0;bottom=0;right=0;pointerEvents=1;fontSize=16;fontColor=#ffffff;" vertex="1" parent="CBEQ6D1oWAcKs2kqTUA8-103">
          <mxGeometry x="81" width="39" height="29" as="geometry">
            <mxRectangle width="39" height="29" as="alternateBounds" />
          </mxGeometry>
        </mxCell>
        <mxCell id="CBEQ6D1oWAcKs2kqTUA8-107" value="..." style="shape=partialRectangle;html=1;whiteSpace=wrap;connectable=0;strokeColor=#2D7600;overflow=hidden;fillColor=#60a917;top=0;left=0;bottom=0;right=0;pointerEvents=1;fontSize=16;fontColor=#ffffff;" vertex="1" parent="CBEQ6D1oWAcKs2kqTUA8-103">
          <mxGeometry x="120" width="40" height="29" as="geometry">
            <mxRectangle width="40" height="29" as="alternateBounds" />
          </mxGeometry>
        </mxCell>
        <mxCell id="CBEQ6D1oWAcKs2kqTUA8-108" value="..." style="shape=partialRectangle;html=1;whiteSpace=wrap;connectable=0;strokeColor=#2D7600;overflow=hidden;fillColor=#60a917;top=0;left=0;bottom=0;right=0;pointerEvents=1;fontSize=16;fontColor=#ffffff;" vertex="1" parent="CBEQ6D1oWAcKs2kqTUA8-103">
          <mxGeometry x="160" width="40" height="29" as="geometry">
            <mxRectangle width="40" height="29" as="alternateBounds" />
          </mxGeometry>
        </mxCell>
        <mxCell id="CBEQ6D1oWAcKs2kqTUA8-109" value="..." style="shape=partialRectangle;html=1;whiteSpace=wrap;connectable=0;strokeColor=#2D7600;overflow=hidden;fillColor=#60a917;top=0;left=0;bottom=0;right=0;pointerEvents=1;fontSize=16;fontColor=#ffffff;" vertex="1" parent="CBEQ6D1oWAcKs2kqTUA8-103">
          <mxGeometry x="200" width="41" height="29" as="geometry">
            <mxRectangle width="41" height="29" as="alternateBounds" />
          </mxGeometry>
        </mxCell>
        <mxCell id="CBEQ6D1oWAcKs2kqTUA8-110" value="..." style="shape=partialRectangle;html=1;whiteSpace=wrap;connectable=0;strokeColor=#2D7600;overflow=hidden;fillColor=#60a917;top=0;left=0;bottom=0;right=0;pointerEvents=1;fontSize=16;fontColor=#ffffff;" vertex="1" parent="CBEQ6D1oWAcKs2kqTUA8-103">
          <mxGeometry x="241" width="39" height="29" as="geometry">
            <mxRectangle width="39" height="29" as="alternateBounds" />
          </mxGeometry>
        </mxCell>
        <mxCell id="CBEQ6D1oWAcKs2kqTUA8-111" value="..." style="shape=partialRectangle;html=1;whiteSpace=wrap;connectable=0;strokeColor=#2D7600;overflow=hidden;fillColor=#60a917;top=0;left=0;bottom=0;right=0;pointerEvents=1;fontSize=16;fontColor=#ffffff;" vertex="1" parent="CBEQ6D1oWAcKs2kqTUA8-103">
          <mxGeometry x="280" width="40" height="29" as="geometry">
            <mxRectangle width="40" height="29" as="alternateBounds" />
          </mxGeometry>
        </mxCell>
        <mxCell id="CBEQ6D1oWAcKs2kqTUA8-130" value="PDE" style="rounded=0;whiteSpace=wrap;html=1;fillColor=#a0522d;fontColor=#ffffff;strokeColor=#6D1F00;" vertex="1" parent="1">
          <mxGeometry x="70" y="940" width="40" height="30" as="geometry" />
        </mxCell>
        <mxCell id="CBEQ6D1oWAcKs2kqTUA8-132" value="PTE" style="rounded=0;whiteSpace=wrap;html=1;fillColor=#a20025;fontColor=#ffffff;strokeColor=#6F0000;" vertex="1" parent="1">
          <mxGeometry x="110" y="940" width="40" height="30" as="geometry" />
        </mxCell>
        <mxCell id="CBEQ6D1oWAcKs2kqTUA8-134" value="" style="edgeStyle=orthogonalEdgeStyle;rounded=0;orthogonalLoop=1;jettySize=auto;html=1;" edge="1" parent="1" source="CBEQ6D1oWAcKs2kqTUA8-133" target="CBEQ6D1oWAcKs2kqTUA8-130">
          <mxGeometry relative="1" as="geometry" />
        </mxCell>
        <mxCell id="CBEQ6D1oWAcKs2kqTUA8-133" value="" style="rounded=0;whiteSpace=wrap;html=1;fillColor=none;" vertex="1" parent="1">
          <mxGeometry x="70" y="990" width="40" height="30" as="geometry" />
        </mxCell>
        <mxCell id="CBEQ6D1oWAcKs2kqTUA8-138" value="" style="edgeStyle=orthogonalEdgeStyle;rounded=0;orthogonalLoop=1;jettySize=auto;html=1;" edge="1" parent="1" source="CBEQ6D1oWAcKs2kqTUA8-135" target="CBEQ6D1oWAcKs2kqTUA8-132">
          <mxGeometry relative="1" as="geometry" />
        </mxCell>
        <mxCell id="CBEQ6D1oWAcKs2kqTUA8-135" value="" style="rounded=0;whiteSpace=wrap;html=1;fillColor=none;" vertex="1" parent="1">
          <mxGeometry x="110" y="990" width="40" height="30" as="geometry" />
        </mxCell>
        <mxCell id="CBEQ6D1oWAcKs2kqTUA8-139" value="PDE" style="rounded=0;whiteSpace=wrap;html=1;fillColor=#a0522d;fontColor=#ffffff;strokeColor=#6D1F00;" vertex="1" parent="1">
          <mxGeometry x="230" y="940" width="40" height="30" as="geometry" />
        </mxCell>
        <mxCell id="CBEQ6D1oWAcKs2kqTUA8-141" value="" style="edgeStyle=orthogonalEdgeStyle;rounded=0;orthogonalLoop=1;jettySize=auto;html=1;" edge="1" parent="1" source="CBEQ6D1oWAcKs2kqTUA8-140" target="CBEQ6D1oWAcKs2kqTUA8-139">
          <mxGeometry relative="1" as="geometry" />
        </mxCell>
        <mxCell id="CBEQ6D1oWAcKs2kqTUA8-140" value="" style="rounded=0;whiteSpace=wrap;html=1;fillColor=none;" vertex="1" parent="1">
          <mxGeometry x="230" y="990" width="40" height="30" as="geometry" />
        </mxCell>
        <mxCell id="CBEQ6D1oWAcKs2kqTUA8-144" value="" style="edgeStyle=orthogonalEdgeStyle;rounded=0;orthogonalLoop=1;jettySize=auto;html=1;" edge="1" parent="1" source="CBEQ6D1oWAcKs2kqTUA8-142" target="CBEQ6D1oWAcKs2kqTUA8-143">
          <mxGeometry relative="1" as="geometry" />
        </mxCell>
        <mxCell id="CBEQ6D1oWAcKs2kqTUA8-142" value="" style="rounded=0;whiteSpace=wrap;html=1;fillColor=none;" vertex="1" parent="1">
          <mxGeometry x="350" y="990" width="40" height="30" as="geometry" />
        </mxCell>
        <mxCell id="CBEQ6D1oWAcKs2kqTUA8-143" value="PTE" style="rounded=0;whiteSpace=wrap;html=1;fillColor=#a20025;fontColor=#ffffff;strokeColor=#6F0000;" vertex="1" parent="1">
          <mxGeometry x="350" y="940" width="40" height="30" as="geometry" />
        </mxCell>
        <mxCell id="CBEQ6D1oWAcKs2kqTUA8-147" value="" style="edgeStyle=orthogonalEdgeStyle;rounded=0;orthogonalLoop=1;jettySize=auto;html=1;" edge="1" parent="1" source="CBEQ6D1oWAcKs2kqTUA8-145" target="CBEQ6D1oWAcKs2kqTUA8-146">
          <mxGeometry relative="1" as="geometry" />
        </mxCell>
        <mxCell id="CBEQ6D1oWAcKs2kqTUA8-145" value="" style="rounded=0;whiteSpace=wrap;html=1;fillColor=none;" vertex="1" parent="1">
          <mxGeometry x="150" y="990" width="40" height="30" as="geometry" />
        </mxCell>
        <mxCell id="CBEQ6D1oWAcKs2kqTUA8-146" value="PTE" style="rounded=0;whiteSpace=wrap;html=1;fillColor=#a20025;fontColor=#ffffff;strokeColor=#6F0000;" vertex="1" parent="1">
          <mxGeometry x="150" y="940" width="40" height="30" as="geometry" />
        </mxCell>
        <mxCell id="CBEQ6D1oWAcKs2kqTUA8-148" value="PTE" style="rounded=0;whiteSpace=wrap;html=1;fillColor=#a20025;fontColor=#ffffff;strokeColor=#6F0000;" vertex="1" parent="1">
          <mxGeometry x="310" y="940" width="40" height="30" as="geometry" />
        </mxCell>
        <mxCell id="CBEQ6D1oWAcKs2kqTUA8-150" value="" style="edgeStyle=orthogonalEdgeStyle;rounded=0;orthogonalLoop=1;jettySize=auto;html=1;" edge="1" parent="1" source="CBEQ6D1oWAcKs2kqTUA8-149" target="CBEQ6D1oWAcKs2kqTUA8-148">
          <mxGeometry relative="1" as="geometry" />
        </mxCell>
        <mxCell id="CBEQ6D1oWAcKs2kqTUA8-149" value="" style="rounded=0;whiteSpace=wrap;html=1;fillColor=none;" vertex="1" parent="1">
          <mxGeometry x="310" y="990" width="40" height="30" as="geometry" />
        </mxCell>
        <mxCell id="CBEQ6D1oWAcKs2kqTUA8-151" value="&lt;p style=&quot;line-height: 200%;&quot;&gt;映射一个完整的&lt;b&gt;&lt;u&gt;4G虚拟内存空间&lt;/u&gt;&lt;/b&gt;需要&lt;b&gt;&lt;u&gt;1024个PDE&lt;/u&gt;&lt;/b&gt;，也就是4K空间，每个PDE需要包含&lt;b&gt;&lt;u&gt;1024个PTE&lt;/u&gt;&lt;/b&gt;（&lt;span style=&quot;background-color: initial;&quot;&gt;每个PTE所占用空间也4Byte&lt;/span&gt;&lt;span style=&quot;background-color: initial;&quot;&gt;）也是4K空间，因此需要使用 &lt;b&gt;&lt;u&gt;4MB+4KB&lt;/u&gt;&lt;/b&gt; 的空间&lt;/span&gt;&lt;/p&gt;" style="shape=note;whiteSpace=wrap;html=1;backgroundOutline=1;darkOpacity=0.05;size=12;fillColor=#f0a30a;fontColor=#000000;strokeColor=#BD7000;spacingLeft=8;spacingRight=8;" vertex="1" parent="1">
          <mxGeometry x="494" y="940" width="290" height="160" as="geometry" />
        </mxCell>
      </root>
    </mxGraphModel>
  </diagram>
  <diagram id="_wx_gKd6rz0116O3_UGh" name="第 6 页">
    <mxGraphModel dx="420" dy="248" grid="1" gridSize="10" guides="1" tooltips="1" connect="1" arrows="1" fold="1" page="1" pageScale="1" pageWidth="827" pageHeight="1169" math="0" shadow="0">
      <root>
        <mxCell id="0" />
        <mxCell id="1" parent="0" />
        <mxCell id="h51lKQAJAkdPmyPpd_58-1" value="" style="rounded=0;whiteSpace=wrap;html=1;" vertex="1" parent="1">
          <mxGeometry x="200" y="200" width="240" height="40" as="geometry" />
        </mxCell>
        <mxCell id="h51lKQAJAkdPmyPpd_58-2" value="0x4FF02000&lt;div&gt;eheap&lt;/div&gt;" style="text;html=1;align=center;verticalAlign=middle;whiteSpace=wrap;rounded=0;" vertex="1" parent="1">
          <mxGeometry x="160" y="280" width="80" height="50" as="geometry" />
        </mxCell>
        <mxCell id="h51lKQAJAkdPmyPpd_58-3" value="malloc(100)" style="text;html=1;align=center;verticalAlign=middle;whiteSpace=wrap;rounded=0;fontFamily=Courier New;fontStyle=1" vertex="1" parent="1">
          <mxGeometry x="369" y="135" width="90" height="20" as="geometry" />
        </mxCell>
        <mxCell id="h51lKQAJAkdPmyPpd_58-4" value="block_t" style="rounded=0;whiteSpace=wrap;html=1;" vertex="1" parent="1">
          <mxGeometry x="200" y="200" width="70" height="40" as="geometry" />
        </mxCell>
        <mxCell id="h51lKQAJAkdPmyPpd_58-5" value="0x4FF02000 + sizeof(block_t)" style="text;html=1;align=center;verticalAlign=middle;whiteSpace=wrap;rounded=0;" vertex="1" parent="1">
          <mxGeometry x="170" y="130" width="190" height="30" as="geometry" />
        </mxCell>
        <mxCell id="h51lKQAJAkdPmyPpd_58-6" value="" style="endArrow=classic;html=1;rounded=0;exitX=0.506;exitY=-0.093;exitDx=0;exitDy=0;exitPerimeter=0;" edge="1" parent="1" source="h51lKQAJAkdPmyPpd_58-2">
          <mxGeometry width="50" height="50" relative="1" as="geometry">
            <mxPoint x="150" y="290" as="sourcePoint" />
            <mxPoint x="200" y="240" as="targetPoint" />
          </mxGeometry>
        </mxCell>
        <mxCell id="h51lKQAJAkdPmyPpd_58-7" value="" style="endArrow=classic;html=1;rounded=0;" edge="1" parent="1">
          <mxGeometry width="50" height="50" relative="1" as="geometry">
            <mxPoint x="270" y="160" as="sourcePoint" />
            <mxPoint x="269.8" y="200" as="targetPoint" />
          </mxGeometry>
        </mxCell>
      </root>
    </mxGraphModel>
  </diagram>
</mxfile>
